<?xml version="1.0" encoding="UTF-8"?> <svg xmlns="http://www.w3.org/2000/svg" viewBox="0 0 116 123" fill="none"><path d="M58.6442 8.79993H56.9209C56.7833 8.79993 56.6672 8.76003 56.6736 8.68313C56.6782 8.60723 56.8383 8.31733 56.8383 8.31733C56.8708 8.24143 56.9488 8.20053 57.0853 8.20053H58.4802C58.6167 8.20053 58.6738 8.24993 58.7275 8.31733C58.7275 8.31733 58.8982 8.62353 58.8926 8.68313C58.8869 8.74383 58.7821 8.79993 58.6442 8.79993ZM62.2407 6.92523C61.9863 6.61093 61.7282 6.38513 61.0942 6.38513H54.6247C53.9911 6.38513 53.6302 6.57353 53.4781 6.92523C53.4781 6.92523 52.7391 8.27033 52.7133 8.62453C52.6879 8.97773 53.2259 9.16253 53.8598 9.16253H61.859C62.4915 9.16253 62.9804 8.90153 63.0044 8.62453C63.0312 8.34623 62.2407 6.92523 62.2407 6.92523V6.92523Z" fill="#ffffff"></path><path d="M60.928 1.8026H57.2729V1.3959H60.928V1.8026ZM60.928 2.67189H57.2729V2.2676H60.928V2.67189ZM60.928 3.54249H57.2729V3.13719H60.928V3.54249ZM60.928 4.41249H57.2726H54.8147V4.00679H57.2726H60.928V4.41249ZM54.7766 1.3959H56.7296V3.52529H54.7766V1.3959ZM61.0945 0H54.625C53.9896 0 53.4771 0.512199 53.4771 1.1458V4.76279C53.4771 5.39569 53.9896 5.90969 54.625 5.90969H61.0945C61.7285 5.90969 62.2411 5.39569 62.2411 4.76279V1.1458C62.2411 0.512199 61.7285 0 61.0945 0V0Z" fill="#ffffff"></path><path d="M58.6442 56.735H56.9209C56.7833 56.735 56.6672 56.6951 56.6736 56.6182C56.6782 56.5423 56.8383 56.2524 56.8383 56.2524C56.8708 56.1765 56.9488 56.1356 57.0853 56.1356H58.4802C58.6167 56.1356 58.6738 56.185 58.7275 56.2524C58.7275 56.2524 58.8982 56.5586 58.8926 56.6182C58.8869 56.6789 58.7821 56.735 58.6442 56.735ZM62.2407 54.8603C61.9863 54.546 61.7282 54.3202 61.0942 54.3202H54.6247C53.9911 54.3202 53.6302 54.5086 53.4781 54.8603C53.4781 54.8603 52.7391 56.2054 52.7133 56.5596C52.6879 56.9128 53.2259 57.0976 53.8598 57.0976H61.859C62.4915 57.0976 62.9804 56.8366 63.0044 56.5596C63.0312 56.2813 62.2407 54.8603 62.2407 54.8603V54.8603Z" fill="#ffffff"></path><path d="M60.928 49.738H57.2729V49.3312H60.928V49.738ZM60.928 50.6072H57.2729V50.203H60.928V50.6072ZM60.928 51.4775H57.2729V51.0722H60.928V51.4775ZM60.928 52.3475H57.2726H54.8147V51.9421H57.2726H60.928V52.3475ZM54.7766 49.3312H56.7296V51.4606H54.7766V49.3312ZM61.0945 47.9349H54.625C53.9896 47.9349 53.4771 48.4472 53.4771 49.0808V52.6978C53.4771 53.3307 53.9896 53.8447 54.625 53.8447H61.0945C61.7285 53.8447 62.2411 53.3307 62.2411 52.6978V49.0808C62.2411 48.4472 61.7285 47.9349 61.0945 47.9349Z" fill="#ffffff"></path><path d="M60.928 93.4242H57.2729V93.0175H60.928V93.4242ZM60.928 94.2935H57.2729V93.8892H60.928V94.2935ZM60.928 95.1645H57.2729V94.7591H60.928V95.1645ZM60.928 96.0337H57.2726H54.8147V95.6284H57.2726H60.928V96.0337ZM54.7766 93.0178H56.7296V95.1472H54.7766V93.0178ZM61.0945 91.6212H54.625C53.9896 91.6212 53.4771 92.1338 53.4771 92.7674V96.3847C53.4771 97.0173 53.9896 97.5316 54.625 97.5316H61.0945C61.7285 97.5316 62.2411 97.0173 62.2411 96.3847V92.7674C62.2411 92.1338 61.7285 91.6212 61.0945 91.6212Z" fill="#ffffff"></path><path d="M17.4254 32.3517H15.702C15.5645 32.3517 15.4484 32.3119 15.4547 32.235C15.4593 32.1591 15.6195 31.8691 15.6195 31.8691C15.6516 31.7933 15.7299 31.7524 15.8664 31.7524H17.2613C17.3978 31.7524 17.455 31.8017 17.5086 31.8691C17.5086 31.8691 17.6794 32.1753 17.6737 32.235C17.6681 32.2956 17.5633 32.3517 17.4254 32.3517V32.3517ZM21.0219 30.4771C20.7676 30.1627 20.5093 29.937 19.8754 29.937H13.4058C12.7719 29.937 12.4113 30.1253 12.2593 30.4771C12.2593 30.4771 11.5202 31.8222 11.4945 32.1764C11.4691 32.5295 12.007 32.7144 12.641 32.7144H20.6402C21.2728 32.7144 21.7617 32.4533 21.7857 32.1764C21.8125 31.8981 21.0219 30.4771 21.0219 30.4771Z" fill="#ffffff"></path><path d="M19.7088 25.3547H16.0537V24.9479H19.7088V25.3547ZM19.7088 26.2239H16.0537V25.8197H19.7088V26.2239ZM19.7088 27.0946H16.0537V26.6893H19.7088V27.0946ZM19.7088 27.9642H16.0533H13.5952V27.5589H16.0533H19.7088V27.9642ZM13.5574 24.9479H15.5104V27.0773H13.5574V24.9479ZM19.875 23.5516H13.4057C12.7707 23.5516 12.2578 24.0639 12.2578 24.6978V28.3149C12.2578 28.9477 12.7707 29.4617 13.4057 29.4617H19.875C20.5089 29.4617 21.0219 28.9477 21.0219 28.3149V24.6978C21.0219 24.0639 20.5089 23.5516 19.875 23.5516V23.5516Z" fill="#ffffff"></path><path d="M99.1793 32.3517H97.4559C97.3184 32.3517 97.2023 32.3119 97.2086 32.235C97.2132 32.1591 97.373 31.8691 97.373 31.8691C97.4055 31.7933 97.4838 31.7524 97.6203 31.7524H99.0152C99.1517 31.7524 99.2089 31.8017 99.2625 31.8691C99.2625 31.8691 99.4333 32.1753 99.4276 32.235C99.422 32.2956 99.3172 32.3517 99.1793 32.3517ZM102.776 30.4771C102.521 30.1627 102.263 29.937 101.629 29.937H95.1597C94.5258 29.937 94.1652 30.1253 94.0132 30.4771C94.0132 30.4771 93.2741 31.8222 93.2484 32.1764C93.223 32.5295 93.7609 32.7144 94.3949 32.7144H102.394C103.027 32.7144 103.516 32.4533 103.539 32.1764C103.566 31.8981 102.776 30.4771 102.776 30.4771V30.4771Z" fill="#ffffff"></path><path d="M101.462 25.3547H97.8073V24.9479H101.462V25.3547ZM101.462 26.2239H97.8073V25.8197H101.462V26.2239ZM101.462 27.0946H97.8073V26.6893H101.462V27.0946ZM101.462 27.9642H97.8073H95.3491V27.5589H97.8073H101.462V27.9642ZM95.3114 24.9479H97.2644V27.0773H95.3114V24.9479ZM101.629 23.5516H95.1593C94.5243 23.5516 94.0117 24.0639 94.0117 24.6978V28.3149C94.0117 28.9477 94.5243 29.4617 95.1593 29.4617H101.629C102.263 29.4617 102.776 28.9477 102.776 28.3149V24.6978C102.776 24.0639 102.263 23.5516 101.629 23.5516V23.5516Z" fill="#ffffff"></path><path d="M17.4254 75.5766H15.702C15.5645 75.5766 15.4484 75.5368 15.4547 75.4599C15.4593 75.384 15.6195 75.094 15.6195 75.094C15.6516 75.0182 15.7299 74.9773 15.8664 74.9773H17.2613C17.3978 74.9773 17.455 75.0266 17.5086 75.094C17.5086 75.094 17.6794 75.4002 17.6737 75.4599C17.6681 75.5205 17.5633 75.5766 17.4254 75.5766V75.5766ZM21.0219 73.702C20.7676 73.3876 20.5093 73.1619 19.8754 73.1619H13.4058C12.7719 73.1619 12.4113 73.3502 12.2593 73.702C12.2593 73.702 11.5202 75.0471 11.4945 75.4013C11.4691 75.7544 12.007 75.9393 12.641 75.9393H20.6402C21.2728 75.9393 21.7617 75.6782 21.7857 75.4013C21.8125 75.123 21.0219 73.702 21.0219 73.702Z" fill="#ffffff"></path><path d="M19.7088 68.5796H16.0537V68.1728H19.7088V68.5796ZM19.7088 69.4488H16.0537V69.0446H19.7088V69.4488ZM19.7088 70.3195H16.0537V69.9142H19.7088V70.3195ZM19.7088 71.1891H16.0533H13.5952V70.7838H16.0533H19.7088V71.1891ZM13.5574 68.1728H15.5104V70.3022H13.5574V68.1728ZM19.875 66.7766H13.4057C12.7707 66.7766 12.2578 67.2888 12.2578 67.9227V71.5398C12.2578 72.1726 12.7707 72.6866 13.4057 72.6866H19.875C20.5089 72.6866 21.0219 72.1726 21.0219 71.5398V67.9227C21.0219 67.2888 20.5089 66.7766 19.875 66.7766V66.7766Z" fill="#ffffff"></path><path d="M99.9317 76.7999H98.2085C98.0709 76.7999 97.9548 76.7601 97.9612 76.6832C97.9658 76.6073 98.1259 76.3173 98.1259 76.3173C98.158 76.2415 98.2363 76.2007 98.3729 76.2007H99.7678C99.9043 76.2007 99.9614 76.2499 100.015 76.3173C100.015 76.3173 100.186 76.6235 100.18 76.6832C100.174 76.7438 100.07 76.7999 99.9317 76.7999ZM103.529 74.9254C103.274 74.611 103.016 74.3853 102.382 74.3853H95.9122C95.2783 74.3853 94.9178 74.5736 94.7657 74.9254C94.7657 74.9254 94.0266 76.2704 94.0009 76.6246C93.9755 76.9777 94.5135 77.1626 95.1474 77.1626H103.147C103.779 77.1626 104.268 76.9015 104.292 76.6246C104.319 76.3463 103.529 74.9254 103.529 74.9254V74.9254Z" fill="#ffffff"></path><path d="M102.215 69.803H98.5601V69.3962H102.215V69.803ZM102.215 70.6722H98.5601V70.268H102.215V70.6722ZM102.215 71.5429H98.5601V71.1376H102.215V71.5429ZM102.215 72.4125H98.5601H96.1019V72.0072H98.5601H102.215V72.4125ZM96.0638 69.3962H98.0168V71.5256H96.0638V69.3962ZM102.382 68H95.9121C95.2771 68 94.7646 68.5122 94.7646 69.1461V72.7632C94.7646 73.396 95.2771 73.91 95.9121 73.91H102.382C103.016 73.91 103.529 73.396 103.529 72.7632V69.1461C103.529 68.5122 103.016 68 102.382 68Z" fill="#ffffff"></path><path d="M16.75 64.75H16.25V34.25H16.75V64.75Z" stroke-width="0.5" class="animated-1"></path><path d="M98.75 34.25V65.75H98.25V34.25H98.75Z" stroke="#ffffff" stroke-width="0.5" class="animated-1"></path><path d="M58.1893 13.4901V44.9354H57.7939V13.4901H58.1893Z" stroke="#ffffff" stroke-width="0.5" class="animated-1"></path><path d="M66.3627 7.8411L89.9774 21.3475L89.781 21.6917L66.1654 8.18573L66.3627 7.8411Z" stroke="#ffffff" stroke-width="0.5" class="animated-1"></path><path d="M49.4059 94.5452L49.2091 94.8897L22.4745 79.601L22.6717 79.2564L49.4059 94.5452Z" stroke="#ffffff" stroke-width="0.5" class="animated-1"></path><path d="M90.3235 70.1753L90.1267 70.5198L66.6557 57.0973L66.8531 56.7526L90.3235 70.1753Z" stroke="#ffffff" stroke-width="0.5" class="animated-1"></path><path d="M92.2665 80.0703L65.965 95.1916L65.7679 94.8478L92.0681 79.7265L92.2665 80.0703Z" stroke="#ffffff" stroke-width="0.5" class="animated-1"></path><path d="M50.1498 57.0723L23.8485 72.1934L23.6513 71.8499L49.9514 56.7286L50.1498 57.0723Z" stroke="#ffffff" stroke-width="0.5" class="animated-1"></path><path d="M49.1019 8.21822L24.6924 22.2542L24.495 21.9103L48.9041 7.87472L49.1019 8.21822Z" stroke="#ffffff" stroke-width="0.5" class="animated-1"></path><path d="M50.6097 81.3235C50.6535 82.0252 49.8774 83.0302 48.6102 83.8095C45.7163 85.5893 41.864 85.7244 39.0615 84.0664C36.4771 82.5378 36.0742 80.2878 39.2884 78.3111C40.5287 77.5484 41.9938 77.1438 43.0811 77.1113L43.6769 78.6061C42.8747 78.7429 42.0975 78.9105 41.217 79.452C39.7766 80.3375 39.5544 81.6223 41.3288 82.6718C42.923 83.6152 45.2013 83.5788 46.8819 82.5455C47.5487 82.1356 48.0764 81.5627 48.2532 80.9108L50.6097 81.3235V81.3235Z" fill="#ffffff"></path><path d="M56.9956 73.983C59.7473 75.6107 59.052 77.3876 57.0517 78.6181C54.6511 80.0945 51.6595 80.3365 49.0236 78.7772L43.8296 75.7045L45.9632 74.3922L50.7204 77.2063C52.122 78.0353 53.6294 78.3962 55.1231 77.4769C56.4167 76.6814 55.8907 75.9039 54.4507 75.0519L49.5774 72.1693L51.7117 70.8574L56.9956 73.983V73.983Z" fill="#ffffff"></path><path d="M61.4736 71.3228L63.1578 72.3191C63.343 72.252 63.555 72.1681 63.955 71.9218C64.782 71.4135 64.8483 70.9538 64.2443 70.5965C63.6781 70.2617 62.9941 70.3876 62.3005 70.8141L61.4736 71.3228V71.3228ZM58.0404 69.2922L59.6734 70.2581L60.3803 69.8232C60.9272 69.4873 61.1487 69.0873 60.4929 68.6992C59.9531 68.3796 59.1767 68.5316 58.6563 68.8516C58.3896 69.016 58.2549 69.1292 58.0404 69.2922V69.2922ZM54.0039 69.4785C54.4985 69.1437 55.7406 68.3175 56.7545 67.6941C58.9816 66.3247 60.8785 66.3525 62.1255 67.0905C63.0639 67.6455 63.3207 68.2477 63.0643 68.9331L63.0897 68.9483C64.0143 68.6742 65.3235 68.6604 66.4806 69.3448C68.3708 70.4627 67.7375 71.9225 65.7101 73.1693C64.8165 73.7189 63.5508 74.4664 62.9524 74.7723L54.0039 69.4785V69.4785Z" fill="#ffffff"></path><path d="M62.2056 64.4036L67.7407 61L69.669 62.1406L66.2682 64.2322L67.8497 65.1674L70.8503 63.322L72.7786 64.4629L69.778 66.3083L71.4109 67.2742L74.945 65.1011L76.8736 66.242L71.2052 69.7274L62.2056 64.4036Z" fill="#ffffff"></path><path d="M39.0847 29.7596V21.6686L31.9473 25.6765L39.0847 29.7596Z" fill="#ffffff"></path><path d="M31.3174 26.567V60.0107L39.0846 55.6493V31.0099L31.3174 26.567Z" fill="#ffffff"></path><path d="M74.3525 54.2536L81.4137 58.2877V34.266L74.3525 38.2291V54.2536Z" fill="#ffffff"></path><path d="M66.4863 17.5568V24.4518L74.3529 28.973V37.0449L81.4141 33.007L84.5087 34.7751L90.5958 31.3581L66.4863 17.5568Z" fill="#ffffff"></path><path d="M85.5542 35.3727L90.6808 38.3019V32.4955L85.5542 35.3727Z" fill="#ffffff"></path><path d="M58.6442 100.422H56.9209C56.7833 100.422 56.6672 100.382 56.6736 100.305C56.6782 100.229 56.8383 99.9389 56.8383 99.9389C56.8708 99.8631 56.9488 99.8222 57.0853 99.8222H58.4802C58.6167 99.8222 58.6738 99.8716 58.7275 99.9389C58.7275 99.9389 58.8982 100.245 58.8926 100.305C58.8869 100.365 58.7821 100.422 58.6442 100.422ZM62.2407 98.5469C61.9863 98.2326 61.7282 98.0068 61.0942 98.0068H54.6247C53.9911 98.0068 53.6302 98.1952 53.4781 98.5469C53.4781 98.5469 52.7391 99.892 52.7133 100.246C52.6879 100.599 53.2259 100.784 53.8598 100.784H61.859C62.4915 100.784 62.9804 100.523 63.0044 100.246C63.0312 99.9679 62.2407 98.5469 62.2407 98.5469V98.5469Z" fill="#ffffff"></path><path d="M20.9702 111.958H24.6637V112.836H25.7608V110.861H25.066V106.838H23.8964V110.861H22.1398V106.838H20.9702V111.958ZM26.5675 111.958H29.6762V110.861H27.7371V109.932H29.3838V108.835H27.7371V107.935H29.6036V106.838H26.5675V111.958V111.958ZM33.8093 111.958H34.9789V106.838H33.8093V108.798H31.9428V106.838H30.7732V111.958H31.9428V109.895H33.8093V111.958ZM35.7089 107.935H37.2456V111.958H38.4173V107.935H39.952V106.838H35.7089V107.935ZM41.8557 111.958V110.216C42.0382 110.239 42.3161 110.239 42.426 110.239C43.6123 110.239 44.3215 109.434 44.3215 108.52C44.3215 107.634 43.8093 106.821 42.2498 106.821C41.8557 106.821 40.9702 106.838 40.6861 106.838V111.958H41.8557ZM42.368 107.921C42.7848 107.921 43.0772 108.06 43.0772 108.512C43.0772 109.009 42.6977 109.142 42.3887 109.142C42.2207 109.142 42.0237 109.128 41.8557 109.105V107.935C42.0963 107.927 42.2145 107.921 42.368 107.921V107.921ZM47.4809 111.958H51.1744V112.836H52.2714V110.861H51.5767V106.838H50.4071V110.861H48.6505V106.838H47.4809V111.958V111.958ZM54.1005 111.958L56.3693 108.775V111.958H57.5389V106.838H56.5165L54.2477 110.019V106.838H53.0781V111.958H54.1005ZM60.6932 112.016H61.8629V111.33C63.2254 111.315 64.1545 110.598 64.1545 109.325C64.1545 108.074 63.1943 107.348 61.8629 107.319V106.778H60.6932V107.319C59.3473 107.357 58.4182 108.06 58.4182 109.325C58.4182 110.604 59.3245 111.315 60.6932 111.33V112.016ZM62.9102 109.325C62.9102 109.924 62.6323 110.239 61.8629 110.254V108.395C62.6468 108.418 62.9102 108.841 62.9102 109.325ZM59.6625 109.325C59.6625 108.827 59.9466 108.418 60.6932 108.395V110.254C59.9757 110.239 59.6625 109.918 59.6625 109.325ZM66.2013 111.958V110.216C66.3838 110.239 66.6617 110.239 66.7716 110.239C67.9579 110.239 68.6671 109.434 68.6671 108.52C68.6671 107.634 68.1549 106.821 66.5954 106.821C66.2013 106.821 65.3158 106.838 65.0317 106.838V111.958H66.2013ZM66.7136 107.921C67.1304 107.921 67.4228 108.06 67.4228 108.512C67.4228 109.009 67.0433 109.142 66.7343 109.142C66.5663 109.142 66.3693 109.128 66.2013 109.105V107.935C66.4419 107.927 66.5601 107.921 66.7136 107.921V107.921ZM69.2519 109.397C69.2519 111.029 70.4153 112.045 71.9728 112.045C73.5323 112.045 74.6957 110.948 74.6957 109.397C74.6957 107.767 73.5323 106.749 71.9728 106.749C70.3428 106.749 69.2519 107.912 69.2519 109.397ZM70.4962 109.397C70.4962 108.462 71.1246 107.846 71.9728 107.846C72.8003 107.846 73.4514 108.462 73.4514 109.397C73.4514 110.262 72.9475 110.948 71.9728 110.948C71.1536 110.948 70.4962 110.276 70.4962 109.397ZM75.6477 111.944C75.9463 111.973 76.6265 111.987 77.118 111.987C78.2296 111.987 79.0633 111.483 79.0633 110.407C79.0633 109.75 78.7045 109.376 78.3312 109.237V109.223C78.7128 108.974 78.9161 108.615 78.9161 108.08C78.9161 107.371 78.4204 106.807 77.1968 106.807C76.6411 106.807 75.9318 106.838 75.6477 106.853V111.944V111.944ZM77.2715 109.889C77.651 109.889 77.8936 110.028 77.8936 110.349C77.8936 110.693 77.6655 110.89 77.2114 110.89C76.9936 110.89 76.8982 110.868 76.8173 110.847V109.889H77.2715ZM77.1823 107.906C77.4685 107.906 77.7464 108.06 77.7464 108.366C77.7464 108.74 77.5058 108.864 77.2051 108.864H76.8173V107.935C76.948 107.921 77.0372 107.906 77.1823 107.906V107.906ZM79.7953 109.397C79.7953 111.029 80.9587 112.045 82.5162 112.045C84.0757 112.045 85.2391 110.948 85.2391 109.397C85.2391 107.767 84.0757 106.749 82.5162 106.749C80.8862 106.749 79.7953 107.912 79.7953 109.397V109.397ZM81.0396 109.397C81.0396 108.462 81.668 107.846 82.5162 107.846C83.3437 107.846 83.9948 108.462 83.9948 109.397C83.9948 110.262 83.4909 110.948 82.5162 110.948C81.697 110.948 81.0396 110.276 81.0396 109.397V109.397ZM86.1911 111.958H87.3607V107.935H89.1173V106.838H86.1911V111.958V111.958ZM89.3792 109.397C89.3792 111.029 90.5426 112.045 92.1001 112.045C93.6596 112.045 94.823 110.948 94.823 109.397C94.823 107.767 93.6596 106.749 92.1001 106.749C90.4701 106.749 89.3792 107.912 89.3792 109.397ZM90.6235 109.397C90.6235 108.462 91.2519 107.846 92.1001 107.846C92.9276 107.846 93.5787 108.462 93.5787 109.397C93.5787 110.262 93.0748 110.948 92.1001 110.948C91.2809 110.948 90.6235 110.276 90.6235 109.397Z" fill="#ffffff"></path><path d="M0 118.176C0 119.808 1.1634 120.825 2.72089 120.825C4.28039 120.825 5.44379 119.727 5.44379 118.176C5.44379 116.546 4.28039 115.528 2.72089 115.528C1.0909 115.528 0 116.691 0 118.176ZM1.2443 118.176C1.2443 117.241 1.8727 116.625 2.72089 116.625C3.54839 116.625 4.19949 117.241 4.19949 118.176C4.19949 119.041 3.69559 119.727 2.72089 119.727C1.9017 119.727 1.2443 119.056 1.2443 118.176V118.176ZM6.39579 120.737C6.69439 120.737 7.14858 120.775 7.82048 120.775C9.10208 120.775 9.81138 120.13 9.81138 119.062C9.81138 118.095 9.13738 117.482 8.15018 117.482C7.99058 117.482 7.70438 117.496 7.56538 117.525V116.714H9.48168V115.617H6.39579V120.737V120.737ZM8.05488 118.579C8.47998 118.579 8.64168 118.85 8.64168 119.149C8.64168 119.435 8.48618 119.676 8.00508 119.676C7.87238 119.676 7.75618 119.661 7.56538 119.64V118.622C7.74168 118.593 7.90968 118.579 8.05488 118.579ZM12.0801 120.737V118.995C12.2626 119.018 12.5405 119.018 12.6504 119.018C13.8367 119.018 14.5459 118.214 14.5459 117.299C14.5459 116.413 14.0337 115.601 12.4742 115.601C12.0801 115.601 11.1946 115.617 10.9105 115.617V120.737H12.0801ZM12.5924 116.7C13.0092 116.7 13.3016 116.839 13.3016 117.291C13.3016 117.788 12.9221 117.921 12.6131 117.921C12.4451 117.921 12.2481 117.907 12.0801 117.884V116.714C12.3207 116.706 12.4389 116.7 12.5924 116.7V116.7ZM14.3701 120.737H15.548L15.9732 119.661H17.9993L18.4224 120.737H19.675L17.5451 115.617H16.4999L14.3701 120.737ZM16.9894 117.117L17.5597 118.564H16.4108L16.9894 117.117V117.117ZM21.7302 120.825C22.6447 120.825 23.5675 120.248 23.5675 119.304C23.5675 118.718 23.3333 118.272 22.7256 118.081V118.06C23.186 117.753 23.3706 117.336 23.3706 116.969C23.3706 116.034 22.7049 115.528 21.7903 115.528C21.0354 115.528 20.3843 115.895 20.0545 116.37L20.7285 117.16C21.0002 116.778 21.2988 116.625 21.6348 116.625C21.9645 116.625 22.1989 116.778 22.1989 117.102C22.1989 117.423 21.9065 117.569 21.5705 117.569H21.1308V118.668H21.5995C22.1553 118.668 22.3959 118.886 22.3959 119.186C22.3959 119.603 21.9936 119.727 21.6804 119.727C21.2636 119.727 20.8301 119.443 20.5315 119.105L19.8948 119.904C20.1644 120.312 20.6912 120.825 21.7302 120.825V120.825ZM24.2975 118.176C24.2975 119.808 25.4609 120.825 27.0184 120.825C28.5779 120.825 29.7413 119.727 29.7413 118.176C29.7413 116.546 28.5779 115.528 27.0184 115.528C25.3884 115.528 24.2975 116.691 24.2975 118.176ZM25.5418 118.176C25.5418 117.241 26.1702 116.625 27.0184 116.625C27.8459 116.625 28.497 117.241 28.497 118.176C28.497 119.041 27.9931 119.727 27.0184 119.727C26.1992 119.727 25.5418 119.056 25.5418 118.176ZM30.6933 120.723C30.9919 120.752 31.6721 120.766 32.1636 120.766C33.2752 120.766 34.1089 120.263 34.1089 119.186C34.1089 118.529 33.7501 118.156 33.3768 118.017V118.002C33.7584 117.753 33.9617 117.394 33.9617 116.859C33.9617 116.15 33.466 115.586 32.2424 115.586C31.6867 115.586 30.9774 115.617 30.6933 115.632V120.723V120.723ZM32.3171 118.668C32.6966 118.668 32.9392 118.807 32.9392 119.128C32.9392 119.472 32.7111 119.669 32.257 119.669C32.0392 119.669 31.9438 119.647 31.8629 119.626V118.668H32.3171V118.668ZM32.2279 116.685C32.5141 116.685 32.792 116.839 32.792 117.146C32.792 117.519 32.5514 117.643 32.2507 117.643H31.8629V116.714C31.9936 116.7 32.0828 116.685 32.2279 116.685V116.685ZM34.5485 120.737H35.7264L36.1516 119.661H38.1777L38.6008 120.737H39.8534L37.7235 115.617H36.6783L34.5485 120.737V120.737ZM37.1678 117.117L37.7381 118.564H36.5892L37.1678 117.117V117.117ZM43.549 120.737H44.7186V115.617H43.549V117.577H41.6825V115.617H40.5129V120.737H41.6825V118.674H43.549V120.737ZM47.0579 120.737L49.3267 117.554V120.737H50.4963V115.617H49.4739L47.2051 118.798V115.617H46.0355V120.737H47.0579ZM54.0301 120.737H55.2019V115.617C54.9012 115.617 54.1629 115.586 53.8414 115.586C52.2529 115.586 51.639 116.472 51.639 117.438C51.639 118.133 51.9978 118.579 52.4291 118.836L51.2284 120.737H52.5391L53.5117 119.091H54.0301V120.737V120.737ZM53.4163 117.994C53.1384 117.936 52.8833 117.739 52.8833 117.357C52.8833 116.934 53.2193 116.685 53.6071 116.685C53.688 116.685 53.9576 116.7 54.0301 116.714V117.994H53.4163ZM57.396 121.615H58.493V120.737H61.6702V121.615H62.7672V119.64H62.0725V115.617H58.7274L58.6838 116.64C58.6113 118.315 58.1509 119.377 57.9456 119.64H57.396V121.615ZM59.7809 117.577L59.8618 116.714H60.9008V119.64H59.2334C59.4076 119.412 59.7021 118.462 59.7809 117.577ZM63.5719 120.737H66.6806V119.64H64.7415V118.711H66.3882V117.614H64.7415V116.714H66.608V115.617H63.5719V120.737V120.737ZM67.1907 116.714H68.7274V120.737H69.899V116.714H71.4337V115.617H67.1907V116.714ZM72.1678 120.737H75.2765V119.64H73.3374V118.711H74.9841V117.614H73.3374V116.714H75.2039V115.617H72.1678V120.737V120.737ZM77.3959 120.737L79.6647 117.554V120.737H80.8343V115.617H79.8119L77.5431 118.798V115.617H76.3735V120.737H77.3959ZM77.1781 114.3C77.1781 115.001 77.7401 115.47 78.7273 115.47C79.6419 115.47 80.264 115.01 80.2495 114.3H79.1524C79.1524 114.613 79.0073 114.665 78.7273 114.665C78.4058 114.665 78.2752 114.578 78.2752 114.3H77.1781ZM86.3237 120.642L87.0703 120.02L86.1267 118.908L87.0703 117.811L86.359 117.175L84.8596 118.894V118.923L86.3237 120.642V120.642ZM84.6398 120.642L85.3864 120.02L84.4428 118.908L85.3864 117.811L84.6771 117.175L83.1777 118.894V118.923L84.6398 120.642V120.642ZM88.0202 120.737H89.1898V115.617H88.0202V120.737ZM89.9945 116.714H91.5312V120.737H92.7029V116.714H94.2376V115.617H89.9945V116.714ZM94.6772 118.659H96.61V117.635H94.6772V118.659ZM97.6345 120.737H98.8041V118.301L100.552 120.737H102.037L99.9593 117.979L101.884 115.617H100.48L98.8041 117.849V115.617H97.6345V120.737V120.737ZM107.093 115.617H105.915L104.876 118.118L103.435 115.617H102.11L104.312 119.282L104.246 119.435C104.182 119.582 104.057 119.64 103.866 119.64C103.719 119.64 103.646 119.611 103.508 119.516L103.099 120.511C103.238 120.621 103.574 120.737 103.872 120.737C104.584 120.737 105.021 120.306 105.374 119.522L107.093 115.617V115.617ZM107.825 120.737C108.124 120.737 108.578 120.775 109.25 120.775C110.532 120.775 111.241 120.13 111.241 119.062C111.241 118.095 110.567 117.482 109.58 117.482C109.42 117.482 109.134 117.496 108.995 117.525V116.714H110.911V115.617H107.825V120.737V120.737ZM109.484 118.579C109.909 118.579 110.071 118.85 110.071 119.149C110.071 119.435 109.916 119.676 109.435 119.676C109.302 119.676 109.186 119.661 108.995 119.64V118.622C109.171 118.593 109.339 118.579 109.484 118.579V118.579ZM115.793 118.923V118.894L114.291 117.175L113.582 117.811L114.526 118.908L113.582 120.02L114.329 120.642L115.793 118.923V118.923ZM114.109 118.923V118.894L112.61 117.175L111.9 117.811L112.844 118.908L111.9 120.02L112.647 120.642L114.109 118.923V118.923Z" fill="#ffffff"></path><style>.animated-1 { stroke: #ffffff; opacity:0.7; stroke-dasharray: 5; stroke-linecap:round; animation: dash 30s linear infinite; } @keyframes dash { to { stroke-dashoffset: 100; } }</style></svg> 