<?xml version="1.0" encoding="UTF-8"?> <!-- Creator: CorelDRAW 2018 (64-Bit) --> <svg xmlns="http://www.w3.org/2000/svg" xmlns:xlink="http://www.w3.org/1999/xlink" xml:space="preserve" width="49.3997mm" height="56.6014mm" style="shape-rendering:geometricPrecision; text-rendering:geometricPrecision; image-rendering:optimizeQuality; fill-rule:evenodd; clip-rule:evenodd" viewBox="0 0 30689.03 35163.01"> <defs> <style type="text/css"> <![CDATA[ .fil2 {fill:#F39314} .fil1 {fill:#3C3C3B;fill-rule:nonzero} .fil0 {fill:#F39314;fill-rule:nonzero} ]]> </style> </defs> <g id="Слой_x0020_1"> <metadata id="CorelCorpID_0Corel-Layer"></metadata> <path class="fil0" d="M1513.4 34471.94l-1513.4 0 0 -2418.67 424.99 0 0 2021.33 1088.41 0 0 397.34zm1810.48 0l-1433.88 0 0 -2418.67 1399.34 0 0 397.34 -974.35 0 0 601.24 870.73 0 0 397.34 -870.73 0 0 625.4 1008.89 0 0 397.34zm2142.22 -905.27l-583.9 0 0 -397.34 981.25 0 0 1002c-103.62,103.68 -241.85,186.62 -414.62,248.81 -172.77,59.89 -336.28,89.83 -490.65,89.83 -391.57,0 -700.26,-112.88 -925.96,-338.64 -223.46,-223.4 -335.16,-526.31 -335.16,-908.69 0,-354.73 110.58,-650.75 331.68,-888 221.16,-239.55 512.52,-359.32 874.15,-359.32 308.69,0 567.81,81.76 777.48,245.27l-179.72 338.64c-59.89,-57.59 -139.34,-103.06 -238.37,-136.49 -99.09,-33.42 -201.59,-50.07 -307.51,-50.07 -241.85,0 -436.54,75.98 -583.96,227.99 -149.72,149.78 -224.58,357.09 -224.58,621.98 0,255.64 74.86,461.83 224.58,618.44 147.42,154.38 345.53,231.54 594.34,231.54 87.53,0 181.96,-16.15 283.29,-48.39 101.39,-34.54 173.95,-73.68 217.68,-117.48l0 -380.07zm742.88 -304.03c0,-352.43 117.48,-648.45 352.43,-888 239.55,-239.55 541.29,-359.32 905.27,-359.32 363.92,0 664.54,115.18 901.79,345.47 239.55,232.65 359.32,533.27 359.32,901.85 0,361.62 -119.77,659.94 -359.32,894.9 -239.55,234.95 -540.17,352.43 -901.79,352.43 -363.98,0 -664.54,-115.18 -901.85,-345.53 -237.25,-230.36 -355.85,-530.97 -355.85,-901.79zm449.16 0c0,244.15 77.16,446.86 231.54,608.07 154.32,161.27 346.65,241.91 577.01,241.91 248.74,0 445.68,-80.64 590.8,-241.91 147.42,-161.21 221.16,-363.92 221.16,-608.07 0,-246.51 -78.34,-450.34 -234.95,-611.61 -156.61,-158.91 -348.95,-238.37 -577.01,-238.37 -232.65,0 -426.17,79.46 -580.49,238.37 -152.02,158.98 -228.06,362.8 -228.06,611.61zm2332.26 950.19c0,-66.85 25.91,-126.11 77.72,-177.99 51.81,-51.81 118.04,-77.72 198.67,-77.72 69.14,0 128.41,25.91 177.99,77.72 49.51,51.87 74.24,111.14 74.24,177.99 0,75.98 -24.73,141.08 -74.24,195.19 -49.57,54.11 -108.84,81.2 -177.99,81.2 -80.64,0 -146.86,-27.09 -198.67,-81.2 -51.81,-54.11 -77.72,-119.22 -77.72,-195.19zm1869.25 259.12l-428.47 0 1022.75 -2425.57 373.18 0 1022.75 2425.57 -452.63 0 -252.22 -618.51 -1033.12 0 -252.22 618.51zm1122.95 -1015.85l-352.43 -860.35 -355.91 860.35 708.34 0zm2536.15 1015.85l-397.41 0 0 -1157.49 -411.14 0 -10.37 165.87c-29.94,280.99 -73.12,495.25 -129.59,642.67 -56.41,147.42 -127.79,247 -214.2,298.88 -86.35,51.81 -205.57,78.84 -357.59,81.2l-34.6 -387.03c50.69,2.3 97.91,-11.49 141.7,-41.44 50.69,-36.84 95.61,-114 134.75,-231.47 39.14,-117.48 64.48,-264.96 75.98,-442.32l24.23 -483.7 1178.24 0 0 1554.84zm839.6 0l-397.34 0 0 -1554.84 1043.43 0 0 373.18 -646.09 0 0 1181.66zm981.25 -190.04c-154.38,-154.32 -231.54,-350.13 -231.54,-587.38 0,-237.25 77.16,-431.89 231.54,-583.9 154.32,-154.38 359.32,-231.54 615.03,-231.54 253.34,0 457.23,77.16 611.55,231.54 156.61,152.02 234.95,346.65 234.95,583.9 0,234.95 -78.34,430.77 -234.95,587.38 -156.61,152.02 -360.51,228.06 -611.55,228.06 -255.7,0 -460.71,-76.04 -615.03,-228.06zm314.41 -905.27c-80.64,82.94 -120.96,188.92 -120.96,317.89 0,128.97 39.76,235.51 119.22,319.63 79.46,84.05 180.22,126.11 302.36,126.11 124.37,0 226.32,-41.5 305.77,-124.43 79.46,-82.87 119.22,-190.04 119.22,-321.3 0,-128.97 -40.32,-234.95 -120.96,-317.89 -80.64,-82.94 -181.96,-124.37 -304.03,-124.37 -119.77,0 -219.98,41.44 -300.62,124.37zm1890 1786.37l-397.34 0 0 -2245.9 397.34 0 0 148.54c50.63,-55.23 119.77,-100.14 207.31,-134.75 87.53,-34.54 178.48,-51.81 272.97,-51.81 214.2,0 384.67,73.74 511.34,221.16 128.97,149.72 193.52,339.76 193.52,570.11 0,241.85 -76.04,442.26 -228.06,601.17 -152.02,158.98 -350.13,238.43 -594.28,238.43 -156.68,0 -277.57,-25.35 -362.8,-76.04l0 729.09zm355.85 -1910.75c-138.16,0 -256.82,56.41 -355.85,169.29l0 628.88c94.43,59.89 203.83,89.83 328.2,89.83 131.33,0 236.69,-42.62 316.15,-127.85 79.52,-85.23 119.22,-195.81 119.22,-331.74 0,-128.97 -36.28,-232.59 -108.84,-310.93 -72.56,-78.34 -172.15,-117.48 -298.88,-117.48zm2297.72 234.95l-725.55 984.73 -397.34 0 0 -1554.84 397.34 0 0 984.73 725.55 -984.73 397.34 0 0 1554.84 -397.34 0 0 -984.73zm1188.62 -172.77l-511.34 0 0 -397.34 1416.61 0 0 397.34 -507.93 0 0 1157.49 -397.34 0 0 -1157.49zm1585.96 1157.49l-397.34 0 0 -1554.84 359.32 0 528.61 649.57 501.03 -649.57 348.95 0 0 1554.84 -397.34 0 0 -950.19 -459.53 580.49 -10.37 0 -473.32 -580.49 0 950.19zm2905.78 -984.73l-725.55 984.73 -397.34 0 0 -1554.84 397.34 0 0 984.73 725.55 -984.73 397.34 0 0 1554.84 -397.34 0 0 -984.73zm1810.54 -570.11l501.03 0 -597.76 739.4 670.32 815.44 -518.3 0 -615.03 -784.31 559.74 -770.52zm-573.53 1554.84l-397.34 0 0 -1554.84 397.34 0 0 1554.84zm1502.96 -1154.01l-100.21 -290.24c168.17,-99.09 351.31,-148.6 549.42,-148.6 216.5,0 374.3,52.99 473.32,158.98 99.09,105.92 148.6,268.31 148.6,487.18l0 946.71 -345.53 0 0 -179.66c-92.13,133.57 -245.33,200.41 -459.53,200.41 -147.42,0 -265.52,-43.24 -354.17,-129.59 -88.71,-86.35 -133.01,-202.15 -133.01,-347.27 0,-161.21 51.81,-285.58 155.43,-373.12 103.68,-87.53 240.73,-131.33 411.2,-131.33 140.52,0 258,33.42 352.43,100.21 4.6,-138.23 -15.53,-239.55 -60.45,-304.03 -44.92,-64.48 -121.51,-96.79 -229.8,-96.79 -119.77,0 -255.7,35.72 -407.72,107.16zm397.34 839.6c133.63,0 233.83,-47.21 300.62,-141.7l0 -158.91c-64.48,-50.69 -155.5,-76.04 -272.97,-76.04 -73.68,0 -133.57,17.27 -179.66,51.87 -46.1,34.54 -69.08,81.76 -69.08,141.64 0,55.29 20.69,99.65 62.19,133.01 41.44,33.42 94.43,50.13 158.91,50.13z"></path> <path class="fil1" d="M6889.67 29646.72l0 -1235.77 934.47 0 0 353.11 -557.87 0 0 82.38c20.44,-6.27 81.63,-9.44 183.64,-9.44 145.93,0 260.49,34.17 343.61,102.38 83.18,68.27 124.81,165.19 124.81,290.74 0,285.58 -182.83,428.34 -548.49,428.34 -76.85,0 -171.83,-2.3 -284.78,-7.02 -31.37,0 -62.81,-0.43 -94.18,-1.18 -31.37,-0.81 -54.92,-1.55 -70.57,-2.36 -15.72,-0.81 -25.91,-1.18 -30.63,-1.18zm513.14 -458.97c-65.91,0 -111.45,2.36 -136.55,7.02l0 103.56c50.26,4.72 98.09,7.08 143.57,7.08 50.26,0 84.74,-4.29 103.62,-12.92 18.82,-8.64 28.2,-23.17 28.2,-43.55 0,-21.99 -10.19,-37.65 -30.56,-47.09 -20.44,-9.44 -56.53,-14.1 -108.28,-14.1zm870.92 -268.38l-87.1 -256.57c112.94,-69.02 244.02,-103.56 393.06,-103.56 153.82,0 265.58,36.9 335.41,110.64 69.83,73.74 104.74,186.74 104.74,338.95l0 637.89 -305.96 0 0 -96.48c-51.81,73.74 -144.38,110.58 -277.76,110.58 -100.45,0 -181.28,-29.82 -242.47,-89.4 -61.19,-59.64 -91.76,-141.27 -91.76,-244.83 0,-111.39 34.91,-197.74 104.74,-258.93 69.83,-61.19 162.02,-91.76 276.58,-91.76 89.4,0 158.48,19.57 207.12,58.83 7.83,-120.83 -40.82,-181.28 -145.93,-181.28 -72.19,0 -162.45,21.99 -270.67,65.91zm282.42 447.23c62.81,0 107.54,-18.02 134.19,-54.11l0 -65.91c-32.99,-23.54 -77.65,-35.29 -134.19,-35.29 -29.82,0 -54.11,7.02 -72.93,21.18 -18.82,14.1 -28.27,33.73 -28.27,58.83 0,23.54 9.44,41.93 28.27,55.29 18.82,13.36 43.11,20 72.93,20zm1101.58 308.38c-98.84,0 -195.38,-18.08 -289.5,-54.17 -91.01,-37.65 -156.18,-83.18 -195.38,-136.49l178.85 -216.56c28.27,32.93 69.83,62 124.74,87.1 54.98,25.1 105.92,37.65 153.01,37.65 102.01,0 153.01,-25.1 153.01,-75.29 0,-53.36 -37.65,-80.08 -113,-80.08l-202.4 0 0 -235.39 190.66 0c32.93,0 58.09,-7.83 75.29,-23.48 17.27,-15.72 25.91,-36.09 25.91,-61.25 0,-50.2 -45.47,-75.29 -136.49,-75.29 -84.74,0 -175,40.82 -270.74,122.38l-145.93 -211.84c105.18,-128.66 266.76,-193.02 484.88,-193.02 142.82,0 252.66,27.09 329.57,81.2 76.91,54.17 115.3,130.65 115.3,229.55 0,50.2 -17.64,96.11 -52.93,137.67 -35.29,41.62 -82,71.82 -140.09,90.64l0 4.72c144.38,32.93 216.56,116.11 216.56,249.49 0,98.84 -45.47,177.3 -136.49,235.39 -91.01,58.02 -212.65,87.1 -364.85,87.1zm826.19 -157.73c-106.73,-106.73 -160.03,-240.11 -160.03,-400.14 0,-160.03 53.3,-293.47 160.03,-400.14 106.73,-105.18 249.49,-157.73 428.41,-157.73 178.85,0 320.87,52.56 426.05,157.73 108.28,105.11 162.39,238.49 162.39,400.14 0,161.65 -54.11,295.03 -162.39,400.14 -105.18,105.11 -247.19,157.73 -426.05,157.73 -178.92,0 -321.68,-52.62 -428.41,-157.73zm216.56 -400.14c0,65.91 20,120.46 60.01,163.57 40.01,43.18 90.64,64.73 151.83,64.73 62.75,0 113.75,-20.75 153.01,-62.37 39.2,-41.56 58.83,-96.91 58.83,-165.93 0,-65.91 -20,-120.46 -60.01,-163.57 -40.01,-43.18 -90.64,-64.73 -151.83,-64.73 -61.19,0 -111.82,20.75 -151.83,62.37 -40.01,41.56 -60.01,96.91 -60.01,165.93zm1000.38 529.61l0 -1059.21c12.55,0 77.28,-2.36 194.2,-7.08 116.92,-4.66 203.58,-7.02 260.05,-7.02 334.29,0 501.4,94.12 501.4,282.42 0,59.64 -18.45,111.02 -55.35,154.19 -36.84,43.18 -80.39,68.65 -130.58,76.47l0 4.72c65.85,18.82 117.29,49.08 154.13,90.64 36.9,41.56 55.35,90.64 55.35,147.11 0,221.29 -174.2,331.87 -522.59,331.87 -47.03,0 -127.85,-2.36 -242.41,-7.02 -113,-4.72 -184.38,-7.08 -214.2,-7.08zm466.05 -423.69l-113 0 0 145.93c61.19,6.27 109.09,9.44 143.57,9.44 31.43,0 57.28,-7.45 77.72,-22.36 20.38,-14.91 30.56,-32.55 30.56,-52.99 0,-53.36 -46.28,-80.02 -138.85,-80.02zm21.18 -367.21c-61.19,0 -105.92,2.36 -134.19,7.08l0 148.29 117.72 0c73.74,0 110.58,-26.65 110.58,-80.02 0,-20.44 -8.57,-38.08 -25.84,-52.99 -17.27,-14.91 -40.01,-22.36 -68.27,-22.36zm1153.33 790.9l-437.79 0 0 -1059.21 353.05 0 0 247.13 110.64 0c169.47,0 292.67,36.9 369.58,110.64 75.29,72.19 112.94,162.39 112.94,270.67 0,117.72 -41.56,219.73 -124.74,306.02 -83.18,83.18 -211.03,124.74 -383.68,124.74zm962.73 0l-353.11 0 0 -1059.21 353.11 0 0 1059.21zm-967.46 -529.61l-80.02 0 0 223.58 77.72 0c92.56,0 138.85,-36.84 138.85,-110.58 0,-75.36 -45.47,-113 -136.55,-113zm2057.3 188.3l96.48 249.49c-106.67,80.08 -244.02,120.09 -411.88,120.09 -172.64,0 -312.3,-51 -419.03,-153.01 -103.56,-102.01 -155.31,-236.94 -155.31,-404.86 0,-160.03 52.56,-292.67 157.67,-397.78 106.73,-106.73 245.58,-160.09 416.67,-160.09 139.65,0 260.49,47.09 362.43,141.27 100.45,91.01 150.65,210.23 150.65,357.77 0,70.57 -7.02,129.47 -21.18,176.49l-701.44 0c31.43,97.35 113.81,145.99 247.19,145.99 103.56,0 196.13,-25.16 277.76,-75.36zm-327.21 -451.95c-103.56,0 -173.39,48.64 -209.48,145.99l381.32 0c0,-40.82 -15.72,-75.36 -47.09,-103.62 -31.37,-28.2 -72.93,-42.37 -124.74,-42.37zm2219.63 793.26l-353.05 0 0 -364.85 -341.31 0 0 364.85 -353.05 0 0 -1059.21 353.05 0 0 364.85 341.31 0 0 -364.85 353.05 0 0 1059.21zm371.94 -727.35l-87.1 -256.57c112.94,-69.02 244.02,-103.56 393.06,-103.56 153.82,0 265.58,36.9 335.41,110.64 69.83,73.74 104.74,186.74 104.74,338.95l0 637.89 -305.96 0 0 -96.48c-51.81,73.74 -144.38,110.58 -277.76,110.58 -100.45,0 -181.28,-29.82 -242.47,-89.4 -61.19,-59.64 -91.76,-141.27 -91.76,-244.83 0,-111.39 34.91,-197.74 104.74,-258.93 69.83,-61.19 162.02,-91.76 276.58,-91.76 89.4,0 158.48,19.57 207.12,58.83 7.83,-120.83 -40.82,-181.28 -145.93,-181.28 -72.19,0 -162.45,21.99 -270.67,65.91zm282.42 447.23c62.81,0 107.54,-18.02 134.19,-54.11l0 -65.91c-32.99,-23.54 -77.65,-35.29 -134.19,-35.29 -29.82,0 -54.11,7.02 -72.93,21.18 -18.82,14.1 -28.27,33.73 -28.27,58.83 0,23.54 9.44,41.93 28.27,55.29 18.82,13.36 43.11,20 72.93,20zm699.08 280.12l0 -1059.21c12.55,0 77.28,-2.36 194.2,-7.08 116.92,-4.66 203.58,-7.02 260.05,-7.02 334.29,0 501.4,94.12 501.4,282.42 0,59.64 -18.45,111.02 -55.35,154.19 -36.84,43.18 -80.39,68.65 -130.58,76.47l0 4.72c65.85,18.82 117.29,49.08 154.13,90.64 36.9,41.56 55.35,90.64 55.35,147.11 0,221.29 -174.2,331.87 -522.59,331.87 -47.03,0 -127.85,-2.36 -242.41,-7.02 -113,-4.72 -184.38,-7.08 -214.2,-7.08zm466.05 -423.69l-113 0 0 145.93c61.19,6.27 109.09,9.44 143.57,9.44 31.43,0 57.28,-7.45 77.72,-22.36 20.38,-14.91 30.56,-32.55 30.56,-52.99 0,-53.36 -46.28,-80.02 -138.85,-80.02zm21.18 -367.21c-61.19,0 -105.92,2.36 -134.19,7.08l0 148.29 117.72 0c73.74,0 110.58,-26.65 110.58,-80.02 0,-20.44 -8.57,-38.08 -25.84,-52.99 -17.27,-14.91 -40.01,-22.36 -68.27,-22.36zm1153.33 790.9l-437.79 0 0 -1059.21 353.05 0 0 247.13 110.64 0c169.47,0 292.67,36.9 369.58,110.64 75.29,72.19 112.94,162.39 112.94,270.67 0,117.72 -41.56,219.73 -124.74,306.02 -83.18,83.18 -211.03,124.74 -383.68,124.74zm962.73 0l-353.11 0 0 -1059.21 353.11 0 0 1059.21zm-967.46 -529.61l-80.02 0 0 223.58 77.72 0c92.56,0 138.85,-36.84 138.85,-110.58 0,-75.36 -45.47,-113 -136.55,-113zm1579.44 529.61l-353.05 0 0 -1059.21 353.05 0 0 489.6 287.2 -489.6 442.51 0 -343.67 503.7 395.42 555.51 -456.61 0 -324.85 -494.32 0 494.32zm1631.19 -553.15l-376.6 553.15 -353.05 0 0 -1059.21 353.05 0 0 553.15 376.6 -553.15 353.11 0 0 1059.21 -353.11 0 0 -553.15zm-17155.71 2106.68l-353.05 0 0 -729.71 -329.57 0 0 729.71 -353.05 0 0 -1059.21 1035.67 0 0 1059.21zm611.98 470.78l-353.05 0 0 -1529.99 353.05 0 0 80.02c72.19,-72.19 170.28,-108.28 294.22,-108.28 139.65,0 253.47,51 341.31,153.01 87.91,102.01 131.83,231.47 131.83,388.4 0,164.75 -52.56,302.05 -157.73,411.88 -106.67,108.28 -243.96,162.45 -411.88,162.45 -78.46,0 -144.38,-11 -197.74,-32.99l0 475.5zm183.64 -1228.69c-65.91,0 -127.11,31.37 -183.64,94.12l0 322.49c45.54,26.71 100.45,40.01 164.75,40.01 72.19,0 127.91,-21.56 167.18,-64.73 39.2,-43.11 58.83,-100.83 58.83,-173.02 0,-65.85 -18.45,-118.84 -55.35,-158.85 -36.84,-40.01 -87.47,-60.01 -151.77,-60.01zm885.02 628.45c-106.73,-106.73 -160.03,-240.11 -160.03,-400.14 0,-160.03 53.3,-293.47 160.03,-400.14 106.73,-105.18 249.49,-157.73 428.41,-157.73 178.85,0 320.87,52.56 426.05,157.73 108.28,105.11 162.39,238.49 162.39,400.14 0,161.65 -54.11,295.03 -162.39,400.14 -105.18,105.11 -247.19,157.73 -426.05,157.73 -178.92,0 -321.68,-52.62 -428.41,-157.73zm216.56 -400.14c0,65.91 20,120.46 60.01,163.57 40.01,43.18 90.64,64.73 151.83,64.73 62.75,0 113.75,-20.75 153.01,-62.37 39.2,-41.56 58.83,-96.91 58.83,-165.93 0,-65.91 -20,-120.46 -60.01,-163.57 -40.01,-43.18 -90.64,-64.73 -151.83,-64.73 -61.19,0 -111.82,20.75 -151.83,62.37 -40.01,41.56 -60.01,96.91 -60.01,165.93zm1353.43 529.61l-353.05 0 0 -1059.21 753.19 0 0 329.51 -400.14 0 0 729.71zm906.2 470.78l-353.05 0 0 -1529.99 353.05 0 0 80.02c72.19,-72.19 170.28,-108.28 294.22,-108.28 139.65,0 253.47,51 341.31,153.01 87.91,102.01 131.83,231.47 131.83,388.4 0,164.75 -52.56,302.05 -157.73,411.88 -106.67,108.28 -243.96,162.45 -411.88,162.45 -78.46,0 -144.38,-11 -197.74,-32.99l0 475.5zm183.64 -1228.69c-65.91,0 -127.11,31.37 -183.64,94.12l0 322.49c45.54,26.71 100.45,40.01 164.75,40.01 72.19,0 127.91,-21.56 167.18,-64.73 39.2,-43.11 58.83,-100.83 58.83,-173.02 0,-65.85 -18.45,-118.84 -55.35,-158.85 -36.84,-40.01 -87.47,-60.01 -151.77,-60.01zm896.82 30.56l-87.1 -256.57c112.94,-69.02 244.02,-103.56 393.06,-103.56 153.82,0 265.58,36.9 335.41,110.64 69.83,73.74 104.74,186.74 104.74,338.95l0 637.89 -305.96 0 0 -96.48c-51.81,73.74 -144.38,110.58 -277.76,110.58 -100.45,0 -181.28,-29.82 -242.47,-89.4 -61.19,-59.64 -91.76,-141.27 -91.76,-244.83 0,-111.39 34.91,-197.74 104.74,-258.93 69.83,-61.19 162.02,-91.76 276.58,-91.76 89.4,0 158.48,19.57 207.12,58.83 7.83,-120.83 -40.82,-181.28 -145.93,-181.28 -72.19,0 -162.45,21.99 -270.67,65.91zm282.42 447.23c62.81,0 107.54,-18.02 134.19,-54.11l0 -65.91c-32.99,-23.54 -77.65,-35.29 -134.19,-35.29 -29.82,0 -54.11,7.02 -72.93,21.18 -18.82,14.1 -28.27,33.73 -28.27,58.83 0,23.54 9.44,41.93 28.27,55.29 18.82,13.36 43.11,20 72.93,20zm1052.13 280.12l-353.05 0 0 -1059.21 317.76 0 317.76 360.13 294.22 -360.13 308.38 0 0 1059.21 -353.11 0 0 -520.16 -256.57 294.22 -7.02 0 -268.38 -294.22 0 520.16zm1497 0l-353.05 0 0 -1059.21 317.76 0 317.76 360.13 294.22 -360.13 308.38 0 0 1059.21 -353.11 0 0 -520.16 -256.57 294.22 -7.02 0 -268.38 -294.22 0 520.16zm1873.6 -553.15l-376.6 553.15 -353.05 0 0 -1059.21 353.05 0 0 553.15 376.6 -553.15 353.11 0 0 1059.21 -353.11 0 0 -553.15zm965.1 1023.93l-353.05 0 0 -1529.99 353.05 0 0 80.02c72.19,-72.19 170.28,-108.28 294.22,-108.28 139.65,0 253.47,51 341.31,153.01 87.91,102.01 131.83,231.47 131.83,388.4 0,164.75 -52.56,302.05 -157.73,411.88 -106.67,108.28 -243.96,162.45 -411.88,162.45 -78.46,0 -144.38,-11 -197.74,-32.99l0 475.5zm183.64 -1228.69c-65.91,0 -127.11,31.37 -183.64,94.12l0 322.49c45.54,26.71 100.45,40.01 164.75,40.01 72.19,0 127.91,-21.56 167.18,-64.73 39.2,-43.11 58.83,-100.83 58.83,-173.02 0,-65.85 -18.45,-118.84 -55.35,-158.85 -36.84,-40.01 -87.47,-60.01 -151.77,-60.01zm885.02 628.45c-106.73,-106.73 -160.03,-240.11 -160.03,-400.14 0,-160.03 53.3,-293.47 160.03,-400.14 106.73,-105.18 249.49,-157.73 428.41,-157.73 178.85,0 320.87,52.56 426.05,157.73 108.28,105.11 162.39,238.49 162.39,400.14 0,161.65 -54.11,295.03 -162.39,400.14 -105.18,105.11 -247.19,157.73 -426.05,157.73 -178.92,0 -321.68,-52.62 -428.41,-157.73zm216.56 -400.14c0,65.91 20,120.46 60.01,163.57 40.01,43.18 90.64,64.73 151.83,64.73 62.75,0 113.75,-20.75 153.01,-62.37 39.2,-41.56 58.83,-96.91 58.83,-165.93 0,-65.91 -20,-120.46 -60.01,-163.57 -40.01,-43.18 -90.64,-64.73 -151.83,-64.73 -61.19,0 -111.82,20.75 -151.83,62.37 -40.01,41.56 -60.01,96.91 -60.01,165.93zm1000.38 529.61l0 -1059.21c12.55,0 77.28,-2.36 194.2,-7.08 116.92,-4.66 203.58,-7.02 260.05,-7.02 334.29,0 501.4,94.12 501.4,282.42 0,59.64 -18.45,111.02 -55.35,154.19 -36.84,43.18 -80.39,68.65 -130.58,76.47l0 4.72c65.85,18.82 117.29,49.08 154.13,90.64 36.9,41.56 55.35,90.64 55.35,147.11 0,221.29 -174.2,331.87 -522.59,331.87 -47.03,0 -127.85,-2.36 -242.41,-7.02 -113,-4.72 -184.38,-7.08 -214.2,-7.08zm466.05 -423.69l-113 0 0 145.93c61.19,6.27 109.09,9.44 143.57,9.44 31.43,0 57.28,-7.45 77.72,-22.36 20.38,-14.91 30.56,-32.55 30.56,-52.99 0,-53.36 -46.28,-80.02 -138.85,-80.02zm21.18 -367.21c-61.19,0 -105.92,2.36 -134.19,7.08l0 148.29 117.72 0c73.74,0 110.58,-26.65 110.58,-80.02 0,-20.44 -8.57,-38.08 -25.84,-52.99 -17.27,-14.91 -40.01,-22.36 -68.27,-22.36zm828.55 63.55l-87.1 -256.57c112.94,-69.02 244.02,-103.56 393.06,-103.56 153.82,0 265.58,36.9 335.41,110.64 69.83,73.74 104.74,186.74 104.74,338.95l0 637.89 -305.96 0 0 -96.48c-51.81,73.74 -144.38,110.58 -277.76,110.58 -100.45,0 -181.28,-29.82 -242.47,-89.4 -61.19,-59.64 -91.76,-141.27 -91.76,-244.83 0,-111.39 34.91,-197.74 104.74,-258.93 69.83,-61.19 162.02,-91.76 276.58,-91.76 89.4,0 158.48,19.57 207.12,58.83 7.83,-120.83 -40.82,-181.28 -145.93,-181.28 -72.19,0 -162.45,21.99 -270.67,65.91zm282.42 447.23c62.81,0 107.54,-18.02 134.19,-54.11l0 -65.91c-32.99,-23.54 -77.65,-35.29 -134.19,-35.29 -29.82,0 -54.11,7.02 -72.93,21.18 -18.82,14.1 -28.27,33.73 -28.27,58.83 0,23.54 9.44,41.93 28.27,55.29 18.82,13.36 43.11,20 72.93,20zm1746.49 280.12l-353.05 0 0 -364.85 -341.31 0 0 364.85 -353.05 0 0 -1059.21 353.05 0 0 364.85 341.31 0 0 -364.85 353.05 0 0 1059.21zm988.58 -553.15l-376.6 553.15 -353.05 0 0 -1059.21 353.05 0 0 553.15 376.6 -553.15 353.11 0 0 1059.21 -353.11 0 0 -553.15zm1172.22 -506.06l364.85 0 0 1059.21 -353.05 0 0 -270.67 -84.74 0 -167.11 270.67 -402.5 0 251.85 -348.39c-117.72,-62.75 -176.56,-167.11 -176.56,-313.04 0,-122.38 47.9,-219.3 143.57,-290.68 95.73,-71.38 237,-107.1 423.69,-107.1zm-190.66 426.05c0,28.27 13.36,52.56 40.07,72.93 26.65,20.44 59.58,30.63 98.84,30.63l63.55 0 0 -223.58 -68.27 0c-37.65,0 -69.45,12.11 -95.3,36.47 -25.91,24.29 -38.89,52.18 -38.89,83.56z"></path> <g id="_1643230069264"> <path class="fil0" d="M15648.02 2446.44l-479.1 0c-38.27,0 -70.51,-11.06 -68.77,-32.43 1.3,-21.12 45.79,-101.7 45.79,-101.7 9.07,-21.12 30.75,-32.49 68.71,-32.49l387.78 0c37.96,0 53.8,13.73 68.77,32.49 0,0 47.46,85.11 45.91,101.7 -1.62,16.84 -30.75,32.43 -69.08,32.43zm999.88 -521.16c-70.7,-87.41 -142.51,-150.15 -318.76,-150.15l-1798.61 0c-176.12,0 -276.45,52.37 -318.76,150.15 0,0 -205.44,373.92 -212.59,472.39 -7.08,98.22 142.45,149.59 318.7,149.59l2223.91 0c175.81,0 311.74,-72.56 318.45,-149.59 7.45,-77.34 -212.34,-472.39 -212.34,-472.39z"></path> <path class="fil0" d="M16282.87 501.15l-1016.16 0 0 -113.07 1016.16 0 0 113.07zm0 241.66l-1016.16 0 0 -112.38 1016.16 0 0 112.38zm0 242.03l-1016.16 0 0 -112.69 1016.16 0 0 112.69zm0 241.85l-1016.29 0 -683.3 0 0 -112.75 683.3 0 1016.29 0 0 112.75zm-1710.15 -838.61l542.96 0 0 591.98 -542.96 0 0 -591.98zm1756.43 -388.09l-1798.61 0c-176.62,0 -319.13,142.39 -319.13,318.51l0 1005.6c0,175.93 142.51,318.82 319.13,318.82l1798.61 0c176.25,0 318.76,-142.89 318.76,-318.82l0 -1005.6c0,-176.12 -142.51,-318.51 -318.76,-318.51z"></path> <path class="fil0" d="M15648.02 15772.95l-479.1 0c-38.27,0 -70.51,-11.06 -68.77,-32.43 1.3,-21.12 45.79,-101.7 45.79,-101.7 9.07,-21.12 30.75,-32.49 68.71,-32.49l387.78 0c37.96,0 53.8,13.73 68.77,32.49 0,0 47.46,85.11 45.91,101.7 -1.62,16.84 -30.75,32.43 -69.08,32.43zm999.88 -521.16c-70.7,-87.41 -142.51,-150.15 -318.76,-150.15l-1798.61 0c-176.12,0 -276.45,52.37 -318.76,150.15 0,0 -205.44,373.92 -212.59,472.39 -7.08,98.22 142.45,149.59 318.7,149.59l2223.91 0c175.81,0 311.74,-72.56 318.45,-149.59 7.45,-77.34 -212.34,-472.39 -212.34,-472.39z"></path> <path class="fil0" d="M16282.87 13827.73l-1016.16 0 0 -113.07 1016.16 0 0 113.07zm0 241.66l-1016.16 0 0 -112.38 1016.16 0 0 112.38zm0 241.91l-1016.16 0 0 -112.63 1016.16 0 0 112.63zm0 241.91l-1016.29 0 -683.3 0 0 -112.69 683.3 0 1016.29 0 0 112.69zm-1710.15 -838.55l542.96 0 0 591.98 -542.96 0 0 -591.98zm1756.43 -388.21l-1798.61 0c-176.62,0 -319.13,142.45 -319.13,318.57l0 1005.54c0,176 142.51,318.88 319.13,318.88l1798.61 0c176.25,0 318.76,-142.89 318.76,-318.88l0 -1005.54c0,-176.12 -142.51,-318.57 -318.76,-318.57z"></path> <path class="fil0" d="M16282.87 25972.96l-1016.16 0 0 -113.07 1016.16 0 0 113.07zm0 241.66l-1016.16 0 0 -112.38 1016.16 0 0 112.38zm0 242.16l-1016.16 0 0 -112.69 1016.16 0 0 112.69zm0 241.66l-1016.29 0 -683.3 0 0 -112.69 683.3 0 1016.29 0 0 112.69zm-1710.15 -838.49l542.96 0 0 592.04 -542.96 0 0 -592.04zm1756.43 -388.21l-1798.61 0c-176.62,0 -319.13,142.45 -319.13,318.63l0 1005.66c0,175.87 142.51,318.82 319.13,318.82l1798.61 0c176.25,0 318.76,-142.95 318.76,-318.82l0 -1005.66c0,-176.18 -142.51,-318.63 -318.76,-318.63z"></path> <path class="fil0" d="M4188.71 8994.18l-479.1 0c-38.27,0 -70.51,-11.12 -68.77,-32.49 1.3,-21.06 45.85,-101.7 45.85,-101.7 8.88,-21.06 30.69,-32.43 68.58,-32.43l387.84 0c37.96,0 53.86,13.67 68.71,32.43 0,0 47.52,85.11 45.91,101.7 -1.55,16.84 -30.69,32.49 -69.02,32.49zm999.88 -521.22c-70.7,-87.35 -142.51,-150.15 -318.76,-150.15l-1798.61 0c-176.25,0 -276.45,52.37 -318.76,150.15 0,0 -205.44,373.99 -212.59,472.45 -7.08,98.16 142.45,149.59 318.7,149.59l2223.91 0c175.87,0 311.74,-72.62 318.45,-149.59 7.45,-77.34 -212.34,-472.45 -212.34,-472.45z"></path> <path class="fil0" d="M4823.55 7048.89l-1016.16 0 0 -113.07 1016.16 0 0 113.07zm0 241.66l-1016.16 0 0 -112.38 1016.16 0 0 112.38zm0 242.03l-1016.16 0 0 -112.63 1016.16 0 0 112.63zm0 241.79l-1016.29 0 -683.36 0 0 -112.69 683.36 0 1016.29 0 0 112.69zm-1710.15 -838.55l542.96 0 0 591.98 -542.96 0 0 -591.98zm1756.37 -388.21l-1798.55 0c-176.56,0 -319.13,142.45 -319.13,318.7l0 1005.54c0,175.93 142.57,318.82 319.13,318.82l1798.55 0c176.25,0 318.82,-142.89 318.82,-318.82l0 -1005.54c0,-176.25 -142.57,-318.7 -318.82,-318.7z"></path> <path class="fil0" d="M26917.24 8994.18l-479.1 0c-38.27,0 -70.51,-11.12 -68.77,-32.49 1.3,-21.06 45.72,-101.7 45.72,-101.7 9.01,-21.06 30.75,-32.43 68.71,-32.43l387.84 0c37.96,0 53.8,13.67 68.71,32.43 0,0 47.52,85.11 45.91,101.7 -1.55,16.84 -30.69,32.49 -69.02,32.49zm999.88 -521.22c-70.7,-87.35 -142.51,-150.15 -318.76,-150.15l-1798.61 0c-176.25,0 -276.51,52.37 -318.76,150.15 0,0 -205.44,373.99 -212.59,472.45 -7.08,98.16 142.45,149.59 318.7,149.59l2223.91 0c175.87,0 311.74,-72.62 318.32,-149.59 7.58,-77.34 -212.22,-472.45 -212.22,-472.45z"></path> <path class="fil0" d="M27552.02 7048.89l-1016.16 0 0 -113.07 1016.16 0 0 113.07zm0 241.66l-1016.16 0 0 -112.38 1016.16 0 0 112.38zm0 242.03l-1016.16 0 0 -112.63 1016.16 0 0 112.63zm0 241.79l-1016.16 0 -683.43 0 0 -112.69 683.43 0 1016.16 0 0 112.69zm-1710.09 -838.55l542.96 0 0 591.98 -542.96 0 0 -591.98zm1756.37 -388.21l-1798.61 0c-176.56,0 -319.07,142.45 -319.07,318.7l0 1005.54c0,175.93 142.51,318.82 319.07,318.82l1798.61 0c176.25,0 318.82,-142.89 318.82,-318.82l0 -1005.54c0,-176.25 -142.57,-318.7 -318.82,-318.7z"></path> <path class="fil0" d="M4188.71 21011.12l-479.1 0c-38.27,0 -70.51,-11.06 -68.77,-32.43 1.3,-21.12 45.85,-101.76 45.85,-101.76 8.88,-21.06 30.69,-32.43 68.58,-32.43l387.84 0c37.96,0 53.86,13.73 68.71,32.43 0,0 47.52,85.11 45.91,101.76 -1.55,16.84 -30.69,32.43 -69.02,32.43zm999.88 -521.16c-70.7,-87.41 -142.51,-150.15 -318.76,-150.15l-1798.61 0c-176.25,0 -276.45,52.37 -318.76,150.15 0,0 -205.44,373.92 -212.59,472.39 -7.08,98.22 142.45,149.59 318.7,149.59l2223.91 0c175.87,0 311.74,-72.56 318.45,-149.59 7.45,-77.34 -212.34,-472.39 -212.34,-472.39z"></path> <path class="fil0" d="M4823.55 19065.89l-1016.16 0 0 -113.13 1016.16 0 0 113.13zm0 241.6l-1016.16 0 0 -112.32 1016.16 0 0 112.32zm0 242.1l-1016.16 0 0 -112.69 1016.16 0 0 112.69zm0 241.72l-1016.29 0 -683.36 0 0 -112.63 683.36 0 1016.29 0 0 112.63zm-1710.15 -838.55l542.96 0 0 591.98 -542.96 0 0 -591.98zm1756.37 -388.15l-1798.55 0c-176.56,0 -319.13,142.39 -319.13,318.63l0 1005.6c0,175.93 142.57,318.82 319.13,318.82l1798.55 0c176.25,0 318.82,-142.89 318.82,-318.82l0 -1005.6c0,-176.25 -142.57,-318.63 -318.82,-318.63z"></path> <path class="fil0" d="M26937.12 21011.12l-479.1 0c-38.27,0 -70.57,-11.06 -68.77,-32.43 1.3,-21.12 45.79,-101.76 45.79,-101.76 8.95,-21.06 30.69,-32.43 68.65,-32.43l387.84 0c37.9,0 53.8,13.73 68.71,32.43 0,0 47.46,85.11 45.91,101.76 -1.55,16.84 -30.69,32.43 -69.02,32.43zm999.95 -521.16c-70.82,-87.41 -142.57,-150.15 -318.82,-150.15l-1798.67 0c-176.18,0 -276.45,52.37 -318.7,150.15 0,0 -205.51,373.92 -212.65,472.39 -7.02,98.22 142.51,149.59 318.76,149.59l2223.91 0c175.81,0 311.74,-72.56 318.32,-149.59 7.52,-77.34 -212.15,-472.39 -212.15,-472.39z"></path> <path class="fil0" d="M27571.9 19065.89l-1016.16 0 0 -113.13 1016.16 0 0 113.13zm0 241.6l-1016.16 0 0 -112.32 1016.16 0 0 112.32zm0 242.1l-1016.16 0 0 -112.69 1016.16 0 0 112.69zm0 241.72l-1016.16 0 -683.43 0 0 -112.63 683.43 0 1016.16 0 0 112.63zm-1710.15 -838.55l542.96 0 0 591.98 -542.96 0 0 -591.98zm1756.43 -388.15l-1798.61 0c-176.56,0 -319.01,142.39 -319.01,318.63l0 1005.6c0,175.93 142.45,318.82 319.01,318.82l1798.61 0c176.25,0 318.88,-142.89 318.88,-318.82l0 -1005.6c0,-176.25 -142.64,-318.63 -318.88,-318.63z"></path> <polygon class="fil2" points="3792.98,9780.54 3792.98,18262.51 4042.28,18262.51 4042.28,9780.54 "></polygon> <polygon class="fil2" points="26665.89,18262.51 26914.82,18262.51 26914.82,9381.15 26665.89,9381.15 "></polygon> <polygon class="fil2" points="15342.12,12562.08 15590.99,12562.08 15590.99,3680.9 15342.12,3680.9 "></polygon> <polygon class="fil2" points="17644.06,2301.5 24330.21,6125.42 24453.65,5908.98 17767.94,2085.07 "></polygon> <polygon class="fil2" points="5497.53,22155.75 13050.74,26475.23 13174.43,26258.79 5621.41,21939.31 "></polygon> <polygon class="fil2" points="17780.36,15899.5 24426.32,19700.12 24550.01,19483.68 17904.36,15683.06 "></polygon> <polygon class="fil2" points="17533.61,26343.09 17657.61,26559.28 25090.36,22286.03 24965.74,22070.02 "></polygon> <polygon class="fil2" points="5824.74,19949.42 5948.8,20165.49 13381.49,15892.29 13256.81,15676.35 "></polygon> <polygon class="fil2" points="6059.32,6065.72 6183.38,6281.85 13090.07,2310.33 12965.76,2094.38 "></polygon> <path class="fil0" d="M14127.54 23348.65c12.18,195.13 -203.58,474.5 -555.88,691.19 -804.57,494.75 -1875.52,532.34 -2654.68,71.38 -718.46,-424.93 -830.47,-1050.45 63.12,-1600 344.79,-212.09 752.13,-324.54 1054.37,-333.61l165.68 415.61c-223.02,38.02 -439.09,84.61 -683.92,235.14 -400.45,246.2 -462.2,603.41 31.12,895.14 443.19,262.29 1076.61,252.16 1543.78,-35.1 185.38,-113.94 332.11,-273.22 381.25,-454.44l655.16 114.68z"></path> <path class="fil0" d="M15902.92 21307.95c764.99,452.51 571.73,946.52 15.59,1288.57 -667.4,410.51 -1499.05,477.8 -2231.86,44.23l-1444.01 -854.2 593.16 -364.85 1322.56 782.39c389.64,230.42 808.73,330.75 1223.97,75.23 359.64,-221.16 213.46,-437.35 -186.93,-674.23l-1354.8 -801.4 593.35 -364.67 1468.98 868.93z"></path> <path class="fil0" d="M17147.76 20568.36l468.23 277.01c51.5,-18.64 110.39,-42 221.6,-110.46 229.92,-141.33 248.37,-269.12 80.45,-368.46 -157.42,-93.06 -347.58,-58.09 -540.42,60.51l-229.86 141.39zm-954.47 -564.52l454 268.56 196.5 -120.96c152.08,-93.37 213.64,-204.57 31.31,-312.48 -150.09,-88.84 -365.91,-46.59 -510.6,42.37 -74.11,45.72 -111.57,77.22 -171.21,122.51zm-1122.21 51.81c137.54,-93.06 482.83,-322.8 764.68,-496.12 619.19,-380.7 1146.56,-372.93 1493.21,-167.8 260.92,154.32 332.3,321.74 260.98,512.27l7.08 4.22c257.07,-76.16 621.05,-80.02 942.73,110.27 525.44,310.74 349.38,716.6 -214.2,1063.25 -248.43,152.76 -600.3,360.57 -766.67,445.61l-2487.81 -1471.72z"></path> <polygon class="fil0" points="17351.34,18644.76 18890.15,17698.55 19426.21,18015.63 18480.75,18597.11 18920.46,18857.1 19754.66,18344.08 20290.79,18661.28 19456.53,19174.3 19910.53,19442.8 20893.02,18838.71 21429.21,19155.85 19853.38,20124.86 "></polygon> <polygon class="fil0" points="10210.25,8273.48 10210.25,6024.09 8225.95,7138.35 "></polygon> <polygon class="fil0" points="8050.89,7385.91 8050.89,16683.63 10210.25,15471.16 10210.25,8621.12 "></polygon> <polygon class="fil0" points="20015.15,15083.13 21978.26,16204.65 21978.26,9526.33 20015.15,10628.1 "></polygon> <polygon class="fil0" points="17828.14,4880.95 17828.14,6797.91 20015.15,8054.8 20015.15,10298.9 21978.2,9176.32 22838.56,9667.85 24530.81,8717.91 "></polygon> <polygon class="fil0" points="23129.3,9834.03 24554.54,10648.35 24554.54,9034.12 "></polygon> <path class="fil0" d="M15676.91 27965.83l-479.1 0c-38.27,0 -70.51,-11.06 -68.77,-32.43 1.3,-21.12 45.85,-101.76 45.85,-101.76 8.88,-21.06 30.69,-32.43 68.58,-32.43l387.84 0c37.96,0 53.86,13.73 68.71,32.43 0,0 47.52,85.11 45.91,101.76 -1.55,16.84 -30.69,32.43 -69.02,32.43zm999.88 -521.16c-70.7,-87.41 -142.51,-150.15 -318.76,-150.15l-1798.61 0c-176.25,0 -276.45,52.37 -318.76,150.15 0,0 -205.44,373.92 -212.59,472.39 -7.08,98.22 142.45,149.59 318.7,149.59l2223.91 0c175.87,0 311.74,-72.56 318.45,-149.59 7.45,-77.34 -212.34,-472.39 -212.34,-472.39z"></path> </g> </g> </svg> 