<?xml version="1.0" encoding="UTF-8"?> <!-- Creator: CorelDRAW 2018 (64-Bit) --> <svg xmlns="http://www.w3.org/2000/svg" xmlns:xlink="http://www.w3.org/1999/xlink" xml:space="preserve" width="51.0251mm" height="56.9879mm" style="shape-rendering:geometricPrecision; text-rendering:geometricPrecision; image-rendering:optimizeQuality; fill-rule:evenodd; clip-rule:evenodd" viewBox="0 0 1431.74 1599.06"> <defs> <style type="text/css"> <![CDATA[ .fil3 {fill:#2873B9} .fil1 {fill:#3C3C3B;fill-rule:nonzero} .fil2 {fill:#2873B9;fill-rule:nonzero} .fil0 {fill:#2873B9;fill-rule:nonzero} ]]> </style> </defs> <g id="Слой_x0020_1"> <metadata id="CorelCorpID_0Corel-Layer"></metadata> <path class="fil0" d="M433.94 1567.84l-19.2 0 0 -109.24 19.2 0 0 51.81 43.07 -51.81 23.1 0 -44.95 50.88 47.75 58.37 -24.34 0 -44.63 -56.34 0 56.34zm98.48 31.21l-17.95 0 0 -101.44 17.95 0 0 6.71c2.29,-2.49 5.41,-4.52 9.36,-6.09 3.95,-1.56 8.06,-2.34 12.33,-2.34 9.67,0 17.37,3.33 23.1,9.99 5.83,6.76 8.74,15.35 8.74,25.75 0,10.92 -3.43,19.98 -10.3,27.15 -6.87,7.18 -15.81,10.77 -26.84,10.77 -7.08,0 -12.54,-1.14 -16.39,-3.43l0 32.93zm16.07 -86.3c-6.24,0 -11.6,2.55 -16.07,7.65l0 28.4c4.27,2.7 9.21,4.06 14.82,4.06 5.93,0 10.69,-1.92 14.28,-5.77 3.59,-3.85 5.38,-8.84 5.38,-14.98 0,-5.83 -1.64,-10.51 -4.92,-14.04 -3.28,-3.54 -7.78,-5.31 -13.5,-5.31zm103.78 10.61l-32.77 44.48 -17.95 0 0 -70.23 17.95 0 0 44.48 32.77 -44.48 17.95 0 0 70.23 -17.95 0 0 -44.48zm90.67 -66.48l9.37 14.67c-2.5,3.12 -5.62,5.41 -9.37,6.87 -3.33,1.14 -7.49,2.29 -12.48,3.43 -4.89,0.94 -8.95,2.24 -12.17,3.9 -8.64,4.06 -13.68,12.8 -15.14,26.22l0.31 0c2.19,-3.85 5.57,-7 10.14,-9.44 4.58,-2.44 9.42,-3.67 14.52,-3.67 9.67,0 17.43,3.12 23.25,9.36 5.83,6.35 8.74,14.72 8.74,25.12 0,10.09 -3.43,18.68 -10.3,25.75 -6.87,6.97 -15.71,10.46 -26.53,10.46 -11.76,0 -21.07,-4.01 -27.94,-12.02 -6.76,-8.01 -10.14,-18.83 -10.14,-32.46 0,-29.96 8.84,-48.8 26.53,-56.5 3.85,-1.66 8.11,-2.91 12.8,-3.75 5.31,-1.04 9.21,-2.05 11.7,-3.04 2.5,-0.99 4.73,-2.63 6.71,-4.92zm-38.55 71.94c0.1,7.07 1.82,12.85 5.15,17.32 3.33,4.47 7.75,6.71 13.27,6.71 5.41,0 9.78,-1.77 13.11,-5.31 3.33,-3.54 4.99,-8.01 4.99,-13.42 0,-5.52 -1.53,-9.99 -4.6,-13.42 -3.07,-3.43 -7.31,-5.15 -12.72,-5.15 -4.68,0 -8.74,1.22 -12.17,3.67 -3.43,2.44 -5.77,5.65 -7.02,9.6zm89.27 70.23l-17.95 0 0 -101.44 17.95 0 0 6.71c2.29,-2.49 5.41,-4.52 9.36,-6.09 3.95,-1.56 8.06,-2.34 12.33,-2.34 9.67,0 17.37,3.33 23.1,9.99 5.83,6.76 8.74,15.35 8.74,25.75 0,10.92 -3.43,19.98 -10.3,27.15 -6.87,7.18 -15.81,10.77 -26.84,10.77 -7.08,0 -12.54,-1.14 -16.39,-3.43l0 32.93zm16.07 -86.3c-6.24,0 -11.6,2.55 -16.07,7.65l0 28.4c4.27,2.7 9.21,4.06 14.82,4.06 5.93,0 10.69,-1.92 14.28,-5.77 3.59,-3.85 5.38,-8.84 5.38,-14.98 0,-5.83 -1.64,-10.51 -4.92,-14.04 -3.28,-3.54 -7.78,-5.31 -13.5,-5.31zm97.54 -15.14l20.44 0 -27.62 70.23c-4.99,12.17 -9.47,20.39 -13.42,24.66 -3.85,4.37 -8.43,6.55 -13.73,6.55 -4.99,0 -10.04,-1.82 -15.14,-5.46l5.77 -13.58c2.7,1.66 5.15,2.5 7.33,2.5 4.27,0 7.85,-3.64 10.77,-10.92l1.56 -3.75 -32.46 -70.23 21.54 0 16.39 38.39c0.21,0.52 1.35,3.9 3.43,10.14 0.62,-3.85 1.46,-7.28 2.5,-10.3l12.64 -38.23zm49.16 70.23l-17.95 0 0 -70.23 16.23 0 23.88 29.34 22.63 -29.34 15.76 0 0 70.23 -17.95 0 0 -42.92 -20.76 26.22 -0.47 0 -21.38 -26.22 0 42.92z"></path> <path class="fil1" d="M334.63 1354.4l-45.93 0 0 -55.82 17.01 0 0 39.87 19.24 0 0 -39.87 17.01 0 0 39.87 8.61 0 0 24.98 -15.95 0 0 -9.04zm56.24 -24.98l-17.01 24.98 -15.95 0 0 -47.84 15.95 0 0 24.98 17.01 -24.98 15.95 0 0 47.84 -15.95 0 0 -24.98zm66.98 46.25l-15.95 0 0 -19.99 -0.1 0c-8.22,0 -14.6,-2.34 -19.14,-7.02 -4.54,-4.75 -6.8,-10.81 -6.8,-18.18 0,-7.02 2.27,-12.94 6.8,-17.75 4.53,-4.96 10.88,-7.44 19.03,-7.44l0.21 0 0 -25.3 15.95 0 0 25.3 0.32 0c8.22,0 14.57,2.37 19.03,7.12 4.46,4.68 6.7,10.7 6.7,18.07 0,7.72 -2.2,13.86 -6.59,18.39 -4.4,4.53 -10.77,6.8 -19.14,6.8l-0.32 0 0 19.99zm-24.98 -45.18c0,6.8 3.01,10.24 9.04,10.31l0 -20.62 -0.32 0c-5.81,0 -8.72,3.44 -8.72,10.31zm25.3 -10.31l-0.32 0 0 20.62c6.02,0 9.04,-3.44 9.04,-10.31 0,-3.12 -0.74,-5.62 -2.23,-7.49 -1.49,-1.88 -3.65,-2.82 -6.49,-2.82zm50.71 55.5l-15.95 0 0 -69.11 15.95 0 0 3.61c3.26,-3.26 7.69,-4.89 13.29,-4.89 6.31,0 11.45,2.3 15.42,6.91 3.97,4.61 5.95,10.46 5.95,17.54 0,7.44 -2.37,13.64 -7.12,18.6 -4.82,4.89 -11.02,7.34 -18.6,7.34 -3.54,0 -6.52,-0.5 -8.93,-1.49l0 21.48zm8.29 -55.5c-2.98,0 -5.74,1.42 -8.29,4.25l0 14.57c2.06,1.21 4.54,1.81 7.44,1.81 3.26,0 5.78,-0.97 7.55,-2.92 1.77,-1.95 2.66,-4.55 2.66,-7.81 0,-2.97 -0.83,-5.37 -2.5,-7.17 -1.66,-1.81 -3.95,-2.71 -6.85,-2.71zm39.97 28.39c-4.82,-4.82 -7.23,-10.85 -7.23,-18.07 0,-7.23 2.41,-13.26 7.23,-18.07 4.82,-4.75 11.27,-7.12 19.35,-7.12 8.08,0 14.49,2.37 19.24,7.12 4.89,4.75 7.33,10.77 7.33,18.07 0,7.3 -2.44,13.33 -7.33,18.07 -4.75,4.75 -11.16,7.12 -19.24,7.12 -8.08,0 -14.53,-2.38 -19.35,-7.12zm9.78 -18.07c0,2.98 0.9,5.44 2.71,7.39 1.81,1.95 4.09,2.92 6.86,2.92 2.83,0 5.14,-0.94 6.91,-2.82 1.77,-1.88 2.66,-4.38 2.66,-7.49 0,-2.98 -0.9,-5.44 -2.71,-7.39 -1.81,-1.95 -4.09,-2.92 -6.86,-2.92 -2.76,0 -5.05,0.94 -6.86,2.82 -1.81,1.88 -2.71,4.38 -2.71,7.49zm45.18 23.92l0 -47.84c0.57,0 3.49,-0.11 8.77,-0.32 5.28,-0.21 9.2,-0.32 11.75,-0.32 15.1,0 22.65,4.25 22.65,12.76 0,2.69 -0.83,5.01 -2.5,6.96 -1.66,1.95 -3.63,3.1 -5.9,3.45l0 0.21c2.97,0.85 5.3,2.22 6.96,4.09 1.67,1.88 2.5,4.09 2.5,6.64 0,9.99 -7.87,14.99 -23.6,14.99 -2.12,0 -5.77,-0.11 -10.95,-0.32 -5.1,-0.21 -8.33,-0.32 -9.67,-0.32zm21.05 -19.14l-5.1 0 0 6.59c2.76,0.28 4.93,0.43 6.48,0.43 1.42,0 2.59,-0.34 3.51,-1.01 0.92,-0.67 1.38,-1.47 1.38,-2.39 0,-2.41 -2.09,-3.61 -6.27,-3.61zm0.96 -16.59c-2.76,0 -4.78,0.11 -6.06,0.32l0 6.7 5.32 0c3.33,0 4.99,-1.2 4.99,-3.61 0,-0.92 -0.39,-1.72 -1.17,-2.39 -0.78,-0.67 -1.81,-1.01 -3.08,-1.01zm37.42 2.87l-3.93 -11.59c5.1,-3.12 11.02,-4.68 17.75,-4.68 6.95,0 12,1.67 15.15,5 3.15,3.33 4.73,8.43 4.73,15.31l0 28.81 -13.82 0 0 -4.36c-2.34,3.33 -6.52,4.99 -12.55,4.99 -4.54,0 -8.19,-1.35 -10.95,-4.04 -2.76,-2.69 -4.14,-6.38 -4.14,-11.06 0,-5.03 1.58,-8.93 4.73,-11.7 3.15,-2.76 7.32,-4.14 12.49,-4.14 4.04,0 7.16,0.88 9.36,2.66 0.35,-5.46 -1.84,-8.19 -6.59,-8.19 -3.26,0 -7.34,0.99 -12.23,2.98zm12.76 20.2c2.84,0 4.86,-0.81 6.06,-2.44l0 -2.98c-1.49,-1.06 -3.51,-1.59 -6.06,-1.59 -1.35,0 -2.44,0.32 -3.29,0.96 -0.85,0.64 -1.28,1.52 -1.28,2.66 0,1.06 0.43,1.89 1.28,2.5 0.85,0.6 1.95,0.9 3.29,0.9zm56.88 -35.19l16.48 0 0 47.84 -15.95 0 0 -12.23 -3.83 0 -7.55 12.23 -18.18 0 11.38 -15.74c-5.32,-2.83 -7.97,-7.55 -7.97,-14.14 0,-5.53 2.16,-9.91 6.48,-13.13 4.32,-3.22 10.7,-4.84 19.14,-4.84zm-8.61 19.24c0,1.28 0.6,2.37 1.81,3.29 1.2,0.92 2.69,1.38 4.46,1.38l2.87 0 0 -10.1 -3.08 0c-1.7,0 -3.14,0.55 -4.3,1.65 -1.17,1.1 -1.76,2.36 -1.76,3.77zm74 28.6l-15.95 0 0 -47.84 34.02 0 0 14.88 -18.07 0 0 32.96zm57.94 -24.98l-17.01 24.98 -15.95 0 0 -47.84 15.95 0 0 24.98 17.01 -24.98 15.95 0 0 47.84 -15.95 0 0 -24.98zm43.59 24.98l-15.95 0 0 -47.84 34.02 0 0 14.88 -18.07 0 0 32.96zm57.94 -24.98l-17.01 24.98 -15.95 0 0 -47.84 15.95 0 0 24.98 17.01 -24.98 15.95 0 0 47.84 -15.95 0 0 -24.98zm65.17 9.57l4.36 11.27c-4.82,3.62 -11.02,5.42 -18.6,5.42 -7.8,0 -14.11,-2.3 -18.93,-6.91 -4.68,-4.61 -7.01,-10.7 -7.01,-18.29 0,-7.23 2.37,-13.22 7.12,-17.97 4.82,-4.82 11.09,-7.23 18.82,-7.23 6.31,0 11.77,2.13 16.37,6.38 4.54,4.11 6.8,9.5 6.8,16.16 0,3.19 -0.32,5.85 -0.96,7.97l-31.68 0c1.42,4.4 5.14,6.59 11.16,6.59 4.68,0 8.86,-1.14 12.55,-3.4zm-14.78 -20.41c-4.68,0 -7.83,2.2 -9.46,6.59l17.22 0c0,-1.84 -0.71,-3.4 -2.13,-4.68 -1.42,-1.27 -3.29,-1.91 -5.63,-1.91zm78.99 35.83l-15.95 0 0 -16.48 -15.42 0 0 16.48 -15.95 0 0 -47.84 15.95 0 0 16.48 15.42 0 0 -16.48 15.95 0 0 47.84zm16.8 -32.85l-3.93 -11.59c5.1,-3.12 11.02,-4.68 17.75,-4.68 6.95,0 12,1.67 15.15,5 3.15,3.33 4.73,8.43 4.73,15.31l0 28.81 -13.82 0 0 -4.36c-2.34,3.33 -6.52,4.99 -12.55,4.99 -4.54,0 -8.19,-1.35 -10.95,-4.04 -2.76,-2.69 -4.14,-6.38 -4.14,-11.06 0,-5.03 1.58,-8.93 4.73,-11.7 3.15,-2.76 7.32,-4.14 12.49,-4.14 4.04,0 7.16,0.88 9.36,2.66 0.35,-5.46 -1.84,-8.19 -6.59,-8.19 -3.26,0 -7.34,0.99 -12.23,2.98zm12.76 20.2c2.84,0 4.86,-0.81 6.06,-2.44l0 -2.98c-1.49,-1.06 -3.51,-1.59 -6.06,-1.59 -1.35,0 -2.44,0.32 -3.29,0.96 -0.85,0.64 -1.28,1.52 -1.28,2.66 0,1.06 0.43,1.89 1.28,2.5 0.85,0.6 1.95,0.9 3.29,0.9zm-1092.02 82.94l-17.01 24.98 -15.95 0 0 -47.84 15.95 0 0 24.98 17.01 -24.98 15.95 0 0 47.84 -15.95 0 0 -24.98zm64.85 46.25l-15.95 0 0 -69.11 15.95 0 0 3.61c3.26,-3.26 7.69,-4.89 13.29,-4.89 6.31,0 11.45,2.3 15.42,6.91 3.97,4.61 5.95,10.46 5.95,17.54 0,7.44 -2.37,13.64 -7.12,18.6 -4.82,4.89 -11.02,7.34 -18.6,7.34 -3.54,0 -6.52,-0.5 -8.93,-1.49l0 21.48zm8.29 -55.5c-2.98,0 -5.74,1.42 -8.29,4.25l0 14.57c2.06,1.21 4.54,1.81 7.44,1.81 3.26,0 5.78,-0.97 7.55,-2.92 1.77,-1.95 2.66,-4.55 2.66,-7.81 0,-2.97 -0.83,-5.37 -2.5,-7.17 -1.66,-1.81 -3.95,-2.71 -6.85,-2.71zm40.51 1.38l-3.93 -11.59c5.1,-3.12 11.02,-4.68 17.75,-4.68 6.95,0 12,1.67 15.15,5 3.15,3.33 4.73,8.43 4.73,15.31l0 28.81 -13.82 0 0 -4.36c-2.34,3.33 -6.52,4.99 -12.55,4.99 -4.54,0 -8.19,-1.35 -10.95,-4.04 -2.76,-2.69 -4.14,-6.38 -4.14,-11.06 0,-5.03 1.58,-8.93 4.73,-11.7 3.15,-2.76 7.32,-4.14 12.49,-4.14 4.04,0 7.16,0.88 9.36,2.66 0.35,-5.46 -1.84,-8.19 -6.59,-8.19 -3.26,0 -7.34,0.99 -12.23,2.98zm12.76 20.2c2.84,0 4.86,-0.81 6.06,-2.44l0 -2.98c-1.49,-1.06 -3.51,-1.59 -6.06,-1.59 -1.35,0 -2.44,0.32 -3.29,0.96 -0.85,0.64 -1.28,1.52 -1.28,2.66 0,1.06 0.43,1.89 1.28,2.5 0.85,0.6 1.95,0.9 3.29,0.9zm66.45 -63.04l8.29 13.18c-2.13,2.2 -4.32,3.76 -6.59,4.68 -1.13,0.43 -3.63,1.19 -7.49,2.29 -3.86,1.1 -6.54,2.04 -8.03,2.82 -4.75,2.55 -7.51,6.77 -8.29,12.65l0.21 0c1.49,-1.91 3.58,-3.51 6.27,-4.78 2.69,-1.28 5.49,-1.91 8.4,-1.91 6.31,0 11.41,2.13 15.31,6.38 3.9,4.11 5.85,9.75 5.85,16.91 0,7.01 -2.34,12.9 -7.02,17.65 -4.68,4.75 -10.84,7.12 -18.5,7.12 -8.29,0 -14.78,-2.76 -19.46,-8.29 -4.68,-5.53 -7.02,-13.01 -7.02,-22.43 0,-20.2 6.13,-33.03 18.39,-38.49 2.41,-1.06 5.07,-1.91 7.97,-2.55 3.26,-0.78 5.69,-1.51 7.28,-2.18 1.59,-0.67 3.07,-1.68 4.41,-3.03zm-21.05 49.65c0.07,3.54 0.92,6.5 2.55,8.88 1.63,2.37 3.79,3.56 6.48,3.56 3.69,0.28 6.31,-1.17 7.87,-4.36 1.56,-3.19 1.61,-6.38 0.16,-9.57 -1.45,-3.19 -3.92,-4.64 -7.39,-4.36 -4.68,0 -7.9,1.95 -9.67,5.85zm48.59 20.2c-4.82,-4.82 -7.23,-10.85 -7.23,-18.07 0,-7.23 2.41,-13.26 7.23,-18.07 4.82,-4.75 11.27,-7.12 19.35,-7.12 8.08,0 14.49,2.37 19.24,7.12 4.89,4.75 7.33,10.77 7.33,18.07 0,7.3 -2.44,13.33 -7.33,18.07 -4.75,4.75 -11.16,7.12 -19.24,7.12 -8.08,0 -14.53,-2.38 -19.35,-7.12zm9.78 -18.07c0,2.98 0.9,5.44 2.71,7.39 1.81,1.95 4.09,2.92 6.86,2.92 2.83,0 5.14,-0.94 6.91,-2.82 1.77,-1.88 2.66,-4.38 2.66,-7.49 0,-2.98 -0.9,-5.44 -2.71,-7.39 -1.81,-1.95 -4.09,-2.92 -6.86,-2.92 -2.76,0 -5.05,0.94 -6.86,2.82 -1.81,1.88 -2.71,4.38 -2.71,7.49zm53.37 -7.97l-13.82 0 0 -15.95 43.59 0 0 15.95 -13.82 0 0 31.9 -15.95 0 0 -31.9zm42.85 -0.96l-3.93 -11.59c5.1,-3.12 11.02,-4.68 17.75,-4.68 6.95,0 12,1.67 15.15,5 3.15,3.33 4.73,8.43 4.73,15.31l0 28.81 -13.82 0 0 -4.36c-2.34,3.33 -6.52,4.99 -12.55,4.99 -4.54,0 -8.19,-1.35 -10.95,-4.04 -2.76,-2.69 -4.14,-6.38 -4.14,-11.06 0,-5.03 1.58,-8.93 4.73,-11.7 3.15,-2.76 7.32,-4.14 12.49,-4.14 4.04,0 7.16,0.88 9.36,2.66 0.35,-5.46 -1.84,-8.19 -6.59,-8.19 -3.26,0 -7.34,0.99 -12.23,2.98zm12.76 20.2c2.84,0 4.86,-0.81 6.06,-2.44l0 -2.98c-1.49,-1.06 -3.51,-1.59 -6.06,-1.59 -1.35,0 -2.44,0.32 -3.29,0.96 -0.85,0.64 -1.28,1.52 -1.28,2.66 0,1.06 0.43,1.89 1.28,2.5 0.85,0.6 1.95,0.9 3.29,0.9zm88.56 -6.27l7.44 11.7c-4.18,5.67 -10.7,8.5 -19.56,8.5 -7.94,0 -14.32,-2.3 -19.14,-6.91 -4.75,-4.54 -7.12,-10.63 -7.12,-18.29 0,-7.16 2.34,-13.11 7.01,-17.86 4.82,-4.89 10.92,-7.34 18.29,-7.34 8.72,0 15.24,2.27 19.56,6.8l-7.34 12.55c-2.97,-2.98 -6.38,-4.46 -10.21,-4.46 -2.83,0 -5.26,0.96 -7.28,2.87 -2.02,1.91 -3.03,4.39 -3.03,7.44 0,3.05 1.06,5.53 3.19,7.44 2.27,1.91 4.71,2.87 7.33,2.87 3.9,0 7.51,-1.77 10.85,-5.31zm71.97 -56.77l8.29 13.18c-2.13,2.2 -4.32,3.76 -6.59,4.68 -1.13,0.43 -3.63,1.19 -7.49,2.29 -3.86,1.1 -6.54,2.04 -8.03,2.82 -4.75,2.55 -7.51,6.77 -8.29,12.65l0.21 0c1.49,-1.91 3.58,-3.51 6.27,-4.78 2.69,-1.28 5.49,-1.91 8.4,-1.91 6.31,0 11.41,2.13 15.31,6.38 3.9,4.11 5.85,9.75 5.85,16.91 0,7.01 -2.34,12.9 -7.02,17.65 -4.68,4.75 -10.84,7.12 -18.5,7.12 -8.29,0 -14.78,-2.76 -19.46,-8.29 -4.68,-5.53 -7.02,-13.01 -7.02,-22.43 0,-20.2 6.13,-33.03 18.39,-38.49 2.41,-1.06 5.07,-1.91 7.97,-2.55 3.26,-0.78 5.69,-1.51 7.28,-2.18 1.59,-0.67 3.07,-1.68 4.41,-3.03zm-21.05 49.65c0.07,3.54 0.92,6.5 2.55,8.88 1.63,2.37 3.79,3.56 6.48,3.56 3.69,0.28 6.31,-1.17 7.87,-4.36 1.56,-3.19 1.61,-6.38 0.16,-9.57 -1.45,-3.19 -3.92,-4.64 -7.39,-4.36 -4.68,0 -7.9,1.95 -9.67,5.85zm48.59 20.2c-4.82,-4.82 -7.23,-10.85 -7.23,-18.07 0,-7.23 2.41,-13.26 7.23,-18.07 4.82,-4.75 11.27,-7.12 19.35,-7.12 8.08,0 14.49,2.37 19.24,7.12 4.89,4.75 7.33,10.77 7.33,18.07 0,7.3 -2.44,13.33 -7.33,18.07 -4.75,4.75 -11.16,7.12 -19.24,7.12 -8.08,0 -14.53,-2.38 -19.35,-7.12zm9.78 -18.07c0,2.98 0.9,5.44 2.71,7.39 1.81,1.95 4.09,2.92 6.86,2.92 2.83,0 5.14,-0.94 6.91,-2.82 1.77,-1.88 2.66,-4.38 2.66,-7.49 0,-2.98 -0.9,-5.44 -2.71,-7.39 -1.81,-1.95 -4.09,-2.92 -6.86,-2.92 -2.76,0 -5.05,0.94 -6.86,2.82 -1.81,1.88 -2.71,4.38 -2.71,7.49zm90.16 23.92l-15.95 0 0 -31.9 -8.4 0 -0.21 2.13c-0.99,8.65 -2.32,15.1 -3.99,19.35 -1.66,4.25 -3.98,7.23 -6.96,8.93 -2.98,1.7 -7.34,2.62 -13.08,2.76l-1.38 -15.52c2.76,0.28 5.03,-1.12 6.8,-4.2 1.77,-3.08 2.83,-7.92 3.19,-14.51l0.75 -14.88 39.23 0 0 47.84zm32 0l-20.31 0 0 -47.84 15.95 0 0 11.16 5.53 0c7.65,0 13.22,1.67 16.69,5 3.4,3.26 5.1,7.33 5.1,12.23 0,5.32 -1.88,9.92 -5.63,13.82 -3.76,3.76 -9.53,5.63 -17.33,5.63zm-0.21 -23.92l-4.15 0 0 10.1 4.04 0c4.18,0 6.27,-1.66 6.27,-4.99 0,-3.4 -2.05,-5.1 -6.16,-5.1zm98.13 23.92l-66.98 0 0 -47.84 15.95 0 0 32.96 9.57 0 0 -32.96 15.95 0 0 32.96 9.57 0 0 -32.96 15.95 0 0 47.84zm44.65 -24.98l-17.01 24.98 -15.95 0 0 -47.84 15.95 0 0 24.98 17.01 -24.98 15.95 0 0 47.84 -15.95 0 0 -24.98zm43.59 24.98l-15.95 0 0 -47.84 14.35 0 14.35 16.27 13.29 -16.27 13.93 0 0 47.84 -15.95 0 0 -23.49 -11.59 13.29 -0.32 0 -12.12 -13.29 0 23.49zm84.62 -24.98l-17.01 24.98 -15.95 0 0 -47.84 15.95 0 0 24.98 17.01 -24.98 15.95 0 0 47.84 -15.95 0 0 -24.98zm59.01 35.62l-14.88 0 0 -25.51 6.16 0c3.47,-4.54 5.53,-12.09 6.17,-22.65l0.64 -10.31 37.96 0 0 32.96 7.97 0 0 25.51 -14.88 0 0 -10.63 -29.13 0 0 10.63zm12.97 -43.59l-0.21 1.91c-0.85,7.16 -2.44,12.55 -4.78,16.16l12.12 0 0 -18.08 -7.12 0zm43.06 0.11l-3.93 -11.59c5.1,-3.12 11.02,-4.68 17.75,-4.68 6.95,0 12,1.67 15.15,5 3.15,3.33 4.73,8.43 4.73,15.31l0 28.81 -13.82 0 0 -4.36c-2.34,3.33 -6.52,4.99 -12.55,4.99 -4.54,0 -8.19,-1.35 -10.95,-4.04 -2.76,-2.69 -4.14,-6.38 -4.14,-11.06 0,-5.03 1.58,-8.93 4.73,-11.7 3.15,-2.76 7.32,-4.14 12.49,-4.14 4.04,0 7.16,0.88 9.36,2.66 0.35,-5.46 -1.84,-8.19 -6.59,-8.19 -3.26,0 -7.34,0.99 -12.23,2.98zm12.76 20.2c2.84,0 4.86,-0.81 6.06,-2.44l0 -2.98c-1.49,-1.06 -3.51,-1.59 -6.06,-1.59 -1.35,0 -2.44,0.32 -3.29,0.96 -0.85,0.64 -1.28,1.52 -1.28,2.66 0,1.06 0.43,1.89 1.28,2.5 0.85,0.6 1.95,0.9 3.29,0.9zm78.88 12.65l-15.95 0 0 -16.48 -15.42 0 0 16.48 -15.95 0 0 -47.84 15.95 0 0 16.48 15.42 0 0 -16.48 15.95 0 0 47.84zm59 0l-15.95 0 0 -16.48 -15.42 0 0 16.48 -15.95 0 0 -47.84 15.95 0 0 16.48 15.42 0 0 -16.48 15.95 0 0 47.84zm31.47 0l-19.77 0 0 -47.84 15.95 0 0 11.16 5 0c7.65,0 13.22,1.67 16.69,5 3.4,3.26 5.1,7.33 5.1,12.23 0,5.32 -1.88,9.92 -5.63,13.82 -3.76,3.76 -9.53,5.63 -17.33,5.63zm43.48 0l-15.95 0 0 -47.84 15.95 0 0 47.84zm-43.7 -23.92l-3.61 0 0 10.1 3.51 0c4.18,0 6.27,-1.66 6.27,-4.99 0,-3.4 -2.05,-5.1 -6.17,-5.1zm71.34 23.92l-15.95 0 0 -47.84 14.35 0 14.35 16.27 13.29 -16.27 13.93 0 0 47.84 -15.95 0 0 -23.49 -11.59 13.29 -0.32 0 -12.12 -13.29 0 23.49zm84.62 -24.98l-17.01 24.98 -15.95 0 0 -47.84 15.95 0 0 24.98 17.01 -24.98 15.95 0 0 47.84 -15.95 0 0 -24.98z"></path> <g id="_1644778765392"> <path class="fil2" d="M729.58 110.5l-21.64 0c-1.73,0 -3.18,-0.5 -3.11,-1.46 0.06,-0.95 2.07,-4.59 2.07,-4.59 0.41,-0.95 1.39,-1.47 3.1,-1.47l17.51 0c1.71,0 2.43,0.62 3.11,1.47 0,0 2.14,3.84 2.07,4.59 -0.07,0.76 -1.39,1.46 -3.12,1.46zm45.16 -23.54c-3.19,-3.95 -6.44,-6.78 -14.4,-6.78l-81.24 0c-7.95,0 -12.49,2.37 -14.4,6.78 0,0 -9.28,16.89 -9.6,21.34 -0.32,4.44 6.43,6.76 14.39,6.76l100.45 0c7.94,0 14.08,-3.28 14.38,-6.76 0.34,-3.49 -9.59,-21.34 -9.59,-21.34z"></path> <path class="fil2" d="M758.25 22.64l-45.9 0 0 -5.11 45.9 0 0 5.11zm0 10.92l-45.9 0 0 -5.08 45.9 0 0 5.08zm0 10.93l-45.9 0 0 -5.09 45.9 0 0 5.09zm0 10.92l-45.9 0 -30.86 0 0 -5.09 30.86 0 45.9 0 0 5.09zm-77.24 -37.88l24.52 0 0 26.74 -24.52 0 0 -26.74zm79.33 -17.53l-81.24 0c-7.98,0 -14.41,6.43 -14.41,14.39l0 45.42c0,7.95 6.44,14.4 14.41,14.4l81.24 0c7.96,0 14.4,-6.45 14.4,-14.4l0 -45.42c0,-7.95 -6.44,-14.39 -14.4,-14.39z"></path> <path class="fil2" d="M729.58 712.42l-21.64 0c-1.73,0 -3.18,-0.5 -3.11,-1.46 0.06,-0.95 2.07,-4.59 2.07,-4.59 0.41,-0.95 1.39,-1.47 3.1,-1.47l17.51 0c1.71,0 2.43,0.62 3.11,1.47 0,0 2.14,3.84 2.07,4.59 -0.07,0.76 -1.39,1.46 -3.12,1.46zm45.16 -23.54c-3.19,-3.95 -6.44,-6.78 -14.4,-6.78l-81.24 0c-7.95,0 -12.49,2.37 -14.4,6.78 0,0 -9.28,16.89 -9.6,21.34 -0.32,4.44 6.43,6.76 14.39,6.76l100.45 0c7.94,0 14.08,-3.28 14.38,-6.76 0.34,-3.49 -9.59,-21.34 -9.59,-21.34z"></path> <path class="fil2" d="M758.25 624.56l-45.9 0 0 -5.11 45.9 0 0 5.11zm0 10.92l-45.9 0 0 -5.08 45.9 0 0 5.08zm0 10.93l-45.9 0 0 -5.09 45.9 0 0 5.09zm0 10.93l-45.9 0 -30.86 0 0 -5.09 30.86 0 45.9 0 0 5.09zm-77.24 -37.87l24.52 0 0 26.74 -24.52 0 0 -26.74zm79.33 -17.53l-81.24 0c-7.98,0 -14.41,6.43 -14.41,14.39l0 45.42c0,7.95 6.44,14.4 14.41,14.4l81.24 0c7.96,0 14.4,-6.45 14.4,-14.4l0 -45.42c0,-7.95 -6.44,-14.39 -14.4,-14.39z"></path> <path class="fil2" d="M758.25 1173.12l-45.9 0 0 -5.11 45.9 0 0 5.11zm0 10.92l-45.9 0 0 -5.08 45.9 0 0 5.08zm0 10.94l-45.9 0 0 -5.09 45.9 0 0 5.09zm0 10.92l-45.9 0 -30.86 0 0 -5.09 30.86 0 45.9 0 0 5.09zm-77.24 -37.87l24.52 0 0 26.74 -24.52 0 0 -26.74zm79.33 -17.53l-81.24 0c-7.98,0 -14.41,6.43 -14.41,14.39l0 45.42c0,7.94 6.44,14.4 14.41,14.4l81.24 0c7.96,0 14.4,-6.46 14.4,-14.4l0 -45.42c0,-7.96 -6.44,-14.39 -14.4,-14.39z"></path> <path class="fil2" d="M212 406.24l-21.64 0c-1.73,0 -3.18,-0.5 -3.11,-1.47 0.06,-0.95 2.07,-4.59 2.07,-4.59 0.4,-0.95 1.39,-1.46 3.1,-1.46l17.52 0c1.71,0 2.43,0.62 3.1,1.46 0,0 2.15,3.84 2.07,4.59 -0.07,0.76 -1.39,1.47 -3.12,1.47zm45.16 -23.54c-3.19,-3.95 -6.44,-6.78 -14.4,-6.78l-81.24 0c-7.96,0 -12.49,2.37 -14.4,6.78 0,0 -9.28,16.89 -9.6,21.34 -0.32,4.43 6.43,6.76 14.39,6.76l100.45 0c7.94,0 14.08,-3.28 14.38,-6.76 0.34,-3.49 -9.59,-21.34 -9.59,-21.34z"></path> <path class="fil2" d="M240.67 318.38l-45.9 0 0 -5.11 45.9 0 0 5.11zm0 10.92l-45.9 0 0 -5.08 45.9 0 0 5.08zm0 10.93l-45.9 0 0 -5.09 45.9 0 0 5.09zm0 10.92l-45.9 0 -30.87 0 0 -5.09 30.87 0 45.9 0 0 5.09zm-77.24 -37.87l24.52 0 0 26.74 -24.52 0 0 -26.74zm79.33 -17.53l-81.24 0c-7.97,0 -14.41,6.43 -14.41,14.39l0 45.42c0,7.95 6.44,14.4 14.41,14.4l81.24 0c7.96,0 14.4,-6.45 14.4,-14.4l0 -45.42c0,-7.96 -6.44,-14.39 -14.4,-14.39z"></path> <path class="fil2" d="M1238.58 406.24l-21.64 0c-1.73,0 -3.18,-0.5 -3.11,-1.47 0.06,-0.95 2.07,-4.59 2.07,-4.59 0.41,-0.95 1.39,-1.46 3.1,-1.46l17.52 0c1.71,0 2.43,0.62 3.1,1.46 0,0 2.15,3.84 2.07,4.59 -0.07,0.76 -1.39,1.47 -3.12,1.47zm45.16 -23.54c-3.19,-3.95 -6.44,-6.78 -14.4,-6.78l-81.24 0c-7.96,0 -12.49,2.37 -14.4,6.78 0,0 -9.28,16.89 -9.6,21.34 -0.32,4.43 6.43,6.76 14.39,6.76l100.45 0c7.94,0 14.08,-3.28 14.38,-6.76 0.34,-3.49 -9.59,-21.34 -9.59,-21.34z"></path> <path class="fil2" d="M1267.25 318.38l-45.9 0 0 -5.11 45.9 0 0 5.11zm0 10.92l-45.9 0 0 -5.08 45.9 0 0 5.08zm0 10.93l-45.9 0 0 -5.09 45.9 0 0 5.09zm0 10.92l-45.9 0 -30.87 0 0 -5.09 30.87 0 45.9 0 0 5.09zm-77.24 -37.87l24.52 0 0 26.74 -24.52 0 0 -26.74zm79.33 -17.53l-81.24 0c-7.97,0 -14.41,6.43 -14.41,14.39l0 45.42c0,7.95 6.44,14.4 14.41,14.4l81.24 0c7.96,0 14.4,-6.45 14.4,-14.4l0 -45.42c0,-7.96 -6.44,-14.39 -14.4,-14.39z"></path> <path class="fil2" d="M212 949.01l-21.64 0c-1.73,0 -3.18,-0.5 -3.11,-1.46 0.06,-0.95 2.07,-4.6 2.07,-4.6 0.4,-0.95 1.39,-1.46 3.1,-1.46l17.52 0c1.71,0 2.43,0.62 3.1,1.46 0,0 2.15,3.84 2.07,4.6 -0.07,0.76 -1.39,1.46 -3.12,1.46zm45.16 -23.54c-3.19,-3.95 -6.44,-6.78 -14.4,-6.78l-81.24 0c-7.96,0 -12.49,2.37 -14.4,6.78 0,0 -9.28,16.89 -9.6,21.34 -0.32,4.44 6.43,6.76 14.39,6.76l100.45 0c7.94,0 14.08,-3.28 14.38,-6.76 0.34,-3.49 -9.59,-21.34 -9.59,-21.34z"></path> <path class="fil2" d="M240.67 861.15l-45.9 0 0 -5.11 45.9 0 0 5.11zm0 10.91l-45.9 0 0 -5.07 45.9 0 0 5.07zm0 10.93l-45.9 0 0 -5.09 45.9 0 0 5.09zm0 10.92l-45.9 0 -30.87 0 0 -5.09 30.87 0 45.9 0 0 5.09zm-77.24 -37.87l24.52 0 0 26.74 -24.52 0 0 -26.74zm79.33 -17.53l-81.24 0c-7.97,0 -14.41,6.43 -14.41,14.39l0 45.42c0,7.95 6.44,14.4 14.41,14.4l81.24 0c7.96,0 14.4,-6.45 14.4,-14.4l0 -45.42c0,-7.96 -6.44,-14.39 -14.4,-14.39z"></path> <path class="fil2" d="M1239.48 949.01l-21.64 0c-1.73,0 -3.19,-0.5 -3.11,-1.46 0.06,-0.95 2.07,-4.6 2.07,-4.6 0.4,-0.95 1.39,-1.46 3.1,-1.46l17.52 0c1.71,0 2.43,0.62 3.1,1.46 0,0 2.14,3.84 2.07,4.6 -0.07,0.76 -1.39,1.46 -3.12,1.46zm45.16 -23.54c-3.2,-3.95 -6.44,-6.78 -14.4,-6.78l-81.24 0c-7.96,0 -12.49,2.37 -14.39,6.78 0,0 -9.28,16.89 -9.6,21.34 -0.32,4.44 6.44,6.76 14.4,6.76l100.45 0c7.94,0 14.08,-3.28 14.38,-6.76 0.34,-3.49 -9.58,-21.34 -9.58,-21.34z"></path> <path class="fil2" d="M1268.15 861.15l-45.9 0 0 -5.11 45.9 0 0 5.11zm0 10.91l-45.9 0 0 -5.07 45.9 0 0 5.07zm0 10.93l-45.9 0 0 -5.09 45.9 0 0 5.09zm0 10.92l-45.9 0 -30.87 0 0 -5.09 30.87 0 45.9 0 0 5.09zm-77.24 -37.87l24.52 0 0 26.74 -24.52 0 0 -26.74zm79.33 -17.53l-81.24 0c-7.97,0 -14.41,6.43 -14.41,14.39l0 45.42c0,7.95 6.43,14.4 14.41,14.4l81.24 0c7.96,0 14.4,-6.45 14.4,-14.4l0 -45.42c0,-7.96 -6.44,-14.39 -14.4,-14.39z"></path> <polygon class="fil3" points="194.12,441.76 194.12,824.87 205.38,824.87 205.38,441.76 "></polygon> <polygon class="fil3" points="1227.23,824.87 1238.47,824.87 1238.47,423.72 1227.23,423.72 "></polygon> <polygon class="fil3" points="715.76,567.39 727,567.39 727,166.26 715.76,166.26 "></polygon> <polygon class="fil3" points="819.74,103.95 1121.73,276.67 1127.31,266.89 825.33,94.18 "></polygon> <polygon class="fil3" points="271.11,1000.71 612.27,1195.81 617.86,1186.03 276.71,990.94 "></polygon> <polygon class="fil3" points="825.89,718.14 1126.07,889.8 1131.66,880.02 831.49,708.36 "></polygon> <polygon class="fil3" points="814.75,1189.84 820.35,1199.61 1156.06,1006.6 1150.44,996.84 "></polygon> <polygon class="fil3" points="285.89,901.06 291.49,910.82 627.21,717.81 621.58,708.06 "></polygon> <polygon class="fil3" points="296.49,273.97 302.09,283.73 614.05,104.35 608.43,94.6 "></polygon> <path class="fil2" d="M660.9 1054.59c0.55,8.81 -9.2,21.43 -25.11,31.22 -36.34,22.35 -84.71,24.04 -119.9,3.22 -32.45,-19.19 -37.51,-47.45 2.85,-72.27 15.57,-9.58 33.97,-14.66 47.62,-15.07l7.48 18.77c-10.07,1.72 -19.83,3.82 -30.89,10.62 -18.09,11.12 -20.88,27.25 1.41,40.43 20.02,11.85 48.63,11.39 69.73,-1.59 8.37,-5.15 15,-12.34 17.22,-20.53l29.59 5.18z"></path> <path class="fil2" d="M741.09 962.42c34.55,20.44 25.82,42.75 0.7,58.2 -30.14,18.54 -67.71,21.58 -100.81,2l-65.22 -38.58 26.79 -16.48 59.74 35.34c17.6,10.41 36.53,14.94 55.28,3.4 16.24,-9.99 9.64,-19.75 -8.44,-30.45l-61.19 -36.2 26.8 -16.47 66.35 39.25z"></path> <path class="fil2" d="M797.32 929.01l21.15 12.51c2.33,-0.84 4.99,-1.9 10.01,-4.99 10.38,-6.38 11.22,-12.16 3.63,-16.64 -7.11,-4.2 -15.7,-2.62 -24.41,2.73l-10.38 6.39zm-43.11 -25.5l20.51 12.13 8.88 -5.46c6.87,-4.22 9.65,-9.24 1.41,-14.11 -6.78,-4.01 -16.53,-2.1 -23.06,1.91 -3.35,2.07 -5.04,3.49 -7.73,5.53zm-50.69 2.34c6.21,-4.2 21.81,-14.58 34.54,-22.41 27.97,-17.19 51.79,-16.84 67.44,-7.58 11.79,6.97 15.01,14.53 11.79,23.14l0.32 0.19c11.61,-3.44 28.05,-3.61 42.58,4.98 23.73,14.04 15.78,32.37 -9.67,48.02 -11.22,6.9 -27.11,16.29 -34.63,20.13l-112.37 -66.47z"></path> <polygon class="fil2" points="806.51,842.13 876.02,799.39 900.23,813.71 857.53,839.98 877.39,851.72 915.07,828.55 939.28,842.88 901.6,866.05 922.11,878.18 966.48,850.89 990.7,865.22 919.52,908.98 "></polygon> <polygon class="fil2" points="483.97,373.69 483.97,272.09 394.35,322.42 "></polygon> <polygon class="fil2" points="386.44,333.6 386.44,753.55 483.97,698.79 483.97,389.39 "></polygon> <polygon class="fil2" points="926.83,681.26 1015.5,731.92 1015.5,430.28 926.83,480.04 "></polygon> <polygon class="fil2" points="828.05,220.46 828.05,307.04 926.83,363.81 926.83,465.17 1015.5,414.47 1054.36,436.67 1130.79,393.76 "></polygon> <polygon class="fil2" points="1067.49,444.18 1131.86,480.96 1131.86,408.05 "></polygon> <path class="fil2" d="M730.89 1263.14l-21.64 0c-1.73,0 -3.18,-0.5 -3.11,-1.46 0.06,-0.95 2.07,-4.6 2.07,-4.6 0.4,-0.95 1.39,-1.46 3.1,-1.46l17.52 0c1.71,0 2.43,0.62 3.1,1.46 0,0 2.15,3.84 2.07,4.6 -0.07,0.76 -1.39,1.46 -3.12,1.46zm45.16 -23.54c-3.19,-3.95 -6.44,-6.78 -14.4,-6.78l-81.24 0c-7.96,0 -12.49,2.37 -14.4,6.78 0,0 -9.28,16.89 -9.6,21.34 -0.32,4.44 6.43,6.76 14.39,6.76l100.45 0c7.94,0 14.08,-3.28 14.38,-6.76 0.34,-3.49 -9.59,-21.34 -9.59,-21.34z"></path> </g> </g> </svg> 