<?xml version="1.0" encoding="UTF-8"?> <!-- Creator: CorelDRAW 2018 (64-Bit) --> <svg xmlns="http://www.w3.org/2000/svg" xmlns:xlink="http://www.w3.org/1999/xlink" xml:space="preserve" width="46.3873mm" height="54.4867mm" style="shape-rendering:geometricPrecision; text-rendering:geometricPrecision; image-rendering:optimizeQuality; fill-rule:evenodd; clip-rule:evenodd" viewBox="0 0 3925.51 4610.91"> <defs> <style type="text/css"> <![CDATA[ .fil3 {fill:#924884} .fil1 {fill:#3C3C3B;fill-rule:nonzero} .fil0 {fill:#924884;fill-rule:nonzero} .fil2 {fill:#924884;fill-rule:nonzero} ]]> </style> </defs> <g id="Слой_x0020_1"> <metadata id="CorelCorpID_0Corel-Layer"></metadata> <path class="fil0" d="M983.77 4605.73l-58.37 0 139.32 -330.41 50.83 0 139.32 330.41 -61.66 0 -34.36 -84.25 -140.73 0 -34.36 84.25zm152.97 -138.38l-48.01 -117.2 -48.48 117.2 96.49 0zm301.22 67.31l25.42 39.54c-17.89,24.47 -45.97,36.71 -84.25,36.71 -34.21,0 -61.97,-10.2 -83.3,-30.59 -21.03,-20.08 -31.54,-46.92 -31.54,-80.49 0,-31.69 10.36,-58.05 31.07,-79.07 20.71,-21.33 46.91,-32.01 78.6,-32.01 37.66,0 66.05,9.57 85.19,28.71l-25.41 42.83c-14.44,-13.8 -32.01,-20.71 -52.71,-20.71 -15.69,0 -29.5,5.64 -41.42,16.94 -11.61,10.67 -17.42,25.1 -17.42,43.3 0,18.2 5.97,32.94 17.89,44.24 12.55,10.98 26.99,16.48 43.3,16.48 21.02,0 39.22,-8.63 54.59,-25.89zm217.92 0l25.42 39.54c-17.89,24.47 -45.97,36.71 -84.25,36.71 -34.21,0 -61.97,-10.2 -83.3,-30.59 -21.03,-20.08 -31.54,-46.92 -31.54,-80.49 0,-31.69 10.36,-58.05 31.07,-79.07 20.71,-21.33 46.91,-32.01 78.6,-32.01 37.66,0 66.05,9.57 85.19,28.71l-25.41 42.83c-14.44,-13.8 -32.01,-20.71 -52.71,-20.71 -15.69,0 -29.5,5.64 -41.42,16.94 -11.61,10.67 -17.42,25.1 -17.42,43.3 0,18.2 5.97,32.94 17.89,44.24 12.55,10.98 26.99,16.48 43.3,16.48 21.02,0 39.22,-8.63 54.59,-25.89zm223.57 11.76l15.53 38.12c-21.02,17.58 -48.01,26.36 -80.95,26.36 -33.89,0 -61.51,-10.2 -82.84,-30.59 -20.71,-20.08 -31.07,-46.92 -31.07,-80.49 0,-31.38 10.2,-57.74 30.59,-79.07 20.4,-21.33 47.54,-32.01 81.43,-32.01 27.93,0 51.62,9.26 71.08,27.77 19.46,18.51 29.18,42.04 29.18,70.59 0,12.55 -1.1,22.28 -3.29,29.19l-152.97 0c2.19,15.37 9.02,27.45 20.47,36.24 11.46,8.78 25.81,13.18 43.07,13.18 23.53,0 43.46,-6.43 59.78,-19.29zm-69.66 -112.49c-30.74,0 -49.26,15.38 -55.54,46.13l104.02 0c0.31,-13.49 -4,-24.55 -12.95,-33.18 -8.94,-8.63 -20.78,-12.95 -35.53,-12.95zm200.51 171.8l-54.13 0 0 -211.8 54.13 0 0 21.18c15.69,-16.63 35.92,-24.95 60.71,-24.95 58.05,0 87.08,30.44 87.08,91.31l0 124.25 -54.13 0 0 -114.84c0,-33.26 -15.85,-49.89 -47.54,-49.89 -17.25,0 -32.63,6.74 -46.12,20.23l0 144.5zm198.14 -80.49l0 -190.14 54.13 0 0 58.83 68.25 0 0 50.83 -68.25 0 0 77.19c0,25.41 8.48,38.12 25.42,38.12 10.66,0 21.49,-4.08 32.47,-12.24l16.48 41.89c-17.25,13.8 -38.12,20.71 -62.6,20.71 -22.91,0 -39.61,-6.98 -50.12,-20.94 -10.52,-13.96 -15.77,-35.37 -15.77,-64.25zm311.58 -131.31l54.13 0 0 211.8 -54.13 0 0 -25.89c-16.94,20.71 -39.54,31.07 -67.78,31.07 -22.59,0 -40.64,-7.53 -54.13,-22.59 -13.49,-15.06 -20.24,-36.71 -20.24,-64.95l0 -129.43 54.13 0 0 118.14c0,32.32 13.5,48.48 40.48,48.48 18.51,0 34.36,-8.63 47.53,-25.89l0 -140.73zm168.5 211.8l-54.13 0 0 -211.8 54.13 0 0 20.71c11.61,-16.32 27.77,-24.47 48.47,-24.47 14.75,0 25.73,2.67 32.95,8l-19.3 50.83c-9.1,-5.33 -18.19,-8 -27.3,-8 -15.69,0 -27.29,7.53 -34.82,22.59l0 142.14zm278.63 -59.3l15.53 38.12c-21.02,17.58 -48.01,26.36 -80.95,26.36 -33.89,0 -61.51,-10.2 -82.84,-30.59 -20.71,-20.08 -31.07,-46.92 -31.07,-80.49 0,-31.38 10.2,-57.74 30.59,-79.07 20.4,-21.33 47.54,-32.01 81.43,-32.01 27.93,0 51.62,9.26 71.08,27.77 19.46,18.51 29.18,42.04 29.18,70.59 0,12.55 -1.1,22.28 -3.29,29.19l-152.97 0c2.19,15.37 9.02,27.45 20.47,36.24 11.46,8.78 25.81,13.18 43.07,13.18 23.53,0 43.46,-6.43 59.78,-19.29zm-69.66 -112.49c-30.74,0 -49.26,15.38 -55.54,46.13l104.02 0c0.31,-13.49 -4,-24.55 -12.95,-33.18 -8.94,-8.63 -20.78,-12.95 -35.53,-12.95z"></path> <path class="fil1" d="M-0 3960.18c0,-25.01 8.87,-45.75 26.61,-62.2 17.53,-16.68 40.83,-25.02 69.9,-25.02 28.65,0 51.84,7.8 69.58,23.41 17.96,15.6 26.94,36.87 26.94,63.81 0,25.86 -9.09,46.92 -27.26,63.16 -18.17,16.25 -41.25,24.37 -69.26,24.37 -28.86,0 -52.15,-7.8 -69.9,-23.41 -17.74,-15.82 -26.61,-37.19 -26.61,-64.13zm54.51 0c0,11.11 4.06,20.52 12.18,28.21 8.12,7.48 18.07,11.22 29.82,11.22 13.9,0 24.37,-3.52 31.42,-10.58 7.06,-7.06 10.59,-16.67 10.59,-28.86 0,-11.97 -3.9,-21.49 -11.7,-28.54 -7.8,-7.06 -17.91,-10.58 -30.3,-10.58 -12.82,0 -23.03,3.47 -30.62,10.42 -7.59,6.95 -11.38,16.51 -11.38,28.7zm273.82 26.61l22.44 35.27c-12.61,17.09 -32.28,25.65 -59,25.65 -23.94,0 -43.18,-6.95 -57.71,-20.84 -14.32,-13.68 -21.48,-32.06 -21.48,-55.15 0,-21.59 7.05,-39.55 21.16,-53.86 14.54,-14.75 32.92,-22.13 55.15,-22.13 26.29,0 45.96,6.85 59,20.52l-22.13 37.84c-8.97,-8.98 -19.24,-13.46 -30.78,-13.46 -8.55,0 -15.87,2.89 -21.96,8.66 -6.09,5.77 -9.14,13.25 -9.14,22.44 0,9.19 3.21,16.67 9.62,22.44 6.84,5.77 14.21,8.66 22.12,8.66 11.75,0 22.65,-5.34 32.71,-16.03zm190.45 57.07l-48.09 0 0 -49.7 -46.49 0 0 49.7 -48.09 0 0 -144.28 48.09 0 0 49.7 46.49 0 0 -49.7 48.09 0 0 144.28zm49.06 -17.64c-14.54,-14.54 -21.8,-32.71 -21.8,-54.51 0,-21.8 7.26,-39.98 21.8,-54.51 14.54,-14.33 33.99,-21.49 58.36,-21.49 24.36,0 43.71,7.16 58.04,21.49 14.75,14.32 22.12,32.49 22.12,54.51 0,22.02 -7.37,40.19 -22.12,54.51 -14.33,14.32 -33.67,21.49 -58.04,21.49 -24.37,0 -43.82,-7.17 -58.36,-21.49zm29.5 -54.51c0,8.98 2.72,16.41 8.17,22.28 5.45,5.88 12.35,8.82 20.68,8.82 8.55,0 15.49,-2.83 20.84,-8.5 5.34,-5.66 8.01,-13.2 8.01,-22.6 0,-8.98 -2.72,-16.41 -8.17,-22.28 -5.45,-5.88 -12.35,-8.82 -20.68,-8.82 -8.34,0 -15.23,2.83 -20.68,8.5 -5.45,5.66 -8.17,13.2 -8.17,22.6zm136.27 72.14l0 -144.28c1.71,0 10.53,-0.32 26.45,-0.96 15.93,-0.63 27.73,-0.96 35.42,-0.96 45.54,0 68.3,12.82 68.3,38.47 0,8.12 -2.51,15.12 -7.54,21 -5.02,5.88 -10.95,9.35 -17.79,10.42l0 0.64c8.97,2.56 15.98,6.69 21,12.35 5.03,5.66 7.54,12.35 7.54,20.04 0,30.14 -23.73,45.21 -71.19,45.21 -6.41,0 -17.42,-0.32 -33.02,-0.96 -15.39,-0.64 -25.12,-0.96 -29.18,-0.96zm63.49 -57.71l-15.39 0 0 19.88c8.34,0.85 14.86,1.29 19.56,1.29 4.28,0 7.8,-1.02 10.59,-3.05 2.78,-2.03 4.16,-4.43 4.16,-7.22 0,-7.27 -6.3,-10.9 -18.91,-10.9zm2.89 -50.02c-8.34,0 -14.43,0.32 -18.28,0.96l0 20.2 16.04 0c10.04,0 15.06,-3.63 15.06,-10.9 0,-2.78 -1.17,-5.19 -3.52,-7.22 -2.35,-2.03 -5.45,-3.05 -9.3,-3.05zm157.11 107.74l-59.63 0 0 -144.28 48.09 0 0 33.66 15.07 0c23.09,0 39.87,5.03 50.34,15.07 10.26,9.83 15.38,22.12 15.38,36.87 0,16.04 -5.66,29.93 -16.99,41.69 -11.33,11.33 -28.75,16.99 -52.26,16.99zm131.14 0l-48.1 0 0 -144.28 48.1 0 0 144.28zm-131.79 -72.14l-10.9 0 0 30.46 10.59 0c12.61,0 18.91,-5.02 18.91,-15.06 0,-10.26 -6.19,-15.39 -18.6,-15.39zm372.26 72.14l-48.09 0 0 -99.4 -44.89 0 0 99.4 -48.09 0 0 -144.28 141.08 0 0 144.28zm83.36 64.13l-48.09 0 0 -208.41 48.09 0 0 10.9c9.83,-9.83 23.2,-14.75 40.08,-14.75 19.02,0 34.53,6.95 46.49,20.84 11.97,13.9 17.96,31.53 17.96,52.91 0,22.44 -7.16,41.14 -21.49,56.11 -14.53,14.75 -33.23,22.13 -56.11,22.13 -10.69,0 -19.67,-1.5 -26.94,-4.49l0 64.77zm25.02 -167.37c-8.98,0 -17.31,4.27 -25.02,12.82l0 43.93c6.2,3.64 13.68,5.45 22.44,5.45 9.83,0 17.42,-2.94 22.77,-8.82 5.34,-5.87 8.01,-13.73 8.01,-23.57 0,-8.97 -2.51,-16.19 -7.54,-21.64 -5.02,-5.45 -11.92,-8.17 -20.67,-8.17zm120.56 85.61c-14.54,-14.54 -21.8,-32.71 -21.8,-54.51 0,-21.8 7.26,-39.98 21.8,-54.51 14.54,-14.33 33.99,-21.49 58.36,-21.49 24.36,0 43.71,7.16 58.04,21.49 14.75,14.32 22.12,32.49 22.12,54.51 0,22.02 -7.37,40.19 -22.12,54.51 -14.33,14.32 -33.67,21.49 -58.04,21.49 -24.37,0 -43.82,-7.17 -58.36,-21.49zm29.5 -54.51c0,8.98 2.72,16.41 8.17,22.28 5.45,5.88 12.35,8.82 20.68,8.82 8.55,0 15.49,-2.83 20.84,-8.5 5.34,-5.66 8.01,-13.2 8.01,-22.6 0,-8.98 -2.72,-16.41 -8.17,-22.28 -5.45,-5.88 -12.35,-8.82 -20.68,-8.82 -8.34,0 -15.23,2.83 -20.68,8.5 -5.45,5.66 -8.17,13.2 -8.17,22.6zm184.36 72.14l-48.09 0 0 -144.28 102.6 0 0 44.88 -54.51 0 0 99.4zm123.44 64.13l-48.09 0 0 -208.41 48.09 0 0 10.9c9.83,-9.83 23.2,-14.75 40.08,-14.75 19.02,0 34.53,6.95 46.49,20.84 11.97,13.9 17.96,31.53 17.96,52.91 0,22.44 -7.16,41.14 -21.49,56.11 -14.53,14.75 -33.23,22.13 -56.11,22.13 -10.69,0 -19.67,-1.5 -26.94,-4.49l0 64.77zm25.02 -167.37c-8.98,0 -17.31,4.27 -25.02,12.82l0 43.93c6.2,3.64 13.68,5.45 22.44,5.45 9.83,0 17.42,-2.94 22.77,-8.82 5.34,-5.87 8.01,-13.73 8.01,-23.57 0,-8.97 -2.51,-16.19 -7.54,-21.64 -5.02,-5.45 -11.92,-8.17 -20.67,-8.17zm122.16 4.16l-11.86 -34.95c15.38,-9.4 33.24,-14.11 53.54,-14.11 20.95,0 36.18,5.03 45.69,15.07 9.51,10.04 14.27,25.44 14.27,46.17l0 86.89 -41.68 0 0 -13.14c-7.06,10.04 -19.67,15.06 -37.84,15.06 -13.68,0 -24.69,-4.06 -33.03,-12.18 -8.34,-8.12 -12.5,-19.24 -12.5,-33.35 0,-15.17 4.76,-26.94 14.27,-35.27 9.51,-8.34 22.07,-12.5 37.67,-12.5 12.18,0 21.59,2.67 28.21,8.01 1.07,-16.46 -5.56,-24.69 -19.88,-24.69 -9.83,0 -22.13,3 -36.87,8.98zm38.47 60.92c8.56,0 14.65,-2.45 18.28,-7.37l0 -8.98c-4.49,-3.21 -10.58,-4.81 -18.28,-4.81 -4.06,0 -7.37,0.96 -9.93,2.89 -2.56,1.92 -3.85,4.6 -3.85,8.01 0,3.21 1.29,5.71 3.85,7.53 2.56,1.82 5.87,2.72 9.93,2.72zm143.32 38.16l-48.09 0 0 -144.28 43.29 0 43.29 49.06 40.08 -49.06 42.01 0 0 144.28 -48.1 0 0 -70.86 -34.95 40.08 -0.96 0 -36.56 -40.08 0 70.86zm203.92 0l-48.09 0 0 -144.28 43.29 0 43.29 49.06 40.08 -49.06 42.01 0 0 144.28 -48.1 0 0 -70.86 -34.95 40.08 -0.96 0 -36.56 -40.08 0 70.86zm255.22 -75.35l-51.3 75.35 -48.09 0 0 -144.28 48.09 0 0 75.35 51.3 -75.35 48.1 0 0 144.28 -48.1 0 0 -75.35zm131.46 139.48l-48.09 0 0 -208.41 48.09 0 0 10.9c9.83,-9.83 23.2,-14.75 40.08,-14.75 19.02,0 34.53,6.95 46.49,20.84 11.97,13.9 17.96,31.53 17.96,52.91 0,22.44 -7.16,41.14 -21.49,56.11 -14.53,14.75 -33.23,22.13 -56.11,22.13 -10.69,0 -19.67,-1.5 -26.94,-4.49l0 64.77zm25.02 -167.37c-8.98,0 -17.31,4.27 -25.02,12.82l0 43.93c6.2,3.64 13.68,5.45 22.44,5.45 9.83,0 17.42,-2.94 22.77,-8.82 5.34,-5.87 8.01,-13.73 8.01,-23.57 0,-8.97 -2.51,-16.19 -7.54,-21.64 -5.02,-5.45 -11.92,-8.17 -20.67,-8.17zm120.56 85.61c-14.54,-14.54 -21.8,-32.71 -21.8,-54.51 0,-21.8 7.26,-39.98 21.8,-54.51 14.54,-14.33 33.99,-21.49 58.36,-21.49 24.36,0 43.71,7.16 58.04,21.49 14.75,14.32 22.12,32.49 22.12,54.51 0,22.02 -7.37,40.19 -22.12,54.51 -14.33,14.32 -33.67,21.49 -58.04,21.49 -24.37,0 -43.82,-7.17 -58.36,-21.49zm29.5 -54.51c0,8.98 2.72,16.41 8.17,22.28 5.45,5.88 12.35,8.82 20.68,8.82 8.55,0 15.49,-2.83 20.84,-8.5 5.34,-5.66 8.01,-13.2 8.01,-22.6 0,-8.98 -2.72,-16.41 -8.17,-22.28 -5.45,-5.88 -12.35,-8.82 -20.68,-8.82 -8.34,0 -15.23,2.83 -20.68,8.5 -5.45,5.66 -8.17,13.2 -8.17,22.6zm136.27 72.14l0 -144.28c1.71,0 10.53,-0.32 26.45,-0.96 15.93,-0.63 27.73,-0.96 35.42,-0.96 45.54,0 68.3,12.82 68.3,38.47 0,8.12 -2.51,15.12 -7.54,21 -5.02,5.88 -10.95,9.35 -17.79,10.42l0 0.64c8.97,2.56 15.98,6.69 21,12.35 5.03,5.66 7.54,12.35 7.54,20.04 0,30.14 -23.73,45.21 -71.19,45.21 -6.41,0 -17.42,-0.32 -33.02,-0.96 -15.39,-0.64 -25.12,-0.96 -29.18,-0.96zm63.49 -57.71l-15.39 0 0 19.88c8.34,0.85 14.86,1.29 19.56,1.29 4.28,0 7.8,-1.02 10.59,-3.05 2.78,-2.03 4.16,-4.43 4.16,-7.22 0,-7.27 -6.3,-10.9 -18.91,-10.9zm2.89 -50.02c-8.34,0 -14.43,0.32 -18.28,0.96l0 20.2 16.04 0c10.04,0 15.06,-3.63 15.06,-10.9 0,-2.78 -1.17,-5.19 -3.52,-7.22 -2.35,-2.03 -5.45,-3.05 -9.3,-3.05zm112.86 8.66l-11.86 -34.95c15.38,-9.4 33.24,-14.11 53.54,-14.11 20.95,0 36.18,5.03 45.69,15.07 9.51,10.04 14.27,25.44 14.27,46.17l0 86.89 -41.68 0 0 -13.14c-7.06,10.04 -19.67,15.06 -37.84,15.06 -13.68,0 -24.69,-4.06 -33.03,-12.18 -8.34,-8.12 -12.5,-19.24 -12.5,-33.35 0,-15.17 4.76,-26.94 14.27,-35.27 9.51,-8.34 22.07,-12.5 37.67,-12.5 12.18,0 21.59,2.67 28.21,8.01 1.07,-16.46 -5.56,-24.69 -19.88,-24.69 -9.83,0 -22.13,3 -36.87,8.98zm38.47 60.92c8.56,0 14.65,-2.45 18.28,-7.37l0 -8.98c-4.49,-3.21 -10.58,-4.81 -18.28,-4.81 -4.06,0 -7.37,0.96 -9.93,2.89 -2.56,1.92 -3.85,4.6 -3.85,8.01 0,3.21 1.29,5.71 3.85,7.53 2.56,1.82 5.87,2.72 9.93,2.72zm237.91 38.16l-48.09 0 0 -49.7 -46.49 0 0 49.7 -48.09 0 0 -144.28 48.09 0 0 49.7 46.49 0 0 -49.7 48.09 0 0 144.28zm134.66 -75.35l-51.3 75.35 -48.09 0 0 -144.28 48.09 0 0 75.35 51.3 -75.35 48.1 0 0 144.28 -48.1 0 0 -75.35zm159.68 -68.94l49.7 0 0 144.28 -48.09 0 0 -36.87 -11.54 0 -22.76 36.87 -54.83 0 34.31 -47.46c-16.04,-8.55 -24.05,-22.76 -24.05,-42.64 0,-16.67 6.52,-29.87 19.56,-39.6 13.04,-9.72 32.28,-14.59 57.71,-14.59zm-25.97 58.04c0,3.85 1.82,7.16 5.46,9.93 3.63,2.78 8.12,4.17 13.46,4.17l8.66 0 0 -30.46 -9.3 0c-5.13,0 -9.46,1.65 -12.98,4.97 -3.53,3.31 -5.3,7.11 -5.3,11.38zm-2202.74 336.43l-48.09 0 0 -49.7 -46.49 0 0 49.7 -48.09 0 0 -144.28 48.09 0 0 49.7 46.49 0 0 -49.7 48.09 0 0 144.28zm50.66 -99.08l-11.86 -34.95c15.38,-9.4 33.24,-14.11 53.54,-14.11 20.95,0 36.18,5.03 45.69,15.07 9.51,10.04 14.27,25.44 14.27,46.17l0 86.89 -41.68 0 0 -13.14c-7.06,10.04 -19.67,15.06 -37.84,15.06 -13.68,0 -24.69,-4.06 -33.03,-12.18 -8.34,-8.12 -12.5,-19.24 -12.5,-33.35 0,-15.17 4.76,-26.94 14.27,-35.27 9.51,-8.34 22.07,-12.5 37.67,-12.5 12.18,0 21.59,2.67 28.21,8.01 1.07,-16.46 -5.56,-24.69 -19.88,-24.69 -9.83,0 -22.13,3 -36.87,8.98zm38.47 60.92c8.56,0 14.65,-2.45 18.28,-7.37l0 -8.98c-4.49,-3.21 -10.58,-4.81 -18.28,-4.81 -4.06,0 -7.37,0.96 -9.93,2.89 -2.56,1.92 -3.85,4.6 -3.85,8.01 0,3.21 1.29,5.71 3.85,7.53 2.56,1.82 5.87,2.72 9.93,2.72zm181.8 -130.18l51.3 0 0 125.05c0,15.17 -4.65,26.72 -13.95,34.63 -9.3,7.91 -22.49,11.86 -39.6,11.86 -8.12,0 -15.93,-1.39 -23.41,-4.17 -7.48,-2.78 -12.61,-5.98 -15.39,-9.61l16.68 -39.12c4.7,3.21 9.61,4.82 14.74,4.82 6.41,0 9.62,-2.57 9.62,-7.7l0 -115.75zm107.41 69.26l-11.86 -34.95c15.38,-9.4 33.24,-14.11 53.54,-14.11 20.95,0 36.18,5.03 45.69,15.07 9.51,10.04 14.27,25.44 14.27,46.17l0 86.89 -41.68 0 0 -13.14c-7.06,10.04 -19.67,15.06 -37.84,15.06 -13.68,0 -24.69,-4.06 -33.03,-12.18 -8.34,-8.12 -12.5,-19.24 -12.5,-33.35 0,-15.17 4.76,-26.94 14.27,-35.27 9.51,-8.34 22.07,-12.5 37.67,-12.5 12.18,0 21.59,2.67 28.21,8.01 1.07,-16.46 -5.56,-24.69 -19.88,-24.69 -9.83,0 -22.13,3 -36.87,8.98zm38.47 60.92c8.56,0 14.65,-2.45 18.28,-7.37l0 -8.98c-4.49,-3.21 -10.58,-4.81 -18.28,-4.81 -4.06,0 -7.37,0.96 -9.93,2.89 -2.56,1.92 -3.85,4.6 -3.85,8.01 0,3.21 1.29,5.71 3.85,7.53 2.56,1.82 5.87,2.72 9.93,2.72zm185.96 -106.13l50.66 0 -60.6 144.28 -36.24 0 -65.41 -144.28 57.07 0 18.6 45.53c4.06,10.26 7.27,21.38 9.62,33.35 2.34,-13.25 5.45,-24.48 9.29,-33.67l16.99 -45.21zm80.49 45.21l-11.86 -34.95c15.38,-9.4 33.24,-14.11 53.54,-14.11 20.95,0 36.18,5.03 45.69,15.07 9.51,10.04 14.27,25.44 14.27,46.17l0 86.89 -41.68 0 0 -13.14c-7.06,10.04 -19.67,15.06 -37.84,15.06 -13.68,0 -24.69,-4.06 -33.03,-12.18 -8.34,-8.12 -12.5,-19.24 -12.5,-33.35 0,-15.17 4.76,-26.94 14.27,-35.27 9.51,-8.34 22.07,-12.5 37.67,-12.5 12.18,0 21.59,2.67 28.21,8.01 1.07,-16.46 -5.56,-24.69 -19.88,-24.69 -9.83,0 -22.13,3 -36.87,8.98zm38.47 60.92c8.56,0 14.65,-2.45 18.28,-7.37l0 -8.98c-4.49,-3.21 -10.58,-4.81 -18.28,-4.81 -4.06,0 -7.37,0.96 -9.93,2.89 -2.56,1.92 -3.85,4.6 -3.85,8.01 0,3.21 1.29,5.71 3.85,7.53 2.56,1.82 5.87,2.72 9.93,2.72z"></path> <g id="_1643238241824"> <path class="fil2" d="M2004.1 333.25l-65.26 0c-5.21,0 -9.6,-1.51 -9.37,-4.42 0.18,-2.88 6.24,-13.85 6.24,-13.85 1.24,-2.88 4.19,-4.43 9.36,-4.43l52.82 0c5.17,0 7.33,1.87 9.37,4.43 0,0 6.47,11.59 6.25,13.85 -0.22,2.29 -4.19,4.42 -9.41,4.42zm136.2 -70.99c-9.63,-11.91 -19.41,-20.45 -43.42,-20.45l-245.01 0c-23.99,0 -37.66,7.13 -43.42,20.45 0,0 -27.99,50.94 -28.96,64.35 -0.96,13.38 19.4,20.38 43.41,20.38l302.94 0c23.95,0 42.46,-9.88 43.38,-20.38 1.02,-10.54 -28.92,-64.35 -28.92,-64.35z"></path> <path class="fil2" d="M2090.57 68.27l-138.42 0 0 -15.4 138.42 0 0 15.4zm0 32.92l-138.42 0 0 -15.31 138.42 0 0 15.31zm0 32.97l-138.42 0 0 -15.35 138.42 0 0 15.35zm0 32.94l-138.44 0 -93.08 0 0 -15.36 93.08 0 138.44 0 0 15.36zm-232.95 -114.23l73.96 0 0 80.64 -73.96 0 0 -80.64zm239.26 -52.86l-245.01 0c-24.06,0 -43.47,19.4 -43.47,43.39l0 136.98c0,23.97 19.41,43.43 43.47,43.43l245.01 0c24.01,0 43.42,-19.46 43.42,-43.43l0 -136.98c0,-23.99 -19.41,-43.39 -43.42,-43.39z"></path> <path class="fil2" d="M2004.1 2148.58l-65.26 0c-5.21,0 -9.6,-1.51 -9.37,-4.42 0.18,-2.88 6.24,-13.85 6.24,-13.85 1.24,-2.88 4.19,-4.43 9.36,-4.43l52.82 0c5.17,0 7.33,1.87 9.37,4.43 0,0 6.47,11.59 6.25,13.85 -0.22,2.29 -4.19,4.42 -9.41,4.42zm136.2 -70.99c-9.63,-11.91 -19.41,-20.45 -43.42,-20.45l-245.01 0c-23.99,0 -37.66,7.13 -43.42,20.45 0,0 -27.99,50.94 -28.96,64.35 -0.96,13.38 19.4,20.38 43.41,20.38l302.94 0c23.95,0 42.46,-9.88 43.38,-20.38 1.02,-10.54 -28.92,-64.35 -28.92,-64.35z"></path> <path class="fil2" d="M2090.57 1883.6l-138.42 0 0 -15.4 138.42 0 0 15.4zm0 32.92l-138.42 0 0 -15.31 138.42 0 0 15.31zm0 32.95l-138.42 0 0 -15.34 138.42 0 0 15.34zm0 32.95l-138.44 0 -93.08 0 0 -15.35 93.08 0 138.44 0 0 15.35zm-232.95 -114.23l73.96 0 0 80.64 -73.96 0 0 -80.64zm239.26 -52.88l-245.01 0c-24.06,0 -43.47,19.4 -43.47,43.4l0 136.97c0,23.97 19.41,43.44 43.47,43.44l245.01 0c24.01,0 43.42,-19.46 43.42,-43.44l0 -136.97c0,-23.99 -19.41,-43.4 -43.42,-43.4z"></path> <path class="fil2" d="M2090.57 3538.01l-138.42 0 0 -15.4 138.42 0 0 15.4zm0 32.92l-138.42 0 0 -15.31 138.42 0 0 15.31zm0 32.99l-138.42 0 0 -15.35 138.42 0 0 15.35zm0 32.92l-138.44 0 -93.08 0 0 -15.35 93.08 0 138.44 0 0 15.35zm-232.95 -114.22l73.96 0 0 80.65 -73.96 0 0 -80.65zm239.26 -52.88l-245.01 0c-24.06,0 -43.47,19.4 -43.47,43.4l0 136.99c0,23.96 19.41,43.43 43.47,43.43l245.01 0c24.01,0 43.42,-19.47 43.42,-43.43l0 -136.99c0,-24 -19.41,-43.4 -43.42,-43.4z"></path> <path class="fil2" d="M443.12 1225.18l-65.26 0c-5.21,0 -9.6,-1.51 -9.37,-4.43 0.18,-2.87 6.25,-13.85 6.25,-13.85 1.21,-2.87 4.18,-4.42 9.34,-4.42l52.83 0c5.17,0 7.34,1.86 9.36,4.42 0,0 6.47,11.59 6.25,13.85 -0.21,2.29 -4.18,4.43 -9.4,4.43zm136.2 -71c-9.63,-11.9 -19.41,-20.45 -43.42,-20.45l-245.01 0c-24.01,0 -37.66,7.13 -43.42,20.45 0,0 -27.99,50.94 -28.96,64.36 -0.96,13.37 19.4,20.38 43.41,20.38l302.94 0c23.96,0 42.46,-9.89 43.38,-20.38 1.02,-10.54 -28.92,-64.36 -28.92,-64.36z"></path> <path class="fil2" d="M529.6 960.19l-138.42 0 0 -15.4 138.42 0 0 15.4zm0 32.92l-138.42 0 0 -15.31 138.42 0 0 15.31zm0 32.97l-138.42 0 0 -15.34 138.42 0 0 15.34zm0 32.94l-138.44 0 -93.09 0 0 -15.35 93.09 0 138.44 0 0 15.35zm-232.95 -114.23l73.96 0 0 80.64 -73.96 0 0 -80.64zm239.25 -52.88l-245 0c-24.05,0 -43.47,19.4 -43.47,43.41l0 136.97c0,23.97 19.42,43.43 43.47,43.43l245 0c24.01,0 43.43,-19.46 43.43,-43.43l0 -136.97c0,-24.01 -19.42,-43.41 -43.43,-43.41z"></path> <path class="fil2" d="M3539.18 1225.18l-65.26 0c-5.21,0 -9.6,-1.51 -9.37,-4.43 0.18,-2.87 6.23,-13.85 6.23,-13.85 1.23,-2.87 4.19,-4.42 9.36,-4.42l52.83 0c5.17,0 7.33,1.86 9.36,4.42 0,0 6.47,11.59 6.25,13.85 -0.21,2.29 -4.18,4.43 -9.4,4.43zm136.2 -71c-9.63,-11.9 -19.41,-20.45 -43.42,-20.45l-245.01 0c-24.01,0 -37.67,7.13 -43.42,20.45 0,0 -27.99,50.94 -28.96,64.36 -0.96,13.37 19.4,20.38 43.41,20.38l302.94 0c23.96,0 42.46,-9.89 43.36,-20.38 1.03,-10.54 -28.91,-64.36 -28.91,-64.36z"></path> <path class="fil2" d="M3625.65 960.19l-138.42 0 0 -15.4 138.42 0 0 15.4zm0 32.92l-138.42 0 0 -15.31 138.42 0 0 15.31zm0 32.97l-138.42 0 0 -15.34 138.42 0 0 15.34zm0 32.94l-138.42 0 -93.1 0 0 -15.35 93.1 0 138.42 0 0 15.35zm-232.95 -114.23l73.96 0 0 80.64 -73.96 0 0 -80.64zm239.25 -52.88l-245.01 0c-24.05,0 -43.46,19.4 -43.46,43.41l0 136.97c0,23.97 19.41,43.43 43.46,43.43l245.01 0c24.01,0 43.43,-19.46 43.43,-43.43l0 -136.97c0,-24.01 -19.42,-43.41 -43.43,-43.41z"></path> <path class="fil2" d="M443.12 2862.11l-65.26 0c-5.21,0 -9.6,-1.51 -9.37,-4.42 0.18,-2.88 6.25,-13.86 6.25,-13.86 1.21,-2.87 4.18,-4.42 9.34,-4.42l52.83 0c5.17,0 7.34,1.87 9.36,4.42 0,0 6.47,11.59 6.25,13.86 -0.21,2.29 -4.18,4.42 -9.4,4.42zm136.2 -70.99c-9.63,-11.91 -19.41,-20.45 -43.42,-20.45l-245.01 0c-24.01,0 -37.66,7.13 -43.42,20.45 0,0 -27.99,50.94 -28.96,64.35 -0.96,13.38 19.4,20.38 43.41,20.38l302.94 0c23.96,0 42.46,-9.88 43.38,-20.38 1.02,-10.54 -28.92,-64.35 -28.92,-64.35z"></path> <path class="fil2" d="M529.6 2597.14l-138.42 0 0 -15.41 138.42 0 0 15.41zm0 32.91l-138.42 0 0 -15.3 138.42 0 0 15.3zm0 32.98l-138.42 0 0 -15.35 138.42 0 0 15.35zm0 32.93l-138.44 0 -93.09 0 0 -15.34 93.09 0 138.44 0 0 15.34zm-232.95 -114.23l73.96 0 0 80.64 -73.96 0 0 -80.64zm239.25 -52.87l-245 0c-24.05,0 -43.47,19.4 -43.47,43.4l0 136.98c0,23.97 19.42,43.43 43.47,43.43l245 0c24.01,0 43.43,-19.46 43.43,-43.43l0 -136.98c0,-24.01 -19.42,-43.4 -43.43,-43.4z"></path> <path class="fil2" d="M3541.89 2862.11l-65.26 0c-5.21,0 -9.61,-1.51 -9.37,-4.42 0.18,-2.88 6.24,-13.86 6.24,-13.86 1.22,-2.87 4.18,-4.42 9.35,-4.42l52.83 0c5.16,0 7.33,1.87 9.36,4.42 0,0 6.47,11.59 6.25,13.86 -0.21,2.29 -4.18,4.42 -9.4,4.42zm136.21 -70.99c-9.65,-11.91 -19.42,-20.45 -43.43,-20.45l-245.01 0c-24,0 -37.66,7.13 -43.41,20.45 0,0 -27.99,50.94 -28.97,64.35 -0.96,13.38 19.41,20.38 43.42,20.38l302.94 0c23.95,0 42.46,-9.88 43.36,-20.38 1.02,-10.54 -28.9,-64.35 -28.9,-64.35z"></path> <path class="fil2" d="M3628.35 2597.14l-138.42 0 0 -15.41 138.42 0 0 15.41zm0 32.91l-138.42 0 0 -15.3 138.42 0 0 15.3zm0 32.98l-138.42 0 0 -15.35 138.42 0 0 15.35zm0 32.93l-138.42 0 -93.1 0 0 -15.34 93.1 0 138.42 0 0 15.34zm-232.95 -114.23l73.96 0 0 80.64 -73.96 0 0 -80.64zm239.26 -52.87l-245.01 0c-24.05,0 -43.45,19.4 -43.45,43.4l0 136.98c0,23.97 19.4,43.43 43.45,43.43l245.01 0c24.01,0 43.44,-19.46 43.44,-43.43l0 -136.98c0,-24.01 -19.43,-43.4 -43.44,-43.4z"></path> <polygon class="fil3" points="389.21,1332.3 389.21,2487.7 423.17,2487.7 423.17,1332.3 "></polygon> <polygon class="fil3" points="3504.94,2487.7 3538.85,2487.7 3538.85,1277.89 3504.94,1277.89 "></polygon> <polygon class="fil3" points="1962.43,1711.19 1996.33,1711.19 1996.33,501.41 1962.43,501.41 "></polygon> <polygon class="fil3" points="2275.99,313.51 3186.78,834.4 3203.59,804.92 2292.87,284.03 "></polygon> <polygon class="fil3" points="621.41,3018.03 1650.3,3606.43 1667.15,3576.95 638.28,2988.55 "></polygon> <polygon class="fil3" points="2294.56,2165.81 3199.87,2683.53 3216.72,2654.05 2311.45,2136.33 "></polygon> <polygon class="fil3" points="2260.95,3588.43 2277.84,3617.88 3290.32,3035.78 3273.35,3006.36 "></polygon> <polygon class="fil3" points="665.98,2717.49 682.88,2746.92 1695.35,2164.83 1678.37,2135.42 "></polygon> <polygon class="fil3" points="697.93,826.27 714.83,855.71 1655.65,314.71 1638.72,285.29 "></polygon> <path class="fil2" d="M1796.98 3180.53c1.66,26.58 -27.73,64.64 -75.72,94.15 -109.6,67.4 -255.48,72.51 -361.62,9.72 -97.87,-57.88 -113.13,-143.09 8.6,-217.95 46.97,-28.89 102.45,-44.21 143.62,-45.44l22.57 56.61c-30.38,5.18 -59.81,11.53 -93.16,32.03 -54.55,33.54 -62.96,82.2 4.24,121.94 60.37,35.73 146.65,34.35 210.29,-4.78 25.25,-15.52 45.24,-37.22 51.93,-61.9l89.25 15.62z"></path> <path class="fil2" d="M2038.82 2902.55c104.21,61.64 77.88,128.93 2.12,175.53 -90.91,55.92 -204.2,65.08 -304.02,6.03l-196.7 -116.36 80.8 -49.7 180.16 106.58c53.08,31.39 110.16,45.05 166.73,10.25 48.99,-30.13 29.08,-59.58 -25.46,-91.84l-184.55 -109.17 80.82 -49.67 200.1 118.36z"></path> <path class="fil2" d="M2208.39 2801.8l63.78 37.73c7.02,-2.54 15.04,-5.72 30.19,-15.05 31.32,-19.25 33.83,-36.66 10.96,-50.19 -21.44,-12.68 -47.35,-7.91 -73.61,8.24l-31.31 19.26zm-130.02 -76.9l61.84 36.58 26.77 -16.48c20.72,-12.72 29.1,-27.87 4.27,-42.57 -20.45,-12.1 -49.84,-6.35 -69.55,5.77 -10.1,6.23 -15.2,10.52 -23.32,16.69zm-152.87 7.06c18.74,-12.68 65.77,-43.97 104.16,-67.58 84.35,-51.86 156.18,-50.8 203.4,-22.86 35.54,21.02 45.27,43.83 35.55,69.78l0.96 0.58c35.02,-10.37 84.6,-10.9 128.42,15.02 71.58,42.33 47.59,97.61 -29.18,144.83 -33.84,20.81 -81.77,49.12 -104.44,60.7l-338.89 -200.48z"></path> <polygon class="fil2" points="2236.12,2539.77 2445.73,2410.88 2518.76,2454.07 2389.97,2533.28 2449.86,2568.69 2563.5,2498.81 2636.53,2542.02 2522.89,2611.9 2584.73,2648.48 2718.56,2566.19 2791.6,2609.39 2576.95,2741.39 "></polygon> <polygon class="fil2" points="1263.37,1127 1263.37,820.6 993.07,972.38 "></polygon> <polygon class="fil2" points="969.22,1006.1 969.22,2272.63 1263.37,2107.47 1263.37,1174.36 "></polygon> <polygon class="fil2" points="2598.98,2054.61 2866.4,2207.38 2866.4,1297.67 2598.98,1447.75 "></polygon> <polygon class="fil2" points="2301.07,664.88 2301.07,926 2598.98,1097.22 2598.98,1402.91 2866.39,1249.99 2983.58,1316.94 3214.1,1187.55 "></polygon> <polygon class="fil2" points="3023.19,1339.58 3217.33,1450.51 3217.33,1230.62 "></polygon> <path class="fil2" d="M2008.03 3809.48l-65.26 0c-5.21,0 -9.6,-1.51 -9.37,-4.42 0.18,-2.88 6.25,-13.86 6.25,-13.86 1.21,-2.87 4.18,-4.42 9.34,-4.42l52.83 0c5.17,0 7.34,1.87 9.36,4.42 0,0 6.47,11.59 6.25,13.86 -0.21,2.29 -4.18,4.42 -9.4,4.42zm136.2 -70.99c-9.63,-11.91 -19.41,-20.45 -43.42,-20.45l-245.01 0c-24.01,0 -37.66,7.13 -43.42,20.45 0,0 -27.99,50.94 -28.96,64.35 -0.96,13.38 19.4,20.38 43.41,20.38l302.94 0c23.96,0 42.46,-9.88 43.38,-20.38 1.02,-10.54 -28.92,-64.35 -28.92,-64.35z"></path> </g> </g> </svg> 