<?xml version="1.0" encoding="UTF-8"?> <!-- Creator: CorelDRAW 2018 (64-Bit) --> <svg xmlns="http://www.w3.org/2000/svg" xmlns:xlink="http://www.w3.org/1999/xlink" xml:space="preserve" width="41.2238mm" height="58.7607mm" style="shape-rendering:geometricPrecision; text-rendering:geometricPrecision; image-rendering:optimizeQuality; fill-rule:evenodd; clip-rule:evenodd" viewBox="0 0 639.56 911.63"> <defs> <style type="text/css"> <![CDATA[ .fil2 {fill:#264796} .fil0 {fill:#3C3C3B;fill-rule:nonzero} .fil1 {fill:#264796;fill-rule:nonzero} ]]> </style> </defs> <g id="Слой_x0020_1"> <metadata id="CorelCorpID_0Corel-Layer"></metadata> <path class="fil0" d="M30.75 748.51l-9.4 0 0 -30.86 9.46 0 9.87 10.99 9.29 -10.99 8.88 0 0 30.86 -9.4 0 0 -16.52 -8.76 9.7 -1.29 0 -8.64 -9.52 0 16.34zm38.09 -3.23c-2.67,-2.67 -4,-6 -4,-9.99 0,-4 1.33,-7.33 4,-9.99 2.67,-2.63 6.23,-3.94 10.7,-3.94 4.47,0 8.01,1.31 10.64,3.94 2.7,2.63 4.06,5.96 4.06,9.99 0,4.04 -1.35,7.37 -4.06,9.99 -2.63,2.63 -6.17,3.94 -10.64,3.94 -4.47,0 -8.03,-1.31 -10.7,-3.94zm5.41 -9.99c0,1.65 0.5,3.01 1.5,4.08 1,1.08 2.26,1.62 3.79,1.62 1.57,0 2.84,-0.52 3.82,-1.56 0.98,-1.04 1.47,-2.42 1.47,-4.14 0,-1.65 -0.5,-3.01 -1.5,-4.08 -1,-1.08 -2.26,-1.62 -3.79,-1.62 -1.53,0 -2.79,0.52 -3.79,1.56 -1,1.04 -1.5,2.42 -1.5,4.14zm44.26 -28.63l4.59 7.29c-1.18,1.21 -2.39,2.08 -3.64,2.59 -0.63,0.24 -2.01,0.66 -4.14,1.26 -2.14,0.61 -3.62,1.13 -4.44,1.56 -2.63,1.41 -4.15,3.74 -4.58,7l0.12 0c0.82,-1.06 1.98,-1.94 3.47,-2.65 1.49,-0.71 3.04,-1.06 4.64,-1.06 3.49,0 6.31,1.18 8.46,3.53 2.15,2.27 3.23,5.39 3.23,9.35 0,3.88 -1.29,7.13 -3.88,9.76 -2.59,2.63 -5.99,3.94 -10.23,3.94 -4.59,0 -8.17,-1.53 -10.76,-4.59 -2.59,-3.06 -3.88,-7.19 -3.88,-12.4 0,-11.17 3.39,-18.26 10.17,-21.28 1.33,-0.59 2.8,-1.06 4.41,-1.41 1.8,-0.43 3.14,-0.83 4.03,-1.21 0.88,-0.37 1.7,-0.93 2.44,-1.68zm-11.64 27.45c0.04,1.96 0.51,3.6 1.41,4.91 0.9,1.31 2.1,1.97 3.59,1.97 2.04,0.16 3.49,-0.65 4.35,-2.41 0.86,-1.76 0.89,-3.53 0.09,-5.29 -0.8,-1.76 -2.17,-2.57 -4.09,-2.41 -2.59,0 -4.37,1.08 -5.35,3.23zm42.56 0.59l-9.4 13.81 -8.82 0 0 -26.45 8.82 0 0 13.81 9.4 -13.81 8.82 0 0 26.45 -8.82 0 0 -13.81zm40.86 13.81l-8.82 0 0 -17.64 -4.64 0 -0.12 1.18c-0.55,4.78 -1.28,8.35 -2.2,10.7 -0.92,2.35 -2.2,4 -3.85,4.94 -1.65,0.94 -4.06,1.45 -7.23,1.53l-0.76 -8.58c1.53,0.16 2.78,-0.62 3.76,-2.32 0.98,-1.71 1.57,-4.38 1.76,-8.02l0.41 -8.23 21.69 0 0 26.45zm17.69 0l-11.23 0 0 -26.45 8.82 0 0 6.17 3.06 0c4.23,0 7.31,0.92 9.23,2.76 1.88,1.8 2.82,4.06 2.82,6.76 0,2.94 -1.04,5.49 -3.12,7.64 -2.08,2.08 -5.27,3.12 -9.58,3.12zm-0.12 -13.23l-2.29 0 0 5.58 2.23 0c2.31,0 3.47,-0.92 3.47,-2.76 0,-1.88 -1.14,-2.82 -3.41,-2.82zm43.38 13.23l-8.82 0 0 -9.11 -8.52 0 0 9.11 -8.82 0 0 -26.45 8.82 0 0 9.11 8.52 0 0 -9.11 8.82 0 0 26.45zm9.29 -18.16l-2.18 -6.41c2.82,-1.72 6.09,-2.59 9.82,-2.59 3.84,0 6.63,0.92 8.38,2.76 1.74,1.84 2.62,4.66 2.62,8.46l0 15.93 -7.64 0 0 -2.41c-1.29,1.84 -3.61,2.76 -6.94,2.76 -2.51,0 -4.53,-0.74 -6.06,-2.23 -1.53,-1.49 -2.29,-3.53 -2.29,-6.11 0,-2.78 0.87,-4.94 2.62,-6.47 1.74,-1.53 4.05,-2.29 6.91,-2.29 2.23,0 3.96,0.49 5.17,1.47 0.2,-3.02 -1.02,-4.53 -3.64,-4.53 -1.8,0 -4.06,0.55 -6.76,1.65zm7.05 11.17c1.57,0 2.69,-0.45 3.35,-1.35l0 -1.65c-0.82,-0.59 -1.94,-0.88 -3.35,-0.88 -0.74,0 -1.35,0.18 -1.82,0.53 -0.47,0.35 -0.71,0.84 -0.71,1.47 0,0.59 0.24,1.05 0.71,1.38 0.47,0.33 1.08,0.5 1.82,0.5zm31.45 -19.46l9.11 0 0 26.45 -8.82 0 0 -6.76 -2.12 0 -4.17 6.76 -10.05 0 6.29 -8.7c-2.94,-1.57 -4.41,-4.17 -4.41,-7.82 0,-3.06 1.2,-5.48 3.59,-7.26 2.39,-1.78 5.92,-2.67 10.58,-2.67zm-4.76 10.64c0,0.71 0.33,1.31 1,1.82 0.67,0.51 1.49,0.76 2.47,0.76l1.59 0 0 -5.58 -1.71 0c-0.94,0 -1.73,0.3 -2.38,0.91 -0.65,0.61 -0.97,1.3 -0.97,2.09zm40.91 27.57l-8.82 0 0 -38.21 8.82 0 0 2c1.8,-1.8 4.25,-2.7 7.35,-2.7 3.49,0 6.33,1.27 8.52,3.82 2.2,2.55 3.29,5.78 3.29,9.7 0,4.11 -1.31,7.54 -3.94,10.29 -2.66,2.7 -6.09,4.06 -10.29,4.06 -1.96,0 -3.61,-0.27 -4.94,-0.82l0 11.87zm4.59 -30.68c-1.65,0 -3.17,0.78 -4.59,2.35l0 8.05c1.14,0.67 2.51,1 4.11,1 1.8,0 3.19,-0.54 4.17,-1.62 0.98,-1.08 1.47,-2.52 1.47,-4.32 0,-1.64 -0.46,-2.97 -1.38,-3.97 -0.92,-1 -2.18,-1.5 -3.79,-1.5zm22.4 0.76l-2.18 -6.41c2.82,-1.72 6.09,-2.59 9.82,-2.59 3.84,0 6.63,0.92 8.38,2.76 1.74,1.84 2.62,4.66 2.62,8.46l0 15.93 -7.64 0 0 -2.41c-1.29,1.84 -3.61,2.76 -6.94,2.76 -2.51,0 -4.53,-0.74 -6.06,-2.23 -1.53,-1.49 -2.29,-3.53 -2.29,-6.11 0,-2.78 0.87,-4.94 2.62,-6.47 1.74,-1.53 4.05,-2.29 6.91,-2.29 2.23,0 3.96,0.49 5.17,1.47 0.2,-3.02 -1.02,-4.53 -3.64,-4.53 -1.8,0 -4.06,0.55 -6.76,1.65zm7.05 11.17c1.57,0 2.69,-0.45 3.35,-1.35l0 -1.65c-0.82,-0.59 -1.94,-0.88 -3.35,-0.88 -0.74,0 -1.35,0.18 -1.82,0.53 -0.47,0.35 -0.71,0.84 -0.71,1.47 0,0.59 0.24,1.05 0.71,1.38 0.47,0.33 1.08,0.5 1.82,0.5zm27.51 7.7c-2.47,0 -4.88,-0.45 -7.23,-1.35 -2.27,-0.94 -3.9,-2.08 -4.88,-3.41l4.47 -5.41c0.71,0.82 1.74,1.55 3.12,2.18 1.37,0.63 2.65,0.94 3.82,0.94 2.55,0 3.82,-0.63 3.82,-1.88 0,-1.33 -0.94,-2 -2.82,-2l-5.05 0 0 -5.88 4.76 0c0.82,0 1.45,-0.2 1.88,-0.59 0.43,-0.39 0.65,-0.9 0.65,-1.53 0,-1.25 -1.14,-1.88 -3.41,-1.88 -2.12,0 -4.37,1.02 -6.76,3.06l-3.64 -5.29c2.63,-3.21 6.66,-4.82 12.11,-4.82 3.57,0 6.31,0.68 8.23,2.03 1.92,1.35 2.88,3.26 2.88,5.73 0,1.25 -0.44,2.4 -1.32,3.44 -0.88,1.04 -2.05,1.79 -3.5,2.26l0 0.12c3.61,0.82 5.41,2.9 5.41,6.23 0,2.47 -1.14,4.43 -3.41,5.88 -2.27,1.45 -5.31,2.18 -9.11,2.18zm26.92 11.05l-8.82 0 0 -38.21 8.82 0 0 2c1.8,-1.8 4.25,-2.7 7.35,-2.7 3.49,0 6.33,1.27 8.52,3.82 2.2,2.55 3.29,5.78 3.29,9.7 0,4.11 -1.31,7.54 -3.94,10.29 -2.66,2.7 -6.09,4.06 -10.29,4.06 -1.96,0 -3.61,-0.27 -4.94,-0.82l0 11.87zm4.59 -30.68c-1.65,0 -3.17,0.78 -4.59,2.35l0 8.05c1.14,0.67 2.51,1 4.11,1 1.8,0 3.19,-0.54 4.17,-1.62 0.98,-1.08 1.47,-2.52 1.47,-4.32 0,-1.64 -0.46,-2.97 -1.38,-3.97 -0.92,-1 -2.18,-1.5 -3.79,-1.5zm22.4 0.76l-2.18 -6.41c2.82,-1.72 6.09,-2.59 9.82,-2.59 3.84,0 6.63,0.92 8.38,2.76 1.74,1.84 2.62,4.66 2.62,8.46l0 15.93 -7.64 0 0 -2.41c-1.29,1.84 -3.61,2.76 -6.94,2.76 -2.51,0 -4.53,-0.74 -6.06,-2.23 -1.53,-1.49 -2.29,-3.53 -2.29,-6.11 0,-2.78 0.87,-4.94 2.62,-6.47 1.74,-1.53 4.05,-2.29 6.91,-2.29 2.23,0 3.96,0.49 5.17,1.47 0.2,-3.02 -1.02,-4.53 -3.64,-4.53 -1.8,0 -4.06,0.55 -6.76,1.65zm7.05 11.17c1.57,0 2.69,-0.45 3.35,-1.35l0 -1.65c-0.82,-0.59 -1.94,-0.88 -3.35,-0.88 -0.74,0 -1.35,0.18 -1.82,0.53 -0.47,0.35 -0.71,0.84 -0.71,1.47 0,0.59 0.24,1.05 0.71,1.38 0.47,0.33 1.08,0.5 1.82,0.5zm36.74 -34.86l4.59 7.29c-1.18,1.21 -2.39,2.08 -3.64,2.59 -0.63,0.24 -2.01,0.66 -4.14,1.26 -2.14,0.61 -3.62,1.13 -4.44,1.56 -2.63,1.41 -4.15,3.74 -4.58,7l0.12 0c0.82,-1.06 1.98,-1.94 3.47,-2.65 1.49,-0.71 3.04,-1.06 4.64,-1.06 3.49,0 6.31,1.18 8.46,3.53 2.15,2.27 3.23,5.39 3.23,9.35 0,3.88 -1.29,7.13 -3.88,9.76 -2.59,2.63 -5.99,3.94 -10.23,3.94 -4.59,0 -8.17,-1.53 -10.76,-4.59 -2.59,-3.06 -3.88,-7.19 -3.88,-12.4 0,-11.17 3.39,-18.26 10.17,-21.28 1.33,-0.59 2.8,-1.06 4.41,-1.41 1.8,-0.43 3.14,-0.83 4.03,-1.21 0.88,-0.37 1.7,-0.93 2.44,-1.68zm-11.64 27.45c0.04,1.96 0.51,3.6 1.41,4.91 0.9,1.31 2.1,1.97 3.59,1.97 2.04,0.16 3.49,-0.65 4.35,-2.41 0.86,-1.76 0.89,-3.53 0.09,-5.29 -0.8,-1.76 -2.17,-2.57 -4.09,-2.41 -2.59,0 -4.37,1.08 -5.35,3.23zm26.86 11.17c-2.67,-2.67 -4,-6 -4,-9.99 0,-4 1.33,-7.33 4,-9.99 2.67,-2.63 6.23,-3.94 10.7,-3.94 4.47,0 8.01,1.31 10.64,3.94 2.7,2.63 4.06,5.96 4.06,9.99 0,4.04 -1.35,7.37 -4.06,9.99 -2.63,2.63 -6.17,3.94 -10.64,3.94 -4.47,0 -8.03,-1.31 -10.7,-3.94zm5.41 -9.99c0,1.65 0.5,3.01 1.5,4.08 1,1.08 2.26,1.62 3.79,1.62 1.57,0 2.84,-0.52 3.82,-1.56 0.98,-1.04 1.47,-2.42 1.47,-4.14 0,-1.65 -0.5,-3.01 -1.5,-4.08 -1,-1.08 -2.26,-1.62 -3.79,-1.62 -1.53,0 -2.79,0.52 -3.79,1.56 -1,1.04 -1.5,2.42 -1.5,4.14zm29.51 -4.41l-7.64 0 0 -8.82 24.1 0 0 8.82 -7.64 0 0 17.64 -8.82 0 0 -17.64zm29.68 17.64l-8.82 0 0 -26.45 8.82 0 0 12.23 7.17 -12.23 11.05 0 -8.58 12.58 9.87 13.87 -11.4 0 -8.11 -12.34 0 12.34zm25.34 -18.16l-2.18 -6.41c2.82,-1.72 6.09,-2.59 9.82,-2.59 3.84,0 6.63,0.92 8.38,2.76 1.74,1.84 2.62,4.66 2.62,8.46l0 15.93 -7.64 0 0 -2.41c-1.29,1.84 -3.61,2.76 -6.94,2.76 -2.51,0 -4.53,-0.74 -6.06,-2.23 -1.53,-1.49 -2.29,-3.53 -2.29,-6.11 0,-2.78 0.87,-4.94 2.62,-6.47 1.74,-1.53 4.05,-2.29 6.91,-2.29 2.23,0 3.96,0.49 5.17,1.47 0.2,-3.02 -1.02,-4.53 -3.64,-4.53 -1.8,0 -4.06,0.55 -6.76,1.65zm7.05 11.17c1.57,0 2.69,-0.45 3.35,-1.35l0 -1.65c-0.82,-0.59 -1.94,-0.88 -3.35,-0.88 -0.74,0 -1.35,0.18 -1.82,0.53 -0.47,0.35 -0.71,0.84 -0.71,1.47 0,0.59 0.24,1.05 0.71,1.38 0.47,0.33 1.08,0.5 1.82,0.5z"></path> <path class="fil1" d="M171.32 826.42l-10.61 0 0 -60.4 10.61 0 0 60.4zm30.11 -50.48l-19.59 0 0 -9.92 49.79 0 0 9.92 -19.59 0 0 50.48 -10.61 0 0 -50.48zm106.65 50.48l-51.77 0 0 -38.83 9.92 0 0 29.6 10.96 0 0 -29.6 9.92 0 0 29.6 11.04 0 0 -29.6 9.92 0 0 38.83zm35.29 -38.83l12.51 0 -14.93 18.47 16.74 20.36 -12.94 0 -15.36 -19.59 13.98 -19.24zm-14.32 38.83l-9.92 0 0 -38.83 9.92 0 0 38.83zm35.55 -4.75c-3.86,-3.85 -5.78,-8.74 -5.78,-14.67 0,-5.92 1.93,-10.79 5.78,-14.58 3.85,-3.86 8.97,-5.78 15.36,-5.78 6.33,0 11.42,1.93 15.27,5.78 3.91,3.8 5.87,8.66 5.87,14.58 0,5.87 -1.96,10.76 -5.87,14.67 -3.91,3.8 -9,5.7 -15.27,5.7 -6.39,0 -11.51,-1.9 -15.36,-5.7zm7.85 -22.61c-2.01,2.07 -3.02,4.72 -3.02,7.94 0,3.22 0.99,5.88 2.98,7.98 1.98,2.1 4.5,3.15 7.55,3.15 3.11,0 5.65,-1.04 7.64,-3.11 1.98,-2.07 2.98,-4.75 2.98,-8.02 0,-3.22 -1.01,-5.87 -3.02,-7.94 -2.01,-2.07 -4.54,-3.11 -7.59,-3.11 -2.99,0 -5.49,1.03 -7.51,3.11zm71.45 27.35l-9.92 0 0 -28.91 -10.27 0 -0.26 4.14c-0.75,7.02 -1.83,12.37 -3.24,16.05 -1.41,3.68 -3.19,6.17 -5.35,7.46 -2.16,1.29 -5.13,1.97 -8.93,2.03l-0.86 -9.67c1.27,0.06 2.45,-0.29 3.54,-1.03 1.27,-0.92 2.39,-2.85 3.37,-5.78 0.98,-2.93 1.61,-6.62 1.9,-11.05l0.61 -12.08 29.42 0 0 38.83zm14.06 -28.82l-2.5 -7.25c4.2,-2.47 8.77,-3.71 13.72,-3.71 5.41,0 9.35,1.32 11.82,3.97 2.47,2.65 3.71,6.7 3.71,12.17l0 23.64 -8.63 0 0 -4.49c-2.3,3.34 -6.13,5 -11.48,5 -3.68,0 -6.63,-1.08 -8.84,-3.24 -2.22,-2.16 -3.32,-5.05 -3.32,-8.67 0,-4.03 1.29,-7.13 3.88,-9.32 2.59,-2.19 6.01,-3.28 10.27,-3.28 3.51,0 6.44,0.83 8.8,2.5 0.11,-3.45 -0.39,-5.98 -1.51,-7.59 -1.12,-1.61 -3.03,-2.42 -5.74,-2.42 -2.99,0 -6.39,0.89 -10.18,2.68zm9.92 20.97c3.34,0 5.84,-1.18 7.51,-3.54l0 -3.97c-1.61,-1.27 -3.88,-1.9 -6.82,-1.9 -1.84,0 -3.34,0.43 -4.49,1.3 -1.15,0.86 -1.73,2.04 -1.73,3.54 0,1.38 0.52,2.49 1.55,3.32 1.03,0.83 2.36,1.25 3.97,1.25zm-330.44 76.06c0,-1.84 -0.68,-3.47 -2.03,-4.87 -1.35,-1.41 -3.03,-2.56 -5.05,-3.45 -2.01,-0.89 -4.21,-1.93 -6.6,-3.11 -2.39,-1.18 -4.59,-2.42 -6.6,-3.71 -2.01,-1.29 -3.7,-3.11 -5.05,-5.44 -1.35,-2.33 -2.03,-5.02 -2.03,-8.07 0,-4.66 1.7,-8.6 5.09,-11.82 3.51,-3.22 8.08,-4.83 13.72,-4.83 7.65,0 13.4,2.16 17.26,6.47l-5.7 7.94c-3.05,-2.99 -6.62,-4.49 -10.7,-4.49 -2.59,0 -4.65,0.6 -6.17,1.81 -1.53,1.21 -2.29,2.82 -2.29,4.83 0,1.04 0.2,2 0.6,2.89 0.4,0.89 0.85,1.63 1.34,2.2 0.49,0.58 1.3,1.21 2.42,1.9 1.12,0.69 2.01,1.19 2.67,1.51 0.66,0.32 1.77,0.82 3.32,1.51 1.55,0.69 2.65,1.18 3.28,1.47 2.53,1.15 4.75,2.36 6.64,3.62 2.13,1.27 3.84,3.08 5.14,5.44 1.29,2.36 1.94,5.06 1.94,8.11 0,5.06 -1.93,9.18 -5.78,12.34 -3.86,3.16 -8.66,4.75 -14.41,4.75 -4.03,0 -8.02,-0.83 -11.99,-2.5 -3.8,-1.73 -6.38,-4.06 -7.76,-6.99l6.04 -7.25c1.61,2.13 3.7,3.8 6.26,5 2.56,1.21 5.11,1.81 7.64,1.81 2.65,0 4.77,-0.63 6.38,-1.9 1.61,-1.27 2.42,-2.99 2.42,-5.18zm26.4 16.05l-10.7 0 25.54 -60.57 9.32 0 25.54 60.57 -11.3 0 -6.3 -15.45 -25.8 0 -6.3 15.45zm28.04 -25.37l-8.8 -21.49 -8.89 21.49 17.69 0zm41.33 25.37l-10.61 0 0 -60.4 10.7 0 20.62 28.22 19.67 -28.22 10.01 0 0 60.4 -10.53 0 0 -43.66 -19.07 26.83 -1.55 0 -19.24 -26.58 0 43.4zm91.38 -16.05c0,-1.84 -0.68,-3.47 -2.03,-4.87 -1.35,-1.41 -3.03,-2.56 -5.05,-3.45 -2.01,-0.89 -4.21,-1.93 -6.6,-3.11 -2.39,-1.18 -4.59,-2.42 -6.6,-3.71 -2.01,-1.29 -3.7,-3.11 -5.05,-5.44 -1.35,-2.33 -2.03,-5.02 -2.03,-8.07 0,-4.66 1.7,-8.6 5.09,-11.82 3.51,-3.22 8.08,-4.83 13.72,-4.83 7.65,0 13.4,2.16 17.26,6.47l-5.7 7.94c-3.05,-2.99 -6.62,-4.49 -10.7,-4.49 -2.59,0 -4.65,0.6 -6.17,1.81 -1.53,1.21 -2.29,2.82 -2.29,4.83 0,1.04 0.2,2 0.6,2.89 0.4,0.89 0.85,1.63 1.34,2.2 0.49,0.58 1.3,1.21 2.42,1.9 1.12,0.69 2.01,1.19 2.67,1.51 0.66,0.32 1.77,0.82 3.32,1.51 1.55,0.69 2.65,1.18 3.28,1.47 2.53,1.15 4.75,2.36 6.64,3.62 2.13,1.27 3.84,3.08 5.14,5.44 1.29,2.36 1.94,5.06 1.94,8.11 0,5.06 -1.93,9.18 -5.78,12.34 -3.86,3.16 -8.66,4.75 -14.41,4.75 -4.03,0 -8.02,-0.83 -11.99,-2.5 -3.8,-1.73 -6.38,-4.06 -7.76,-6.99l6.04 -7.25c1.61,2.13 3.7,3.8 6.26,5 2.56,1.21 5.11,1.81 7.64,1.81 2.65,0 4.77,-0.63 6.38,-1.9 1.61,-1.27 2.42,-2.99 2.42,-5.18zm61.78 -44.35l10.53 0 0 35.38c0,8.69 -2.27,15.19 -6.82,19.5 -4.6,4.31 -10.33,6.47 -17.17,6.47 -7.77,0 -14.01,-2.27 -18.72,-6.82 -4.66,-4.54 -6.99,-11.13 -6.99,-19.76l0 -34.77 10.61 0 0 32.53c0,5.98 1.28,10.63 3.84,13.94 2.56,3.31 6.31,4.96 11.26,4.96 8.97,0 13.46,-6.07 13.46,-18.21l0 -33.22zm78.09 0l0 60.4 -8.46 0 -33.22 -41.85 0 41.85 -9.92 0 0 -60.4 8.46 0 33.22 42.02 0 -42.02 9.92 0zm56.43 37.79l-14.58 0 0 -9.92 24.5 0 0 25.02c-2.59,2.59 -6.04,4.66 -10.35,6.21 -4.31,1.5 -8.4,2.24 -12.25,2.24 -9.78,0 -17.49,-2.82 -23.12,-8.46 -5.58,-5.58 -8.37,-13.14 -8.37,-22.69 0,-8.86 2.76,-16.25 8.28,-22.18 5.52,-5.98 12.8,-8.97 21.83,-8.97 7.71,0 14.18,2.04 19.42,6.13l-4.49 8.46c-1.5,-1.44 -3.48,-2.57 -5.95,-3.41 -2.47,-0.83 -5.03,-1.25 -7.68,-1.25 -6.04,0 -10.9,1.9 -14.58,5.69 -3.74,3.74 -5.61,8.92 -5.61,15.53 0,6.38 1.87,11.53 5.61,15.44 3.68,3.86 8.63,5.78 14.84,5.78 2.19,0 4.54,-0.4 7.07,-1.21 2.53,-0.86 4.34,-1.84 5.44,-2.93l0 -9.49z"></path> <g id="_1643238208000"> <path class="fil1" d="M327.36 61.1l-11.96 0c-0.96,0 -1.76,-0.28 -1.72,-0.81 0.03,-0.53 1.14,-2.54 1.14,-2.54 0.23,-0.53 0.77,-0.81 1.72,-0.81l9.68 0c0.95,0 1.34,0.34 1.72,0.81 0,0 1.19,2.13 1.15,2.54 -0.04,0.42 -0.77,0.81 -1.73,0.81zm24.97 -13.01c-1.77,-2.18 -3.56,-3.75 -7.96,-3.75l-44.92 0c-4.4,0 -6.9,1.31 -7.96,3.75 0,0 -5.13,9.34 -5.31,11.8 -0.18,2.45 3.56,3.74 7.96,3.74l55.54 0c4.39,0 7.79,-1.81 7.95,-3.74 0.19,-1.93 -5.3,-11.8 -5.3,-11.8z"></path> <path class="fil1" d="M343.21 12.52l-25.38 0 0 -2.82 25.38 0 0 2.82zm0 6.04l-25.38 0 0 -2.81 25.38 0 0 2.81zm0 6.04l-25.38 0 0 -2.81 25.38 0 0 2.81zm0 6.04l-25.38 0 -17.06 0 0 -2.82 17.06 0 25.38 0 0 2.82zm-42.71 -20.94l13.56 0 0 14.78 -13.56 0 0 -14.78zm43.86 -9.69l-44.92 0c-4.41,0 -7.97,3.56 -7.97,7.95l0 25.11c0,4.39 3.56,7.96 7.97,7.96l44.92 0c4.4,0 7.96,-3.57 7.96,-7.96l0 -25.11c0,-4.4 -3.56,-7.95 -7.96,-7.95z"></path> <path class="fil1" d="M327.36 393.9l-11.96 0c-0.96,0 -1.76,-0.28 -1.72,-0.81 0.03,-0.53 1.14,-2.54 1.14,-2.54 0.23,-0.53 0.77,-0.81 1.72,-0.81l9.68 0c0.95,0 1.34,0.34 1.72,0.81 0,0 1.19,2.13 1.15,2.54 -0.04,0.42 -0.77,0.81 -1.73,0.81zm24.97 -13.01c-1.77,-2.18 -3.56,-3.75 -7.96,-3.75l-44.92 0c-4.4,0 -6.9,1.31 -7.96,3.75 0,0 -5.13,9.34 -5.31,11.8 -0.18,2.45 3.56,3.74 7.96,3.74l55.54 0c4.39,0 7.79,-1.81 7.95,-3.74 0.19,-1.93 -5.3,-11.8 -5.3,-11.8z"></path> <path class="fil1" d="M343.21 345.32l-25.38 0 0 -2.82 25.38 0 0 2.82zm0 6.04l-25.38 0 0 -2.81 25.38 0 0 2.81zm0 6.04l-25.38 0 0 -2.81 25.38 0 0 2.81zm0 6.04l-25.38 0 -17.06 0 0 -2.81 17.06 0 25.38 0 0 2.81zm-42.71 -20.94l13.56 0 0 14.78 -13.56 0 0 -14.78zm43.86 -9.69l-44.92 0c-4.41,0 -7.97,3.56 -7.97,7.96l0 25.11c0,4.4 3.56,7.96 7.97,7.96l44.92 0c4.4,0 7.96,-3.57 7.96,-7.96l0 -25.11c0,-4.4 -3.56,-7.96 -7.96,-7.96z"></path> <path class="fil1" d="M343.21 648.62l-25.38 0 0 -2.82 25.38 0 0 2.82zm0 6.04l-25.38 0 0 -2.81 25.38 0 0 2.81zm0 6.05l-25.38 0 0 -2.81 25.38 0 0 2.81zm0 6.04l-25.38 0 -17.06 0 0 -2.81 17.06 0 25.38 0 0 2.81zm-42.71 -20.94l13.56 0 0 14.79 -13.56 0 0 -14.79zm43.86 -9.69l-44.92 0c-4.41,0 -7.97,3.56 -7.97,7.96l0 25.11c0,4.39 3.56,7.96 7.97,7.96l44.92 0c4.4,0 7.96,-3.57 7.96,-7.96l0 -25.11c0,-4.4 -3.56,-7.96 -7.96,-7.96z"></path> <path class="fil1" d="M41.18 224.61l-11.96 0c-0.96,0 -1.76,-0.28 -1.72,-0.81 0.03,-0.53 1.14,-2.54 1.14,-2.54 0.22,-0.53 0.77,-0.81 1.71,-0.81l9.69 0c0.95,0 1.35,0.34 1.72,0.81 0,0 1.19,2.13 1.15,2.54 -0.04,0.42 -0.77,0.81 -1.72,0.81zm24.97 -13.02c-1.77,-2.18 -3.56,-3.75 -7.96,-3.75l-44.92 0c-4.4,0 -6.9,1.31 -7.96,3.75 0,0 -5.13,9.34 -5.31,11.8 -0.18,2.45 3.56,3.74 7.96,3.74l55.54 0c4.39,0 7.79,-1.81 7.95,-3.74 0.19,-1.93 -5.3,-11.8 -5.3,-11.8z"></path> <path class="fil1" d="M57.04 176.03l-25.38 0 0 -2.82 25.38 0 0 2.82zm0 6.04l-25.38 0 0 -2.81 25.38 0 0 2.81zm0 6.04l-25.38 0 0 -2.81 25.38 0 0 2.81zm0 6.04l-25.38 0 -17.07 0 0 -2.81 17.07 0 25.38 0 0 2.81zm-42.71 -20.94l13.56 0 0 14.78 -13.56 0 0 -14.78zm43.86 -9.69l-44.92 0c-4.41,0 -7.97,3.56 -7.97,7.96l0 25.11c0,4.39 3.56,7.96 7.97,7.96l44.92 0c4.4,0 7.96,-3.57 7.96,-7.96l0 -25.11c0,-4.4 -3.56,-7.96 -7.96,-7.96z"></path> <path class="fil1" d="M608.78 224.61l-11.96 0c-0.96,0 -1.76,-0.28 -1.72,-0.81 0.03,-0.53 1.14,-2.54 1.14,-2.54 0.22,-0.53 0.77,-0.81 1.72,-0.81l9.69 0c0.95,0 1.34,0.34 1.72,0.81 0,0 1.19,2.13 1.15,2.54 -0.04,0.42 -0.77,0.81 -1.72,0.81zm24.97 -13.02c-1.77,-2.18 -3.56,-3.75 -7.96,-3.75l-44.92 0c-4.4,0 -6.91,1.31 -7.96,3.75 0,0 -5.13,9.34 -5.31,11.8 -0.18,2.45 3.56,3.74 7.96,3.74l55.54 0c4.39,0 7.79,-1.81 7.95,-3.74 0.19,-1.93 -5.3,-11.8 -5.3,-11.8z"></path> <path class="fil1" d="M624.64 176.03l-25.38 0 0 -2.82 25.38 0 0 2.82zm0 6.04l-25.38 0 0 -2.81 25.38 0 0 2.81zm0 6.04l-25.38 0 0 -2.81 25.38 0 0 2.81zm0 6.04l-25.38 0 -17.07 0 0 -2.81 17.07 0 25.38 0 0 2.81zm-42.71 -20.94l13.56 0 0 14.78 -13.56 0 0 -14.78zm43.86 -9.69l-44.92 0c-4.41,0 -7.97,3.56 -7.97,7.96l0 25.11c0,4.39 3.56,7.96 7.97,7.96l44.92 0c4.4,0 7.96,-3.57 7.96,-7.96l0 -25.11c0,-4.4 -3.56,-7.96 -7.96,-7.96z"></path> <path class="fil1" d="M41.18 524.71l-11.96 0c-0.96,0 -1.76,-0.28 -1.72,-0.81 0.03,-0.53 1.14,-2.54 1.14,-2.54 0.22,-0.53 0.77,-0.81 1.71,-0.81l9.69 0c0.95,0 1.35,0.34 1.72,0.81 0,0 1.19,2.13 1.15,2.54 -0.04,0.42 -0.77,0.81 -1.72,0.81zm24.97 -13.01c-1.77,-2.18 -3.56,-3.75 -7.96,-3.75l-44.92 0c-4.4,0 -6.9,1.31 -7.96,3.75 0,0 -5.13,9.34 -5.31,11.8 -0.18,2.45 3.56,3.74 7.96,3.74l55.54 0c4.39,0 7.79,-1.81 7.95,-3.74 0.19,-1.93 -5.3,-11.8 -5.3,-11.8z"></path> <path class="fil1" d="M57.04 476.13l-25.38 0 0 -2.83 25.38 0 0 2.83zm0 6.03l-25.38 0 0 -2.8 25.38 0 0 2.8zm0 6.05l-25.38 0 0 -2.81 25.38 0 0 2.81zm0 6.04l-25.38 0 -17.07 0 0 -2.81 17.07 0 25.38 0 0 2.81zm-42.71 -20.94l13.56 0 0 14.78 -13.56 0 0 -14.78zm43.86 -9.69l-44.92 0c-4.41,0 -7.97,3.56 -7.97,7.96l0 25.11c0,4.39 3.56,7.96 7.97,7.96l44.92 0c4.4,0 7.96,-3.57 7.96,-7.96l0 -25.11c0,-4.4 -3.56,-7.96 -7.96,-7.96z"></path> <path class="fil1" d="M609.28 524.71l-11.96 0c-0.96,0 -1.76,-0.28 -1.72,-0.81 0.03,-0.53 1.14,-2.54 1.14,-2.54 0.22,-0.53 0.77,-0.81 1.71,-0.81l9.69 0c0.95,0 1.34,0.34 1.72,0.81 0,0 1.19,2.13 1.15,2.54 -0.04,0.42 -0.77,0.81 -1.72,0.81zm24.97 -13.01c-1.77,-2.18 -3.56,-3.75 -7.96,-3.75l-44.92 0c-4.4,0 -6.9,1.31 -7.96,3.75 0,0 -5.13,9.34 -5.31,11.8 -0.18,2.45 3.56,3.74 7.96,3.74l55.54 0c4.39,0 7.79,-1.81 7.95,-3.74 0.19,-1.93 -5.3,-11.8 -5.3,-11.8z"></path> <path class="fil1" d="M625.13 476.13l-25.38 0 0 -2.83 25.38 0 0 2.83zm0 6.03l-25.38 0 0 -2.8 25.38 0 0 2.8zm0 6.05l-25.38 0 0 -2.81 25.38 0 0 2.81zm0 6.04l-25.38 0 -17.07 0 0 -2.81 17.07 0 25.38 0 0 2.81zm-42.71 -20.94l13.56 0 0 14.78 -13.56 0 0 -14.78zm43.86 -9.69l-44.92 0c-4.41,0 -7.97,3.56 -7.97,7.96l0 25.11c0,4.39 3.56,7.96 7.97,7.96l44.92 0c4.4,0 7.96,-3.57 7.96,-7.96l0 -25.11c0,-4.4 -3.56,-7.96 -7.96,-7.96z"></path> <polygon class="fil2" points="31.3,244.25 31.3,456.07 37.53,456.07 37.53,244.25 "></polygon> <polygon class="fil2" points="602.51,456.07 608.72,456.07 608.72,234.28 602.51,234.28 "></polygon> <polygon class="fil2" points="319.72,313.71 325.93,313.71 325.93,91.92 319.72,91.92 "></polygon> <polygon class="fil2" points="377.2,57.48 544.18,152.97 547.26,147.57 380.3,52.07 "></polygon> <polygon class="fil2" points="73.87,553.3 262.49,661.17 265.58,655.76 76.96,547.89 "></polygon> <polygon class="fil2" points="380.61,397.06 546.58,491.97 549.67,486.57 383.7,391.65 "></polygon> <polygon class="fil2" points="374.45,657.87 377.54,663.27 563.16,556.55 560.05,551.16 "></polygon> <polygon class="fil2" points="82.04,498.2 85.14,503.59 270.75,396.88 267.64,391.49 "></polygon> <polygon class="fil2" points="87.9,151.48 91,156.88 263.48,57.7 260.37,52.3 "></polygon> <path class="fil1" d="M289.39 583.09c0.3,4.87 -5.08,11.85 -13.88,17.26 -20.09,12.36 -46.84,13.29 -66.3,1.78 -17.94,-10.61 -20.74,-26.23 1.58,-39.96 8.61,-5.3 18.78,-8.1 26.33,-8.33l4.14 10.38c-5.57,0.95 -10.97,2.11 -17.08,5.87 -10,6.15 -11.54,15.07 0.78,22.35 11.07,6.55 26.89,6.3 38.55,-0.88 4.63,-2.85 8.29,-6.82 9.52,-11.35l16.36 2.86z"></path> <path class="fil1" d="M333.72 532.12c19.1,11.3 14.28,23.64 0.39,32.18 -16.67,10.25 -37.44,11.93 -55.74,1.1l-36.06 -21.33 14.81 -9.11 33.03 19.54c9.73,5.75 20.2,8.26 30.57,1.88 8.98,-5.52 5.33,-10.92 -4.67,-16.84l-33.83 -20.01 14.82 -9.11 36.68 21.7z"></path> <path class="fil1" d="M364.81 513.65l11.69 6.92c1.29,-0.47 2.76,-1.05 5.53,-2.76 5.74,-3.53 6.2,-6.72 2.01,-9.2 -3.93,-2.32 -8.68,-1.45 -13.5,1.51l-5.74 3.53zm-23.84 -14.1l11.34 6.71 4.91 -3.02c3.8,-2.33 5.34,-5.11 0.78,-7.8 -3.75,-2.22 -9.14,-1.16 -12.75,1.06 -1.85,1.14 -2.79,1.93 -4.28,3.06zm-28.02 1.29c3.43,-2.32 12.06,-8.06 19.1,-12.39 15.46,-9.51 28.63,-9.31 37.29,-4.19 6.52,3.85 8.3,8.03 6.52,12.79l0.18 0.11c6.42,-1.9 15.51,-2 23.54,2.75 13.12,7.76 8.73,17.9 -5.35,26.55 -6.2,3.81 -14.99,9 -19.15,11.13l-62.13 -36.75z"></path> <polygon class="fil1" points="369.89,465.62 408.32,441.99 421.71,449.91 398.1,464.43 409.08,470.92 429.91,458.11 443.3,466.03 422.47,478.84 433.8,485.55 458.34,470.46 471.73,478.38 432.38,502.58 "></polygon> <polygon class="fil1" points="191.56,206.61 191.56,150.44 142,178.27 "></polygon> <polygon class="fil1" points="137.63,184.45 137.63,416.64 191.56,386.36 191.56,215.3 "></polygon> <polygon class="fil1" points="436.42,376.67 485.44,404.68 485.44,237.9 436.42,265.42 "></polygon> <polygon class="fil1" points="381.8,121.89 381.8,169.76 436.42,201.15 436.42,257.2 485.44,229.16 506.93,241.44 549.19,217.71 "></polygon> <polygon class="fil1" points="514.19,245.59 549.78,265.92 549.78,225.61 "></polygon> <path class="fil1" d="M328.08 698.39l-11.96 0c-0.96,0 -1.76,-0.28 -1.72,-0.81 0.03,-0.53 1.14,-2.54 1.14,-2.54 0.22,-0.53 0.77,-0.81 1.71,-0.81l9.69 0c0.95,0 1.35,0.34 1.72,0.81 0,0 1.19,2.13 1.15,2.54 -0.04,0.42 -0.77,0.81 -1.72,0.81zm24.97 -13.01c-1.77,-2.18 -3.56,-3.75 -7.96,-3.75l-44.92 0c-4.4,0 -6.9,1.31 -7.96,3.75 0,0 -5.13,9.34 -5.31,11.8 -0.18,2.45 3.56,3.74 7.96,3.74l55.54 0c4.39,0 7.79,-1.81 7.95,-3.74 0.19,-1.93 -5.3,-11.8 -5.3,-11.8z"></path> </g> </g> </svg> 