<?xml version="1.0" encoding="UTF-8"?> <!-- Creator: CorelDRAW 2018 (64-Bit) --> <svg xmlns="http://www.w3.org/2000/svg" xmlns:xlink="http://www.w3.org/1999/xlink" xml:space="preserve" width="51.9839mm" height="61.102mm" style="shape-rendering:geometricPrecision; text-rendering:geometricPrecision; image-rendering:optimizeQuality; fill-rule:evenodd; clip-rule:evenodd" viewBox="0 0 4293.56 5046.66"> <defs> <style type="text/css"> <![CDATA[ .fil2 {fill:#D12023} .fil1 {fill:#3C3C3B;fill-rule:nonzero} .fil0 {fill:#D12023;fill-rule:nonzero} ]]> </style> </defs> <g id="Слой_x0020_1"> <metadata id="CorelCorpID_0Corel-Layer"></metadata> <path class="fil0" d="M1858.15 4357.02l-43.01 0 0 -32.52c-34.03,0 -61.42,-8.39 -82.16,-25.17 -20.52,-17.01 -30.77,-40.68 -30.77,-70.98 0,-30.07 10.25,-53.5 30.77,-70.28 20.75,-17.01 48.14,-25.64 82.16,-25.87l0 -25.53 43.01 0 0 25.53c33.8,0.23 61.07,8.97 81.82,26.22 20.75,17.25 31.12,40.55 31.12,69.92 0,29.84 -10.37,53.38 -31.12,70.63 -20.51,16.55 -47.78,25.06 -81.82,25.53l0 32.52zm67.48 -128.67c0,-17.25 -5.82,-30.94 -17.48,-41.08 -11.65,-10.14 -28.32,-15.33 -50,-15.56l0 113.29c44.99,-0.23 67.48,-19.11 67.48,-56.64zm-177.97 0c0,18.18 5.82,32.11 17.49,41.78 11.65,9.67 28.32,14.63 49.99,14.86l0 -113.29c-21.44,0.23 -38.05,5.42 -49.82,15.56 -11.77,10.14 -17.66,23.84 -17.66,41.08zm312.58 125.87l-43.01 0 0 -244.75 138.11 0 0 40.21 -95.11 0 0 204.54zm115.74 0l-43.36 0 103.5 -245.45 37.76 0 103.49 245.45 -45.8 0 -25.53 -62.59 -104.54 0 -25.52 62.59zm113.63 -102.8l-35.66 -87.06 -36.01 87.06 71.68 0zm256.98 -141.95l43.35 0 -83.21 187.76c-8.62,19.57 -18.24,33.97 -28.84,43.18 -10.61,9.21 -23.13,13.81 -37.59,13.81 -14.45,0 -25.65,-3.26 -33.57,-9.79l15.03 -36.37c6.06,3.96 12.12,5.95 18.19,5.95 10.95,0 19,-5.72 24.13,-17.14l3.49 -8.39 -108.04 -179.01 48.6 0 80.07 136.71 58.39 -136.71zm-1751.04 525.59l-27.26 22.73 -67.49 -79.03 0 -1.4 68.88 -79.02 26.22 23.42 -48.6 56.3 48.24 56.99zm-73.42 0l-27.27 22.73 -67.49 -79.03 0 -1.4 68.88 -79.02 26.22 23.42 -48.6 56.3 48.25 56.99zm256.64 33.22l-43.01 0 0 -32.52c-34.03,0 -61.42,-8.39 -82.16,-25.17 -20.52,-17.01 -30.77,-40.68 -30.77,-70.98 0,-30.07 10.25,-53.5 30.77,-70.28 20.75,-17.01 48.14,-25.64 82.16,-25.87l0 -25.53 43.01 0 0 25.53c33.8,0.23 61.07,8.97 81.82,26.22 20.75,17.25 31.12,40.55 31.12,69.92 0,29.84 -10.37,53.38 -31.12,70.63 -20.51,16.55 -47.78,25.06 -81.82,25.53l0 32.52zm67.48 -128.67c0,-17.25 -5.82,-30.94 -17.48,-41.08 -11.65,-10.14 -28.32,-15.33 -50,-15.56l0 113.29c44.99,-0.23 67.48,-19.11 67.48,-56.64zm-177.97 0c0,18.18 5.82,32.11 17.49,41.78 11.65,9.67 28.32,14.63 49.99,14.86l0 -113.29c-21.44,0.23 -38.05,5.42 -49.82,15.56 -11.77,10.14 -17.66,23.84 -17.66,41.08zm266.78 106.65c-15.62,-15.62 -23.42,-35.43 -23.42,-59.44 0,-24.01 7.81,-43.71 23.42,-59.09 15.62,-15.62 36.37,-23.43 62.24,-23.43 25.64,0 46.27,7.81 61.89,23.43 15.85,15.38 23.77,35.08 23.77,59.09 0,23.78 -7.92,43.59 -23.77,59.44 -15.86,15.38 -36.48,23.08 -61.89,23.08 -25.88,0 -46.62,-7.7 -62.24,-23.08zm31.82 -91.61c-8.16,8.39 -12.24,19.12 -12.24,32.17 0,13.06 4.02,23.84 12.06,32.34 8.04,8.51 18.25,12.76 30.6,12.76 12.59,0 22.9,-4.2 30.94,-12.59 8.04,-8.39 12.07,-19.23 12.07,-32.52 0,-13.05 -4.08,-23.78 -12.24,-32.17 -8.16,-8.39 -18.42,-12.59 -30.77,-12.59 -12.12,0 -22.27,4.2 -30.42,12.59zm300.35 110.84l-40.22 0 0 -60.14 -68.88 0 0 60.14 -40.22 0 0 -157.34 40.22 0 0 59.44 68.88 0 0 -59.44 40.22 0 0 157.34zm63.28 36.71l-37.42 0 0 -74.13 19.93 0c12.36,-16.54 19.7,-43.93 22.03,-82.16l2.45 -37.76 116.08 0 0 119.93 26.22 0 0 74.13 -37.76 0 0 -36.71 -111.54 0 0 36.71zm44.4 -156.29l-1.05 16.08c-2.79,30.3 -9.09,52.33 -18.88,66.08l58.39 0 0 -82.16 -38.46 0zm354.9 119.58l-40.22 0 0 -60.14 -68.88 0 0 60.14 -40.22 0 0 -157.34 40.22 0 0 59.44 68.88 0 0 -59.44 40.22 0 0 157.34zm58.39 -19.23c-15.62,-15.62 -23.42,-35.43 -23.42,-59.44 0,-24.01 7.81,-43.71 23.42,-59.09 15.62,-15.62 36.37,-23.43 62.24,-23.43 25.64,0 46.27,7.81 61.89,23.43 15.85,15.38 23.77,35.08 23.77,59.09 0,23.78 -7.92,43.59 -23.77,59.44 -15.86,15.38 -36.48,23.08 -61.89,23.08 -25.88,0 -46.62,-7.7 -62.24,-23.08zm31.82 -91.61c-8.16,8.39 -12.24,19.12 -12.24,32.17 0,13.06 4.02,23.84 12.06,32.34 8.04,8.51 18.25,12.76 30.6,12.76 12.59,0 22.9,-4.2 30.94,-12.59 8.04,-8.39 12.07,-19.23 12.07,-32.52 0,-13.05 -4.08,-23.78 -12.24,-32.17 -8.16,-8.39 -18.42,-12.59 -30.77,-12.59 -12.12,0 -22.27,4.2 -30.42,12.59zm151.04 110.84l0 -157.34c2.1,0 11.02,-0.29 26.75,-0.88 15.73,-0.58 27.45,-0.88 35.14,-0.88 47.56,0 71.33,13.76 71.33,41.26 0,8.85 -2.79,16.61 -8.39,23.25 -5.59,6.64 -12.59,10.55 -20.98,11.71l0 0.7c22.38,5.36 33.57,17.48 33.57,36.36 0,31.71 -24.94,47.56 -74.82,47.56 -7.23,0 -18.3,-0.36 -33.22,-1.05 -3.72,0 -7.98,-0.06 -12.76,-0.18 -4.77,-0.12 -8.39,-0.23 -10.84,-0.35 -2.45,-0.12 -4.37,-0.17 -5.77,-0.17zm65.39 -66.79l-25.17 0 0 34.97c13.98,0.93 22.84,1.4 26.57,1.4 8.85,0 15.79,-1.64 20.81,-4.9 5.01,-3.26 7.52,-7.69 7.52,-13.28 0,-12.12 -9.91,-18.19 -29.72,-18.19zm0 -59.79c-9.32,0 -17.72,0.24 -25.17,0.7l0 34.62 26.22 0c7.22,0 13.05,-1.63 17.48,-4.9 4.43,-3.26 6.65,-7.69 6.65,-13.28 0,-11.42 -8.39,-17.14 -25.17,-17.14zm166.77 126.58l-56.64 0 0 -157.34 40.22 0 0 43.01 19.57 0c23.55,0 40.97,4.9 52.27,14.69 11.31,9.79 16.96,23.08 16.96,39.86 0,17.95 -6.06,32.4 -18.18,43.35 -12.12,10.96 -30.19,16.44 -54.2,16.44zm134.97 0l-40.21 0 0 -157.34 40.21 0 0 157.34zm-135.31 -82.16l-16.08 0 0 47.2 15.73 0c20.28,0 30.42,-7.81 30.42,-23.43 0,-15.85 -10.03,-23.77 -30.07,-23.77zm283.91 -75.18l46.51 0 -52.45 75.18 55.94 82.16 -48.95 0 -36.71 -56.64 -38.11 56.64 -46.5 0 55.94 -80.07 -52.45 -77.28 49.3 0 33.22 52.1 34.26 -52.1zm270.64 227.27l-40.22 0 0 -66.08 -2.1 0c-27.04,0 -48.01,-7.7 -62.94,-23.08 -14.92,-15.16 -22.37,-34.97 -22.37,-59.44 0,-22.37 7.57,-41.73 22.73,-58.04 15.38,-16.32 36.13,-24.48 62.23,-24.48l2.44 0 0 -83.56 40.22 0 0 83.56 2.79 0c26.34,0 46.97,7.81 61.89,23.43 15.16,15.62 22.73,35.31 22.73,59.09 0,24.94 -7.4,44.93 -22.2,59.96 -14.8,15.04 -35.61,22.56 -62.42,22.56l-2.79 0 0 66.08zm2.79 -193.36l-2.79 0 0 89.86 1.4 0c13.75,0 24.36,-4.02 31.82,-12.06 7.46,-8.04 11.19,-19.06 11.19,-33.05 0,-13.05 -3.68,-23.78 -11.02,-32.17 -7.34,-8.39 -17.53,-12.59 -30.59,-12.59zm-87.41 44.76c0,13.75 3.79,24.71 11.36,32.86 7.57,8.16 18.24,12.24 31.99,12.24l1.05 0 0 -89.86 -2.79 0c-13.52,0 -23.84,4.08 -30.95,12.24 -7.11,8.16 -10.66,19 -10.66,32.52zm220.63 59.44c-15.62,-15.62 -23.42,-35.43 -23.42,-59.44 0,-24.01 7.81,-43.71 23.42,-59.09 15.62,-15.62 36.37,-23.43 62.24,-23.43 25.64,0 46.27,7.81 61.89,23.43 15.85,15.38 23.77,35.08 23.77,59.09 0,23.78 -7.92,43.59 -23.77,59.44 -15.86,15.38 -36.48,23.08 -61.89,23.08 -25.88,0 -46.62,-7.7 -62.24,-23.08zm31.82 -91.61c-8.16,8.39 -12.24,19.12 -12.24,32.17 0,13.06 4.02,23.84 12.06,32.34 8.04,8.51 18.25,12.76 30.6,12.76 12.59,0 22.9,-4.2 30.94,-12.59 8.04,-8.39 12.07,-19.23 12.07,-32.52 0,-13.05 -4.08,-23.78 -12.24,-32.17 -8.16,-8.39 -18.42,-12.59 -30.77,-12.59 -12.12,0 -22.27,4.2 -30.42,12.59zm191.25 180.77l-40.22 0 0 -227.27 40.22 0 0 15.03c5.12,-5.59 12.12,-10.13 20.98,-13.64 8.85,-3.49 18.06,-5.24 27.62,-5.24 21.68,0 38.93,7.47 51.75,22.38 13.06,15.15 19.58,34.38 19.58,57.69 0,24.47 -7.69,44.75 -23.08,60.84 -15.39,16.08 -35.43,24.13 -60.14,24.13 -15.86,0 -28.09,-2.57 -36.71,-7.7l0 73.78zm36.01 -193.36c-13.98,0 -25.99,5.72 -36.01,17.14l0 63.63c9.56,6.06 20.62,9.09 33.21,9.09 13.29,0 23.95,-4.31 32,-12.93 8.04,-8.63 12.06,-19.81 12.06,-33.57 0,-13.06 -3.67,-23.55 -11.01,-31.47 -7.34,-7.93 -17.43,-11.89 -30.25,-11.89zm159.09 123.43l-40.22 0 0 -157.34 36.37 0 53.5 65.74 50.7 -65.74 35.32 0 0 157.34 -40.21 0 0 -96.16 -46.51 58.74 -1.05 0 -47.9 -58.74 0 96.16zm-3158.7 381.19l-40.22 0 0 -227.27 40.22 0 0 15.03c5.12,-5.59 12.12,-10.13 20.98,-13.64 8.85,-3.49 18.06,-5.24 27.62,-5.24 21.68,0 38.93,7.47 51.75,22.38 13.06,15.15 19.58,34.38 19.58,57.69 0,24.47 -7.69,44.75 -23.08,60.84 -15.39,16.08 -35.43,24.13 -60.14,24.13 -15.86,0 -28.09,-2.57 -36.71,-7.7l0 73.78zm36.01 -193.36c-13.98,0 -25.99,5.72 -36.01,17.14l0 63.63c9.56,6.06 20.62,9.09 33.21,9.09 13.29,0 23.95,-4.31 32,-12.93 8.04,-8.63 12.06,-19.81 12.06,-33.57 0,-13.06 -3.67,-23.55 -11.01,-31.47 -7.34,-7.93 -17.43,-11.89 -30.25,-11.89zm131.12 6.65l-10.14 -29.37c17.02,-10.03 35.55,-15.04 55.59,-15.04 21.91,0 37.88,5.37 47.9,16.09 10.02,10.72 15.03,27.16 15.03,49.3l0 95.8 -34.96 0 0 -18.18c-9.32,13.52 -24.83,20.28 -46.5,20.28 -14.92,0 -26.87,-4.37 -35.85,-13.11 -8.97,-8.75 -13.45,-20.46 -13.45,-35.14 0,-16.31 5.24,-28.9 15.73,-37.76 10.49,-8.85 24.36,-13.29 41.6,-13.29 14.22,0 26.11,3.39 35.66,10.14 0.47,-13.98 -1.57,-24.24 -6.12,-30.77 -4.54,-6.52 -12.29,-9.8 -23.25,-9.8 -12.12,0 -25.87,3.62 -41.26,10.84zm40.21 84.96c13.52,0 23.66,-4.78 30.42,-14.34l0 -16.08c-6.52,-5.13 -15.73,-7.7 -27.62,-7.7 -7.46,0 -13.52,1.75 -18.18,5.24 -4.67,3.5 -7,8.28 -7,14.34 0,5.59 2.1,10.08 6.29,13.46 4.2,3.38 9.56,5.07 16.08,5.07zm165.03 35.66c-13.75,0 -27.16,-2.45 -40.21,-7.34 -13.05,-5.13 -22.49,-11.42 -28.32,-18.88l20.63 -25.17c4.66,5.36 11.3,9.9 19.93,13.64 8.62,3.72 16.78,5.59 24.47,5.59 10.26,0 18.18,-1.75 23.78,-5.24 5.59,-3.49 8.39,-8.16 8.39,-13.98 0,-5.36 -2.1,-9.68 -6.29,-12.94 -4.2,-3.26 -10.03,-4.89 -17.49,-4.89l-29.37 0 0 -26.93 27.62 0c6.29,0 11.36,-1.81 15.21,-5.42 3.84,-3.62 5.77,-8.22 5.77,-13.81 0,-11.42 -9.21,-17.14 -27.62,-17.14 -14.45,0 -28.78,6.06 -43.01,18.19l-16.78 -24.13c14.92,-17.72 37.42,-26.58 67.48,-26.58 20.29,0 35.84,3.91 46.68,11.72 10.84,7.81 16.25,18.82 16.25,33.04 0,7.69 -2.56,14.69 -7.69,20.98 -5.13,6.29 -12.24,10.96 -21.33,13.98l0 0.7c10.49,2.1 18.64,6.47 24.47,13.12 5.82,6.64 8.74,14.62 8.74,23.94 0,14.69 -6.47,26.28 -19.4,34.8 -12.94,8.51 -30.25,12.76 -51.93,12.76zm109.44 -3.85l0 -157.34c2.1,0 11.02,-0.29 26.75,-0.88 15.73,-0.58 27.45,-0.88 35.14,-0.88 47.56,0 71.33,13.76 71.33,41.26 0,8.85 -2.79,16.61 -8.39,23.25 -5.59,6.64 -12.59,10.55 -20.98,11.71l0 0.7c22.38,5.36 33.57,17.48 33.57,36.36 0,31.71 -24.94,47.56 -74.82,47.56 -7.23,0 -18.3,-0.36 -33.22,-1.05 -3.72,0 -7.98,-0.06 -12.76,-0.18 -4.77,-0.12 -8.39,-0.23 -10.84,-0.35 -2.45,-0.12 -4.37,-0.17 -5.77,-0.17zm65.39 -66.79l-25.17 0 0 34.97c13.98,0.93 22.84,1.4 26.57,1.4 8.85,0 15.79,-1.64 20.81,-4.9 5.01,-3.26 7.52,-7.69 7.52,-13.28 0,-12.12 -9.91,-18.19 -29.72,-18.19zm0 -59.79c-9.32,0 -17.72,0.24 -25.17,0.7l0 34.62 26.22 0c7.22,0 13.05,-1.63 17.48,-4.9 4.43,-3.26 6.65,-7.69 6.65,-13.28 0,-11.42 -8.39,-17.14 -25.17,-17.14zm223.77 26.93l-73.43 99.65 -40.22 0 0 -157.34 40.22 0 0 99.65 73.43 -99.65 40.21 0 0 157.34 -40.21 0 0 -99.65zm120.27 -17.49l-51.75 0 0 -40.21 143.35 0 0 40.21 -51.4 0 0 117.13 -40.21 0 0 -117.13zm233.91 17.49l-73.43 99.65 -40.22 0 0 -157.34 40.22 0 0 99.65 73.43 -99.65 40.21 0 0 157.34 -40.21 0 0 -99.65zm161.88 -57.69l51.4 0 0 157.34 -40.22 0 0 -47.2 -22.37 0 -32.52 47.2 -46.15 0 41.96 -55.94c-8.62,-3.03 -15.85,-8.57 -21.68,-16.61 -5.82,-8.04 -8.74,-17.66 -8.74,-28.85 0,-17.25 6.58,-30.88 19.76,-40.91 13.17,-10.02 32.69,-15.03 58.57,-15.03zm-35.32 58.74c0,6.06 2.56,11.19 7.69,15.39 5.13,4.2 11.08,6.29 17.83,6.29l20.98 0 0 -45.46 -17.83 0c-8.85,0 -15.85,2.28 -20.98,6.82 -5.13,4.54 -7.69,10.2 -7.69,16.96zm219.23 79.37c-15.62,-15.62 -23.42,-35.43 -23.42,-59.44 0,-24.01 7.81,-43.71 23.42,-59.09 15.62,-15.62 36.37,-23.43 62.24,-23.43 25.64,0 46.27,7.81 61.89,23.43 15.85,15.38 23.77,35.08 23.77,59.09 0,23.78 -7.92,43.59 -23.77,59.44 -15.86,15.38 -36.48,23.08 -61.89,23.08 -25.88,0 -46.62,-7.7 -62.24,-23.08zm31.82 -91.61c-8.16,8.39 -12.24,19.12 -12.24,32.17 0,13.06 4.02,23.84 12.06,32.34 8.04,8.51 18.25,12.76 30.6,12.76 12.59,0 22.9,-4.2 30.94,-12.59 8.04,-8.39 12.07,-19.23 12.07,-32.52 0,-13.05 -4.08,-23.78 -12.24,-32.17 -8.16,-8.39 -18.42,-12.59 -30.77,-12.59 -12.12,0 -22.27,4.2 -30.42,12.59zm269.22 -137.76l20.98 32.87c-5.59,6.99 -12.59,12.12 -20.98,15.38 -7.46,2.57 -16.78,5.13 -27.97,7.7 -10.95,2.1 -20.05,5.01 -27.27,8.74 -19.34,9.09 -30.65,28.67 -33.91,58.74l0.7 0c4.89,-8.62 12.46,-15.68 22.72,-21.15 10.26,-5.48 21.09,-8.22 32.52,-8.22 21.68,0 39.04,6.99 52.1,20.98 13.05,14.21 19.57,32.98 19.57,56.29 0,22.61 -7.69,41.84 -23.07,57.69 -15.39,15.62 -35.2,23.43 -59.44,23.43 -26.34,0 -47.2,-8.98 -62.59,-26.93 -15.15,-17.95 -22.72,-42.19 -22.72,-72.72 0,-67.13 19.81,-109.32 59.43,-126.58 8.62,-3.72 18.19,-6.52 28.68,-8.39 11.89,-2.33 20.62,-4.6 26.22,-6.81 5.59,-2.21 10.61,-5.89 15.03,-11.02zm-86.36 161.19c0.23,15.85 4.08,28.78 11.54,38.81 7.46,10.02 17.36,15.03 29.72,15.03 12.12,0 21.91,-3.96 29.37,-11.89 7.46,-7.93 11.19,-17.95 11.19,-30.07 0,-12.36 -3.44,-22.37 -10.32,-30.07 -6.88,-7.69 -16.38,-11.54 -28.49,-11.54 -10.49,0 -19.58,2.74 -27.27,8.22 -7.7,5.48 -12.94,12.65 -15.73,21.51zm199.99 157.34l-40.22 0 0 -227.27 40.22 0 0 15.03c5.12,-5.59 12.12,-10.13 20.98,-13.64 8.85,-3.49 18.06,-5.24 27.62,-5.24 21.68,0 38.93,7.47 51.75,22.38 13.06,15.15 19.58,34.38 19.58,57.69 0,24.47 -7.69,44.75 -23.08,60.84 -15.39,16.08 -35.43,24.13 -60.14,24.13 -15.86,0 -28.09,-2.57 -36.71,-7.7l0 73.78zm36.01 -193.36c-13.98,0 -25.99,5.72 -36.01,17.14l0 63.63c9.56,6.06 20.62,9.09 33.21,9.09 13.29,0 23.95,-4.31 32,-12.93 8.04,-8.63 12.06,-19.81 12.06,-33.57 0,-13.06 -3.67,-23.55 -11.01,-31.47 -7.34,-7.93 -17.43,-11.89 -30.25,-11.89zm131.12 6.65l-10.14 -29.37c17.02,-10.03 35.55,-15.04 55.59,-15.04 21.91,0 37.88,5.37 47.9,16.09 10.02,10.72 15.03,27.16 15.03,49.3l0 95.8 -34.96 0 0 -18.18c-9.32,13.52 -24.83,20.28 -46.5,20.28 -14.92,0 -26.87,-4.37 -35.85,-13.11 -8.97,-8.75 -13.45,-20.46 -13.45,-35.14 0,-16.31 5.24,-28.9 15.73,-37.76 10.49,-8.85 24.36,-13.29 41.6,-13.29 14.22,0 26.11,3.39 35.66,10.14 0.47,-13.98 -1.57,-24.24 -6.12,-30.77 -4.54,-6.52 -12.29,-9.8 -23.25,-9.8 -12.12,0 -25.87,3.62 -41.26,10.84zm40.21 84.96c13.52,0 23.66,-4.78 30.42,-14.34l0 -16.08c-6.52,-5.13 -15.73,-7.7 -27.62,-7.7 -7.46,0 -13.52,1.75 -18.18,5.24 -4.67,3.5 -7,8.28 -7,14.34 0,5.59 2.1,10.08 6.29,13.46 4.2,3.38 9.56,5.07 16.08,5.07zm165.03 35.66c-13.75,0 -27.16,-2.45 -40.21,-7.34 -13.05,-5.13 -22.49,-11.42 -28.32,-18.88l20.63 -25.17c4.66,5.36 11.3,9.9 19.93,13.64 8.62,3.72 16.78,5.59 24.47,5.59 10.26,0 18.18,-1.75 23.78,-5.24 5.59,-3.49 8.39,-8.16 8.39,-13.98 0,-5.36 -2.1,-9.68 -6.29,-12.94 -4.2,-3.26 -10.03,-4.89 -17.49,-4.89l-29.37 0 0 -26.93 27.62 0c6.29,0 11.36,-1.81 15.21,-5.42 3.84,-3.62 5.77,-8.22 5.77,-13.81 0,-11.42 -9.21,-17.14 -27.62,-17.14 -14.45,0 -28.78,6.06 -43.01,18.19l-16.78 -24.13c14.92,-17.72 37.42,-26.58 67.48,-26.58 20.29,0 35.84,3.91 46.68,11.72 10.84,7.81 16.25,18.82 16.25,33.04 0,7.69 -2.56,14.69 -7.69,20.98 -5.13,6.29 -12.24,10.96 -21.33,13.98l0 0.7c10.49,2.1 18.64,6.47 24.47,13.12 5.82,6.64 8.74,14.62 8.74,23.94 0,14.69 -6.47,26.28 -19.4,34.8 -12.94,8.51 -30.25,12.76 -51.93,12.76zm123.07 -23.08c-15.62,-15.62 -23.42,-35.43 -23.42,-59.44 0,-24.01 7.81,-43.71 23.42,-59.09 15.62,-15.62 36.37,-23.43 62.24,-23.43 25.64,0 46.27,7.81 61.89,23.43 15.85,15.38 23.77,35.08 23.77,59.09 0,23.78 -7.92,43.59 -23.77,59.44 -15.86,15.38 -36.48,23.08 -61.89,23.08 -25.88,0 -46.62,-7.7 -62.24,-23.08zm31.82 -91.61c-8.16,8.39 -12.24,19.12 -12.24,32.17 0,13.06 4.02,23.84 12.06,32.34 8.04,8.51 18.25,12.76 30.6,12.76 12.59,0 22.9,-4.2 30.94,-12.59 8.04,-8.39 12.07,-19.23 12.07,-32.52 0,-13.05 -4.08,-23.78 -12.24,-32.17 -8.16,-8.39 -18.42,-12.59 -30.77,-12.59 -12.12,0 -22.27,4.2 -30.42,12.59zm151.04 110.84l0 -157.34c2.1,0 11.02,-0.29 26.75,-0.88 15.73,-0.58 27.45,-0.88 35.14,-0.88 47.56,0 71.33,13.76 71.33,41.26 0,8.85 -2.79,16.61 -8.39,23.25 -5.59,6.64 -12.59,10.55 -20.98,11.71l0 0.7c22.38,5.36 33.57,17.48 33.57,36.36 0,31.71 -24.94,47.56 -74.82,47.56 -7.23,0 -18.3,-0.36 -33.22,-1.05 -3.72,0 -7.98,-0.06 -12.76,-0.18 -4.77,-0.12 -8.39,-0.23 -10.84,-0.35 -2.45,-0.12 -4.37,-0.17 -5.77,-0.17zm65.39 -66.79l-25.17 0 0 34.97c13.98,0.93 22.84,1.4 26.57,1.4 8.85,0 15.79,-1.64 20.81,-4.9 5.01,-3.26 7.52,-7.69 7.52,-13.28 0,-12.12 -9.91,-18.19 -29.72,-18.19zm0 -59.79c-9.32,0 -17.72,0.24 -25.17,0.7l0 34.62 26.22 0c7.22,0 13.05,-1.63 17.48,-4.9 4.43,-3.26 6.65,-7.69 6.65,-13.28 0,-11.42 -8.39,-17.14 -25.17,-17.14zm122.37 9.8l-10.14 -29.37c17.02,-10.03 35.55,-15.04 55.59,-15.04 21.91,0 37.88,5.37 47.9,16.09 10.02,10.72 15.03,27.16 15.03,49.3l0 95.8 -34.96 0 0 -18.18c-9.32,13.52 -24.83,20.28 -46.5,20.28 -14.92,0 -26.87,-4.37 -35.85,-13.11 -8.97,-8.75 -13.45,-20.46 -13.45,-35.14 0,-16.31 5.24,-28.9 15.73,-37.76 10.49,-8.85 24.36,-13.29 41.6,-13.29 14.22,0 26.11,3.39 35.66,10.14 0.47,-13.98 -1.57,-24.24 -6.12,-30.77 -4.54,-6.52 -12.29,-9.8 -23.25,-9.8 -12.12,0 -25.87,3.62 -41.26,10.84zm40.21 84.96c13.52,0 23.66,-4.78 30.42,-14.34l0 -16.08c-6.52,-5.13 -15.73,-7.7 -27.62,-7.7 -7.46,0 -13.52,1.75 -18.18,5.24 -4.67,3.5 -7,8.28 -7,14.34 0,5.59 2.1,10.08 6.29,13.46 4.2,3.38 9.56,5.07 16.08,5.07zm258.74 31.82l-40.22 0 0 -60.14 -68.88 0 0 60.14 -40.22 0 0 -157.34 40.22 0 0 59.44 68.88 0 0 -59.44 40.22 0 0 157.34zm158.39 -99.65l-73.43 99.65 -40.22 0 0 -157.34 40.22 0 0 99.65 73.43 -99.65 40.21 0 0 157.34 -40.21 0 0 -99.65zm161.88 -57.69l51.4 0 0 157.34 -40.22 0 0 -47.2 -22.37 0 -32.52 47.2 -46.15 0 41.96 -55.94c-8.62,-3.03 -15.85,-8.57 -21.68,-16.61 -5.82,-8.04 -8.74,-17.66 -8.74,-28.85 0,-17.25 6.58,-30.88 19.76,-40.91 13.17,-10.02 32.69,-15.03 58.57,-15.03zm-35.32 58.74c0,6.06 2.56,11.19 7.69,15.39 5.13,4.2 11.08,6.29 17.83,6.29l20.98 0 0 -45.46 -17.83 0c-8.85,0 -15.85,2.28 -20.98,6.82 -5.13,4.54 -7.69,10.2 -7.69,16.96zm292.3 10.49l0 1.4 -67.48 79.03 -27.27 -22.73 48.25 -56.99 -48.6 -56.3 26.22 -23.42 68.88 79.02zm-73.42 0l0 1.4 -67.49 79.03 -27.27 -22.73 48.25 -56.99 -48.6 -56.3 26.22 -23.42 68.88 79.02z"></path> <path class="fil1" d="M50.07 3949.15l0 41.31 -50.07 0 0 -164.3c8.14,0 17.53,-0.1 28.16,-0.31 10.64,-0.21 21.28,-0.31 31.92,-0.31 26.5,0 46.05,5.38 58.67,16.12 12.62,10.75 18.93,25.92 18.93,45.53 0,18.57 -6.36,33.58 -19.09,45.06 -12.93,11.68 -29.73,17.52 -50.38,17.52 -7.09,0 -13.15,-0.21 -18.15,-0.62zm15.02 -76.67c-0.83,0 -1.87,0.05 -3.13,0.16 -1.26,0.1 -3.08,0.21 -5.48,0.31 -2.4,0.1 -4.53,0.16 -6.42,0.16l0 28.48c5.85,0.83 11.37,1.25 16.58,1.25 11.89,0 17.84,-5.21 17.84,-15.64 0,-5.43 -1.51,-9.23 -4.53,-11.42 -3.03,-2.2 -7.99,-3.29 -14.87,-3.29zm114.54 21.28l-11.58 -34.11c15.02,-9.18 32.44,-13.77 52.26,-13.77 20.45,0 35.31,4.91 44.59,14.71 9.28,9.8 13.93,24.83 13.93,45.06l0 84.81 -40.68 0 0 -12.83c-6.89,9.8 -19.19,14.7 -36.93,14.7 -13.36,0 -24.1,-3.96 -32.24,-11.89 -8.14,-7.93 -12.2,-18.78 -12.2,-32.55 0,-14.81 4.64,-26.29 13.93,-34.43 9.28,-8.14 21.54,-12.2 36.77,-12.2 11.89,0 21.07,2.6 27.54,7.82 1.04,-16.06 -5.43,-24.1 -19.4,-24.1 -9.6,0 -21.6,2.92 -35.99,8.76zm37.55 59.46c8.35,0 14.3,-2.4 17.84,-7.19l0 -8.76c-4.39,-3.13 -10.32,-4.69 -17.84,-4.69 -3.96,0 -7.19,0.93 -9.7,2.82 -2.5,1.87 -3.76,4.48 -3.76,7.82 0,3.13 1.26,5.58 3.76,7.35 2.5,1.78 5.73,2.66 9.7,2.66zm146.46 41c-13.14,0 -25.98,-2.4 -38.49,-7.2 -12.1,-5.01 -20.76,-11.06 -25.98,-18.15l23.78 -28.79c3.76,4.38 9.28,8.24 16.58,11.58 7.31,3.34 14.08,5.01 20.34,5.01 13.56,0 20.34,-3.34 20.34,-10.01 0,-7.09 -5.01,-10.65 -15.02,-10.65l-26.91 0 0 -31.29 25.35 0c4.38,0 7.72,-1.04 10.01,-3.12 2.3,-2.09 3.44,-4.8 3.44,-8.14 0,-6.67 -6.05,-10.01 -18.15,-10.01 -11.27,0 -23.27,5.43 -35.99,16.27l-19.4 -28.16c13.98,-17.11 35.47,-25.66 64.46,-25.66 18.99,0 33.59,3.6 43.82,10.8 10.23,7.2 15.33,17.37 15.33,30.52 0,6.67 -2.35,12.78 -7.04,18.3 -4.69,5.53 -10.9,9.55 -18.62,12.05l0 0.63c19.19,4.38 28.79,15.44 28.79,33.17 0,13.14 -6.05,23.57 -18.15,31.29 -12.1,7.71 -28.27,11.58 -48.51,11.58zm143.33 58.83l-46.94 0 0 -203.41 46.94 0 0 10.64c9.6,-9.6 22.64,-14.4 39.12,-14.4 18.57,0 33.7,6.78 45.38,20.34 11.69,13.56 17.53,30.77 17.53,51.64 0,21.9 -6.99,40.16 -20.97,54.76 -14.18,14.4 -32.43,21.6 -54.76,21.6 -10.43,0 -19.19,-1.46 -26.29,-4.39l0 63.22zm24.41 -163.35c-8.76,0 -16.9,4.17 -24.41,12.51l0 42.87c6.05,3.55 13.36,5.32 21.9,5.32 9.6,0 17.01,-2.87 22.23,-8.61 5.21,-5.73 7.82,-13.41 7.82,-23 0,-8.75 -2.45,-15.8 -7.36,-21.12 -4.9,-5.32 -11.63,-7.98 -20.18,-7.98zm119.23 4.06l-11.58 -34.11c15.02,-9.18 32.44,-13.77 52.26,-13.77 20.45,0 35.31,4.91 44.59,14.71 9.28,9.8 13.93,24.83 13.93,45.06l0 84.81 -40.68 0 0 -12.83c-6.89,9.8 -19.19,14.7 -36.93,14.7 -13.36,0 -24.1,-3.96 -32.24,-11.89 -8.14,-7.93 -12.2,-18.78 -12.2,-32.55 0,-14.81 4.64,-26.29 13.93,-34.43 9.28,-8.14 21.54,-12.2 36.77,-12.2 11.89,0 21.07,2.6 27.54,7.82 1.04,-16.06 -5.43,-24.1 -19.4,-24.1 -9.6,0 -21.6,2.92 -35.99,8.76zm37.55 59.46c8.35,0 14.3,-2.4 17.84,-7.19l0 -8.76c-4.39,-3.13 -10.32,-4.69 -17.84,-4.69 -3.96,0 -7.19,0.93 -9.7,2.82 -2.5,1.87 -3.76,4.48 -3.76,7.82 0,3.13 1.26,5.58 3.76,7.35 2.5,1.78 5.73,2.66 9.7,2.66zm195.58 -185.57l24.41 38.8c-6.26,6.47 -12.73,11.06 -19.4,13.77 -3.34,1.26 -10.7,3.49 -22.06,6.73 -11.37,3.24 -19.25,6 -23.63,8.29 -13.97,7.51 -22.12,19.92 -24.41,37.24l0.62 0c4.39,-5.63 10.54,-10.32 18.47,-14.08 7.93,-3.76 16.16,-5.63 24.72,-5.63 18.57,0 33.59,6.26 45.06,18.77 11.47,12.1 17.21,28.68 17.21,49.76 0,20.65 -6.89,37.97 -20.66,51.94 -13.77,13.97 -31.91,20.97 -54.45,20.97 -24.41,0 -43.5,-8.14 -57.27,-24.41 -13.77,-16.27 -20.66,-38.28 -20.66,-66.03 0,-59.46 18.05,-97.22 54.14,-113.29 7.09,-3.13 14.92,-5.63 23.47,-7.51 9.6,-2.3 16.74,-4.44 21.43,-6.42 4.69,-1.98 9.03,-4.96 12.98,-8.92zm-61.96 146.14c0.21,10.43 2.72,19.15 7.52,26.13 4.8,6.99 11.16,10.48 19.09,10.48 10.85,0.83 18.57,-3.44 23.16,-12.83 4.59,-9.39 4.74,-18.78 0.47,-28.16 -4.28,-9.39 -11.53,-13.67 -21.76,-12.84 -13.77,0 -23.26,5.74 -28.48,17.21zm143.02 59.46c-14.19,-14.19 -21.28,-31.92 -21.28,-53.2 0,-21.28 7.09,-39.02 21.28,-53.2 14.19,-13.98 33.17,-20.97 56.96,-20.97 23.78,0 42.66,6.99 56.64,20.97 14.4,13.97 21.59,31.71 21.59,53.2 0,21.49 -7.19,39.22 -21.59,53.2 -13.98,13.97 -32.86,20.97 -56.64,20.97 -23.79,0 -42.77,-7 -56.96,-20.97zm28.79 -53.2c0,8.76 2.66,16.01 7.98,21.75 5.32,5.74 12.05,8.61 20.19,8.61 8.34,0 15.12,-2.76 20.34,-8.29 5.21,-5.53 7.82,-12.88 7.82,-22.06 0,-8.76 -2.66,-16.01 -7.98,-21.75 -5.32,-5.74 -12.05,-8.61 -20.19,-8.61 -8.14,0 -14.87,2.76 -20.19,8.29 -5.32,5.53 -7.98,12.88 -7.98,22.06zm157.09 -23.47l-40.68 0 0 -46.94 128.3 0 0 46.94 -40.68 0 0 93.88 -46.95 0 0 -93.88zm158.04 93.88l-46.94 0 0 -140.82 46.94 0 0 65.09 38.18 -65.09 58.83 0 -45.69 66.97 52.57 73.86 -60.71 0 -43.19 -65.72 0 65.72zm134.88 -96.7l-11.58 -34.11c15.02,-9.18 32.44,-13.77 52.26,-13.77 20.45,0 35.31,4.91 44.59,14.71 9.28,9.8 13.93,24.83 13.93,45.06l0 84.81 -40.68 0 0 -12.83c-6.89,9.8 -19.19,14.7 -36.93,14.7 -13.36,0 -24.1,-3.96 -32.24,-11.89 -8.14,-7.93 -12.2,-18.78 -12.2,-32.55 0,-14.81 4.64,-26.29 13.93,-34.43 9.28,-8.14 21.54,-12.2 36.77,-12.2 11.89,0 21.07,2.6 27.54,7.82 1.04,-16.06 -5.43,-24.1 -19.4,-24.1 -9.6,0 -21.6,2.92 -35.99,8.76zm37.55 59.46c8.35,0 14.3,-2.4 17.84,-7.19l0 -8.76c-4.39,-3.13 -10.32,-4.69 -17.84,-4.69 -3.96,0 -7.19,0.93 -9.7,2.82 -2.5,1.87 -3.76,4.48 -3.76,7.82 0,3.13 1.26,5.58 3.76,7.35 2.5,1.78 5.73,2.66 9.7,2.66zm520.73 102.33l-36.3 -13.45 102.33 -274.45 35.99 13.45 -102.02 274.45zm688.79 -65.09l-46.94 0 0 -97.02 -43.82 0 0 97.02 -46.94 0 0 -140.82 137.69 0 0 140.82zm81.36 62.59l-46.94 0 0 -203.41 46.94 0 0 10.64c9.6,-9.6 22.64,-14.4 39.12,-14.4 18.57,0 33.7,6.78 45.38,20.34 11.69,13.56 17.53,30.77 17.53,51.64 0,21.9 -6.99,40.16 -20.97,54.76 -14.18,14.4 -32.43,21.6 -54.76,21.6 -10.43,0 -19.19,-1.46 -26.29,-4.39l0 63.22zm24.41 -163.35c-8.76,0 -16.9,4.17 -24.41,12.51l0 42.87c6.05,3.55 13.36,5.32 21.9,5.32 9.6,0 17.01,-2.87 22.23,-8.61 5.21,-5.73 7.82,-13.41 7.82,-23 0,-8.75 -2.45,-15.8 -7.36,-21.12 -4.9,-5.32 -11.63,-7.98 -20.18,-7.98zm201.22 27.22l-50.07 73.54 -46.94 0 0 -140.82 46.94 0 0 73.54 50.07 -73.54 46.95 0 0 140.82 -46.95 0 0 -73.54zm217.5 73.54l-46.95 0 0 -93.88 -24.72 0 -0.63 6.26c-2.92,25.46 -6.83,44.44 -11.74,56.96 -4.9,12.51 -11.73,21.28 -20.49,26.29 -8.76,5.01 -21.6,7.71 -38.5,8.14l-4.06 -45.69c8.14,0.83 14.81,-3.29 20.03,-12.36 5.21,-9.08 8.34,-23.31 9.38,-42.72l2.2 -43.81 115.47 0 0 140.82zm47.88 -17.21c-14.19,-14.19 -21.28,-31.92 -21.28,-53.2 0,-21.28 7.09,-39.02 21.28,-53.2 14.19,-13.98 33.17,-20.97 56.96,-20.97 23.78,0 42.66,6.99 56.64,20.97 14.4,13.97 21.59,31.71 21.59,53.2 0,21.49 -7.19,39.22 -21.59,53.2 -13.98,13.97 -32.86,20.97 -56.64,20.97 -23.79,0 -42.77,-7 -56.96,-20.97zm28.79 -53.2c0,8.76 2.66,16.01 7.98,21.75 5.32,5.74 12.05,8.61 20.19,8.61 8.34,0 15.12,-2.76 20.34,-8.29 5.21,-5.53 7.82,-12.88 7.82,-22.06 0,-8.76 -2.66,-16.01 -7.98,-21.75 -5.32,-5.74 -12.05,-8.61 -20.19,-8.61 -8.14,0 -14.87,2.76 -20.19,8.29 -5.32,5.53 -7.98,12.88 -7.98,22.06zm106.4 70.41l44.12 -72.29 -41.31 -68.54 56.64 0 32.23 62.59 0 -62.59 46.95 0 0 62.9 33.48 -62.9 55.39 0 -41.31 68.54 45.06 72.29 -55.39 0 -37.24 -66.65 0 66.65 -46.95 0 0 -66.34 -36.3 66.34 -55.39 0zm349.55 -45.38l12.83 33.17c-14.18,10.65 -32.44,15.97 -54.76,15.97 -22.95,0 -41.52,-6.78 -55.71,-20.34 -13.77,-13.56 -20.65,-31.5 -20.65,-53.83 0,-21.28 6.99,-38.91 20.96,-52.89 14.19,-14.19 32.65,-21.28 55.4,-21.28 18.57,0 34.63,6.26 48.19,18.78 13.36,12.1 20.03,27.95 20.03,47.57 0,9.38 -0.93,17.21 -2.82,23.46l-93.26 0c4.18,12.94 15.13,19.41 32.86,19.41 13.77,0 26.07,-3.35 36.93,-10.02zm-43.5 -60.09c-13.77,0 -23.05,6.47 -27.85,19.41l50.7 0c0,-5.43 -2.09,-10.02 -6.26,-13.78 -4.17,-3.75 -9.7,-5.63 -16.58,-5.63zm232.51 105.46l-46.94 0 0 -48.51 -45.38 0 0 48.51 -46.94 0 0 -140.82 46.94 0 0 48.51 45.38 0 0 -48.51 46.94 0 0 140.82zm131.43 -73.54l-50.07 73.54 -46.94 0 0 -140.82 46.94 0 0 73.54 50.07 -73.54 46.95 0 0 140.82 -46.95 0 0 -73.54zm178.38 0l-50.07 73.54 -46.94 0 0 -140.82 46.94 0 0 73.54 50.07 -73.54 46.95 0 0 140.82 -46.95 0 0 -73.54zm-77.61 -136.13l40.69 0c0,12.1 4.38,18.15 13.14,18.15 7.93,0 11.89,-6.05 11.89,-18.15l40.68 0c0,15.86 -4.64,28.69 -13.93,38.5 -9.28,9.8 -22.17,14.71 -38.65,14.71 -17.73,0 -31.14,-4.75 -40.22,-14.24 -9.08,-9.5 -13.61,-22.48 -13.61,-38.97zm-2424.36 45.38l53.51 0 -71.04 163.67 -38.8 0 -72.92 -163.67 56.64 0 37.56 95.76 35.05 -95.76zm122.04 118.92l0 45.38 -50.07 0 0 -164.3c7.72,0 16.69,-0.1 26.91,-0.31 10.23,-0.21 22.12,-0.31 35.68,-0.31 50.49,0 75.73,19.51 75.73,58.53 0,10.64 -2.19,20.86 -6.57,30.67 -1.25,2.92 -3.44,5.95 -6.57,9.08 -2.92,3.13 -4.8,5.01 -5.63,5.63l-5.01 3.44 40.69 57.58 -63.53 0 -28.16 -45.38 -13.45 0zm15.65 -72.6c-5.01,0 -10.23,0.21 -15.65,0.63l0 25.03 14.4 0c13.77,0 20.66,-4.48 20.66,-13.45 0,-3.13 -1.62,-5.95 -4.85,-8.45 -3.24,-2.51 -8.09,-3.76 -14.55,-3.76zm262.56 117.98l-50.38 0 76.36 -164.3 45.06 0 76.36 164.3 -53.51 0 -10.33 -23.47 -73.23 0 -10.32 23.47zm62.9 -70.41l-15.65 -35.99 -15.96 35.99 31.61 0zm157.09 25.03l0 45.38 -50.07 0 0 -164.3c7.72,0 16.69,-0.1 26.91,-0.31 10.23,-0.21 22.12,-0.31 35.68,-0.31 50.49,0 75.73,19.51 75.73,58.53 0,10.64 -2.19,20.86 -6.57,30.67 -1.25,2.92 -3.44,5.95 -6.57,9.08 -2.92,3.13 -4.8,5.01 -5.63,5.63l-5.01 3.44 40.69 57.58 -63.53 0 -28.16 -45.38 -13.45 0zm15.65 -72.6c-5.01,0 -10.23,0.21 -15.65,0.63l0 25.03 14.4 0c13.77,0 20.66,-4.48 20.66,-13.45 0,-3.13 -1.62,-5.95 -4.85,-8.45 -3.24,-2.51 -8.09,-3.76 -14.55,-3.76z"></path> <g id="_1644778765136"> <path class="fil0" d="M2187.13 325.26l-63.7 0c-5.09,0 -9.37,-1.47 -9.14,-4.31 0.17,-2.81 6.09,-13.52 6.09,-13.52 1.21,-2.81 4.09,-4.32 9.13,-4.32l51.56 0c5.05,0 7.15,1.83 9.14,4.32 0,0 6.31,11.32 6.1,13.52 -0.21,2.24 -4.09,4.31 -9.18,4.31zm132.94 -69.29c-9.4,-11.62 -18.95,-19.96 -42.38,-19.96l-239.13 0c-23.42,0 -36.75,6.96 -42.38,19.96 0,0 -27.31,49.71 -28.26,62.8 -0.94,13.06 18.94,19.89 42.37,19.89l295.67 0c23.37,0 41.45,-9.65 42.34,-19.89 0.99,-10.28 -28.23,-62.8 -28.23,-62.8z"></path> <path class="fil0" d="M2271.54 66.63l-135.1 0 0 -15.03 135.1 0 0 15.03zm0 32.13l-135.1 0 0 -14.94 135.1 0 0 14.94zm0 32.18l-135.1 0 0 -14.98 135.1 0 0 14.98zm0 32.15l-135.12 0 -90.85 0 0 -14.99 90.85 0 135.12 0 0 14.99zm-227.37 -111.49l72.19 0 0 78.7 -72.19 0 0 -78.7zm233.52 -51.6l-239.13 0c-23.48,0 -42.43,18.93 -42.43,42.35l0 133.7c0,23.39 18.95,42.39 42.43,42.39l239.13 0c23.43,0 42.38,-19 42.38,-42.39l0 -133.7c0,-23.42 -18.95,-42.35 -42.38,-42.35z"></path> <path class="fil0" d="M2187.13 2097.02l-63.7 0c-5.09,0 -9.37,-1.47 -9.14,-4.31 0.17,-2.81 6.09,-13.52 6.09,-13.52 1.21,-2.81 4.09,-4.32 9.13,-4.32l51.56 0c5.05,0 7.15,1.83 9.14,4.32 0,0 6.31,11.32 6.1,13.52 -0.21,2.24 -4.09,4.31 -9.18,4.31zm132.94 -69.29c-9.4,-11.62 -18.95,-19.96 -42.38,-19.96l-239.13 0c-23.42,0 -36.75,6.96 -42.38,19.96 0,0 -27.31,49.71 -28.26,62.8 -0.94,13.06 18.94,19.89 42.37,19.89l295.67 0c23.37,0 41.45,-9.65 42.34,-19.89 0.99,-10.28 -28.23,-62.8 -28.23,-62.8z"></path> <path class="fil0" d="M2271.54 1838.4l-135.1 0 0 -15.03 135.1 0 0 15.03zm0 32.13l-135.1 0 0 -14.94 135.1 0 0 14.94zm0 32.16l-135.1 0 0 -14.97 135.1 0 0 14.97zm0 32.16l-135.12 0 -90.85 0 0 -14.98 90.85 0 135.12 0 0 14.98zm-227.37 -111.49l72.19 0 0 78.7 -72.19 0 0 -78.7zm233.52 -51.61l-239.13 0c-23.48,0 -42.43,18.94 -42.43,42.35l0 133.69c0,23.4 18.95,42.4 42.43,42.4l239.13 0c23.43,0 42.38,-19 42.38,-42.4l0 -133.69c0,-23.42 -18.95,-42.35 -42.38,-42.35z"></path> <path class="fil0" d="M2271.54 3453.12l-135.1 0 0 -15.03 135.1 0 0 15.03zm0 32.13l-135.1 0 0 -14.94 135.1 0 0 14.94zm0 32.2l-135.1 0 0 -14.98 135.1 0 0 14.98zm0 32.13l-135.12 0 -90.85 0 0 -14.98 90.85 0 135.12 0 0 14.98zm-227.37 -111.48l72.19 0 0 78.71 -72.19 0 0 -78.71zm233.52 -51.61l-239.13 0c-23.48,0 -42.43,18.94 -42.43,42.36l0 133.7c0,23.38 18.95,42.39 42.43,42.39l239.13 0c23.43,0 42.38,-19 42.38,-42.39l0 -133.7c0,-23.42 -18.95,-42.36 -42.38,-42.36z"></path> <path class="fil0" d="M663.61 1195.78l-63.7 0c-5.09,0 -9.37,-1.48 -9.14,-4.32 0.17,-2.8 6.1,-13.52 6.1,-13.52 1.18,-2.8 4.08,-4.31 9.12,-4.31l51.56 0c5.05,0 7.16,1.82 9.13,4.31 0,0 6.32,11.32 6.1,13.52 -0.21,2.24 -4.08,4.32 -9.18,4.32zm132.94 -69.3c-9.4,-11.61 -18.95,-19.96 -42.38,-19.96l-239.13 0c-23.43,0 -36.75,6.96 -42.38,19.96 0,0 -27.31,49.72 -28.26,62.81 -0.94,13.05 18.94,19.89 42.37,19.89l295.67 0c23.38,0 41.45,-9.66 42.34,-19.89 0.99,-10.28 -28.23,-62.81 -28.23,-62.81z"></path> <path class="fil0" d="M748.01 937.15l-135.1 0 0 -15.03 135.1 0 0 15.03zm0 32.13l-135.1 0 0 -14.94 135.1 0 0 14.94zm0 32.18l-135.1 0 0 -14.97 135.1 0 0 14.97zm0 32.15l-135.12 0 -90.85 0 0 -14.98 90.85 0 135.12 0 0 14.98zm-227.37 -111.49l72.19 0 0 78.7 -72.19 0 0 -78.7zm233.51 -51.61l-239.12 0c-23.47,0 -42.43,18.94 -42.43,42.37l0 133.69c0,23.39 18.96,42.39 42.43,42.39l239.12 0c23.43,0 42.39,-19 42.39,-42.39l0 -133.69c0,-23.43 -18.96,-42.37 -42.39,-42.37z"></path> <path class="fil0" d="M3685.38 1195.78l-63.7 0c-5.09,0 -9.37,-1.48 -9.14,-4.32 0.17,-2.8 6.08,-13.52 6.08,-13.52 1.2,-2.8 4.09,-4.31 9.13,-4.31l51.56 0c5.05,0 7.15,1.82 9.13,4.31 0,0 6.32,11.32 6.1,13.52 -0.21,2.24 -4.08,4.32 -9.18,4.32zm132.94 -69.3c-9.4,-11.61 -18.95,-19.96 -42.38,-19.96l-239.13 0c-23.43,0 -36.76,6.96 -42.38,19.96 0,0 -27.31,49.72 -28.26,62.81 -0.94,13.05 18.94,19.89 42.37,19.89l295.67 0c23.38,0 41.45,-9.66 42.32,-19.89 1.01,-10.28 -28.21,-62.81 -28.21,-62.81z"></path> <path class="fil0" d="M3769.78 937.15l-135.1 0 0 -15.03 135.1 0 0 15.03zm0 32.13l-135.1 0 0 -14.94 135.1 0 0 14.94zm0 32.18l-135.1 0 0 -14.97 135.1 0 0 14.97zm0 32.15l-135.1 0 -90.86 0 0 -14.98 90.86 0 135.1 0 0 14.98zm-227.36 -111.49l72.19 0 0 78.7 -72.19 0 0 -78.7zm233.51 -51.61l-239.13 0c-23.47,0 -42.42,18.94 -42.42,42.37l0 133.69c0,23.39 18.95,42.39 42.42,42.39l239.13 0c23.43,0 42.39,-19 42.39,-42.39l0 -133.69c0,-23.43 -18.96,-42.37 -42.39,-42.37z"></path> <path class="fil0" d="M663.61 2793.44l-63.7 0c-5.09,0 -9.37,-1.47 -9.14,-4.31 0.17,-2.81 6.1,-13.53 6.1,-13.53 1.18,-2.8 4.08,-4.31 9.12,-4.31l51.56 0c5.05,0 7.16,1.83 9.13,4.31 0,0 6.32,11.32 6.1,13.53 -0.21,2.24 -4.08,4.31 -9.18,4.31zm132.94 -69.29c-9.4,-11.62 -18.95,-19.96 -42.38,-19.96l-239.13 0c-23.43,0 -36.75,6.96 -42.38,19.96 0,0 -27.31,49.71 -28.26,62.8 -0.94,13.06 18.94,19.89 42.37,19.89l295.67 0c23.38,0 41.45,-9.65 42.34,-19.89 0.99,-10.28 -28.23,-62.8 -28.23,-62.8z"></path> <path class="fil0" d="M748.01 2534.82l-135.1 0 0 -15.04 135.1 0 0 15.04zm0 32.12l-135.1 0 0 -14.93 135.1 0 0 14.93zm0 32.19l-135.1 0 0 -14.98 135.1 0 0 14.98zm0 32.14l-135.12 0 -90.85 0 0 -14.97 90.85 0 135.12 0 0 14.97zm-227.37 -111.49l72.19 0 0 78.7 -72.19 0 0 -78.7zm233.51 -51.6l-239.12 0c-23.47,0 -42.43,18.93 -42.43,42.36l0 133.7c0,23.39 18.96,42.39 42.43,42.39l239.12 0c23.43,0 42.39,-19 42.39,-42.39l0 -133.7c0,-23.43 -18.96,-42.36 -42.39,-42.36z"></path> <path class="fil0" d="M3688.02 2793.44l-63.7 0c-5.09,0 -9.38,-1.47 -9.14,-4.31 0.17,-2.81 6.09,-13.53 6.09,-13.53 1.19,-2.8 4.08,-4.31 9.13,-4.31l51.56 0c5.04,0 7.15,1.83 9.13,4.31 0,0 6.31,11.32 6.1,13.53 -0.21,2.24 -4.08,4.31 -9.18,4.31zm132.94 -69.29c-9.42,-11.62 -18.96,-19.96 -42.39,-19.96l-239.13 0c-23.42,0 -36.75,6.96 -42.37,19.96 0,0 -27.32,49.71 -28.27,62.8 -0.93,13.06 18.95,19.89 42.38,19.89l295.67 0c23.37,0 41.45,-9.65 42.32,-19.89 1,-10.28 -28.21,-62.8 -28.21,-62.8z"></path> <path class="fil0" d="M3772.42 2534.82l-135.1 0 0 -15.04 135.1 0 0 15.04zm0 32.12l-135.1 0 0 -14.93 135.1 0 0 14.93zm0 32.19l-135.1 0 0 -14.98 135.1 0 0 14.98zm0 32.14l-135.1 0 -90.86 0 0 -14.97 90.86 0 135.1 0 0 14.97zm-227.37 -111.49l72.19 0 0 78.7 -72.19 0 0 -78.7zm233.52 -51.6l-239.13 0c-23.47,0 -42.41,18.93 -42.41,42.36l0 133.7c0,23.39 18.94,42.39 42.41,42.39l239.13 0c23.43,0 42.4,-19 42.4,-42.39l0 -133.7c0,-23.43 -18.96,-42.36 -42.4,-42.36z"></path> <polygon class="fil2" points="611,1300.33 611,2428.01 644.14,2428.01 644.14,1300.33 "></polygon> <polygon class="fil2" points="3651.96,2428.01 3685.06,2428.01 3685.06,1247.23 3651.96,1247.23 "></polygon> <polygon class="fil2" points="2146.46,1670.14 2179.55,1670.14 2179.55,489.38 2146.46,489.38 "></polygon> <polygon class="fil2" points="2452.51,305.99 3341.44,814.38 3357.85,785.6 2468.98,277.21 "></polygon> <polygon class="fil2" points="837.62,2945.62 1841.82,3519.9 1858.27,3491.12 854.09,2916.84 "></polygon> <polygon class="fil2" points="2470.63,2113.85 3354.21,2619.14 3370.66,2590.37 2487.11,2085.07 "></polygon> <polygon class="fil2" points="2437.82,3502.33 2454.31,3531.07 3442.5,2962.94 3425.93,2934.22 "></polygon> <polygon class="fil2" points="881.12,2652.29 897.62,2681.01 1885.8,2112.89 1869.22,2084.18 "></polygon> <polygon class="fil2" points="912.31,806.44 928.8,835.18 1847.05,307.16 1830.52,278.45 "></polygon> <path class="fil0" d="M1984.98 3104.22c1.62,25.94 -27.07,63.09 -73.91,91.89 -106.97,65.78 -249.35,70.77 -352.94,9.49 -95.52,-56.49 -110.41,-139.66 8.39,-212.72 45.84,-28.2 100,-43.15 140.18,-44.35l22.03 55.26c-29.65,5.05 -58.38,11.25 -90.93,31.26 -53.24,32.73 -61.45,80.22 4.14,119.01 58.92,34.87 143.14,33.52 205.25,-4.67 24.65,-15.15 44.15,-36.32 50.69,-60.42l87.1 15.25z"></path> <path class="fil0" d="M2221.02 2832.9c101.71,60.16 76.01,125.84 2.07,171.32 -88.73,54.58 -199.3,63.52 -296.73,5.88l-191.98 -113.57 78.86 -48.51 175.83 104.02c51.8,30.63 107.52,43.97 162.73,10 47.81,-29.4 28.38,-58.15 -24.85,-89.64l-180.12 -106.55 78.89 -48.48 195.3 115.52z"></path> <path class="fil0" d="M2386.52 2734.57l62.25 36.83c6.85,-2.48 14.68,-5.58 29.46,-14.69 30.57,-18.79 33.02,-35.78 10.7,-48.99 -20.93,-12.37 -46.21,-7.72 -71.85,8.04l-30.56 18.8zm-126.9 -75.05l60.36 35.71 26.12 -16.08c20.22,-12.41 28.4,-27.2 4.16,-41.54 -19.95,-11.81 -48.65,-6.19 -67.88,5.63 -9.85,6.08 -14.83,10.27 -22.76,16.29zm-149.2 6.89c18.29,-12.37 64.19,-42.92 101.67,-65.96 82.32,-50.61 152.44,-49.58 198.52,-22.31 34.69,20.52 44.18,42.78 34.7,68.11l0.94 0.56c34.18,-10.13 82.57,-10.64 125.34,14.66 69.86,41.31 46.45,95.27 -28.48,141.36 -33.03,20.31 -79.81,47.94 -101.93,59.24l-330.76 -195.67z"></path> <polygon class="fil0" points="2413.59,2478.83 2618.18,2353.03 2689.45,2395.19 2563.75,2472.5 2622.21,2507.06 2733.11,2438.86 2804.39,2481.03 2693.48,2549.23 2753.84,2584.93 2884.46,2504.62 2955.75,2546.78 2746.24,2675.61 "></polygon> <polygon class="fil0" points="1464.18,1099.96 1464.18,800.91 1200.36,949.05 "></polygon> <polygon class="fil0" points="1177.09,981.96 1177.09,2218.1 1464.18,2056.9 1464.18,1146.18 "></polygon> <polygon class="fil0" points="2767.74,2005.31 3028.74,2154.42 3028.74,1266.53 2767.74,1413.01 "></polygon> <polygon class="fil0" points="2476.98,648.93 2476.98,903.79 2767.74,1070.89 2767.74,1369.24 3028.73,1220 3143.12,1285.35 3368.1,1159.05 "></polygon> <polygon class="fil0" points="3181.77,1307.44 3371.26,1415.7 3371.26,1201.09 "></polygon> <path class="fil0" d="M2190.97 3718.07l-63.7 0c-5.09,0 -9.37,-1.47 -9.14,-4.31 0.17,-2.81 6.1,-13.53 6.1,-13.53 1.18,-2.8 4.08,-4.31 9.12,-4.31l51.56 0c5.05,0 7.16,1.83 9.13,4.31 0,0 6.32,11.32 6.1,13.53 -0.21,2.24 -4.08,4.31 -9.18,4.31zm132.94 -69.29c-9.4,-11.62 -18.95,-19.96 -42.38,-19.96l-239.13 0c-23.43,0 -36.75,6.96 -42.38,19.96 0,0 -27.31,49.71 -28.26,62.8 -0.94,13.06 18.94,19.89 42.37,19.89l295.67 0c23.38,0 41.45,-9.65 42.34,-19.89 0.99,-10.28 -28.23,-62.8 -28.23,-62.8z"></path> </g> </g> </svg> 