<?xml version="1.0" encoding="UTF-8"?> <!-- Creator: CorelDRAW 2018 (64-Bit) --> <svg xmlns="http://www.w3.org/2000/svg" xmlns:xlink="http://www.w3.org/1999/xlink" xml:space="preserve" width="46.3873mm" height="56.6014mm" style="shape-rendering:geometricPrecision; text-rendering:geometricPrecision; image-rendering:optimizeQuality; fill-rule:evenodd; clip-rule:evenodd" viewBox="0 0 1335.37 1629.41"> <defs> <style type="text/css"> <![CDATA[ .fil2 {fill:#FFDD00} .fil1 {fill:#3C3C3B;fill-rule:nonzero} .fil0 {fill:#FFDD00;fill-rule:nonzero} ]]> </style> </defs> <g id="Слой_x0020_1"> <metadata id="CorelCorpID_0Corel-Layer"></metadata> <path class="fil0" d="M238.19 1612.59l-19.54 0 0 -38.75 -16.17 0 -25.14 38.75 -22.09 0 28.66 -42.75c-5.98,-2.99 -10.75,-7.15 -14.33,-12.49 -3.58,-5.34 -5.36,-11.53 -5.36,-18.57 0,-11.21 3.84,-20.44 11.53,-27.7 7.68,-7.36 19.21,-11.05 34.58,-11.05 0.21,0 4.91,0.11 14.09,0.32 4.7,0.11 9.29,0.16 13.77,0.16l0 112.08zm-37.47 -57.16l17.93 0 0 -36.51c-5.44,-0.32 -9.55,-0.48 -12.33,-0.48 -6.41,0 -11.56,1.76 -15.45,5.28 -3.9,3.52 -5.85,8.11 -5.85,13.77 0,4.7 1.47,8.62 4.4,11.77 2.94,3.15 6.7,5.2 11.29,6.16zm131.61 57.16l-18.41 0 0 -27.54 -31.54 0 0 27.54 -18.41 0 0 -72.05 18.41 0 0 27.22 31.54 0 0 -27.22 18.41 0 0 72.05zm28.98 16.81l-17.13 0 0 -33.94 9.13 0c5.66,-7.58 9.02,-20.12 10.09,-37.63l1.12 -17.29 53.16 0 0 54.92 12.01 0 0 33.94 -17.29 0 0 -16.81 -51.07 0 0 16.81zm20.34 -71.57l-0.48 7.36c-1.28,13.88 -4.16,23.96 -8.64,30.26l26.74 0 0 -37.63 -17.61 0zm116.72 34.58l5.28 12.97c-7.15,5.98 -16.33,8.97 -27.54,8.97 -11.53,0 -20.92,-3.47 -28.18,-10.41 -7.04,-6.83 -10.57,-15.96 -10.57,-27.38 0,-10.67 3.47,-19.64 10.41,-26.9 6.94,-7.26 16.17,-10.89 27.7,-10.89 9.5,0 17.56,3.15 24.18,9.45 6.62,6.3 9.93,14.3 9.93,24.01 0,4.27 -0.37,7.58 -1.12,9.93l-52.04 0c0.75,5.23 3.07,9.34 6.96,12.33 3.9,2.99 8.78,4.48 14.65,4.48 8.01,0 14.79,-2.19 20.34,-6.56zm-23.7 -38.27c-10.46,0 -16.76,5.23 -18.89,15.69l35.39 0c0.11,-4.59 -1.36,-8.35 -4.4,-11.29 -3.04,-2.94 -7.07,-4.4 -12.09,-4.4zm94.79 -13.61l23.22 0 -27.7 34.26 31.06 37.79 -24.02 0 -28.5 -36.34 25.94 -35.7zm-26.58 72.05l-18.41 0 0 -72.05 18.41 0 0 72.05zm114.32 -24.18l8.65 13.45c-6.09,8.33 -15.64,12.49 -28.66,12.49 -11.64,0 -21.08,-3.47 -28.34,-10.41 -7.15,-6.83 -10.73,-15.96 -10.73,-27.38 0,-10.78 3.52,-19.75 10.57,-26.9 7.04,-7.26 15.96,-10.89 26.74,-10.89 12.81,0 22.47,3.26 28.98,9.77l-8.64 14.57c-4.91,-4.7 -10.89,-7.04 -17.93,-7.04 -5.34,0 -10.04,1.92 -14.09,5.76 -3.95,3.63 -5.92,8.54 -5.92,14.73 0,6.19 2.03,11.21 6.09,15.05 4.27,3.74 9.18,5.6 14.73,5.6 7.15,0 13.34,-2.94 18.57,-8.81zm22.42 12.17c0,-3.1 1.2,-5.84 3.6,-8.25 2.4,-2.4 5.47,-3.6 9.21,-3.6 3.2,0 5.95,1.2 8.25,3.6 2.29,2.4 3.44,5.15 3.44,8.25 0,3.52 -1.15,6.54 -3.44,9.04 -2.3,2.51 -5.04,3.76 -8.25,3.76 -3.74,0 -6.81,-1.26 -9.21,-3.76 -2.4,-2.51 -3.6,-5.52 -3.6,-9.04zm140.1 12.01l-19.54 0 0 -93.67 -32.66 0 -2.24 21.14c-1.28,12.81 -2.93,23.75 -4.96,32.82 -2.03,9.07 -4.27,16.33 -6.72,21.77 -2.45,5.44 -5.36,9.61 -8.73,12.49 -3.36,2.88 -6.83,4.67 -10.41,5.36 -3.58,0.69 -7.71,0.72 -12.41,0.08l0.48 -19.53c2.35,0.32 4.27,0.21 5.77,-0.32 1.49,-0.53 3.26,-2.03 5.28,-4.48 2.24,-2.78 4.06,-6.46 5.44,-11.05 3.84,-11.42 6.67,-29.51 8.49,-54.28l1.6 -22.42 70.61 0 0 112.08zm77.81 -45.63l-33.62 45.63 -18.41 0 0 -72.05 18.41 0 0 45.63 33.62 -45.63 18.41 0 0 72.05 -18.41 0 0 -45.63zm100.07 45.63l-61.16 0 0 -72.05 18.41 0 0 54.92 29.62 0 0 -54.92 18.41 0 0 54.92 12.01 0 0 33.94 -17.29 0 0 -16.81zm85.98 -20.17l5.28 12.97c-7.15,5.98 -16.33,8.97 -27.54,8.97 -11.53,0 -20.92,-3.47 -28.18,-10.41 -7.04,-6.83 -10.57,-15.96 -10.57,-27.38 0,-10.67 3.47,-19.64 10.41,-26.9 6.94,-7.26 16.17,-10.89 27.7,-10.89 9.5,0 17.56,3.15 24.18,9.45 6.62,6.3 9.93,14.3 9.93,24.01 0,4.27 -0.37,7.58 -1.12,9.93l-52.04 0c0.75,5.23 3.07,9.34 6.96,12.33 3.9,2.99 8.78,4.48 14.65,4.48 8.01,0 14.79,-2.19 20.34,-6.56zm-23.7 -38.27c-10.46,0 -16.76,5.23 -18.89,15.69l35.39 0c0.11,-4.59 -1.36,-8.35 -4.4,-11.29 -3.04,-2.94 -7.07,-4.4 -12.09,-4.4zm101.83 12.81l-33.62 45.63 -18.41 0 0 -72.05 18.41 0 0 45.63 33.62 -45.63 18.41 0 0 72.05 -18.41 0 0 -45.63zm-41.31 -62.44l16.81 0c0,3.52 0.69,6.35 2.08,8.49 1.39,2.13 3.47,3.2 6.24,3.2 2.46,0 4.35,-1.09 5.68,-3.28 1.34,-2.19 2,-4.99 2,-8.41l16.81 0c0,7.47 -2.19,13.48 -6.57,18.01 -4.38,4.54 -10.35,6.81 -17.93,6.81 -8.33,0 -14.6,-2.22 -18.81,-6.65 -4.22,-4.43 -6.32,-10.48 -6.32,-18.17z"></path> <path class="fil1" d="M-0 1351.95c0,-8.51 3.02,-15.56 9.05,-21.16 5.96,-5.67 13.89,-8.51 23.78,-8.51 9.74,0 17.64,2.65 23.67,7.96 6.11,5.31 9.16,12.54 9.16,21.71 0,8.8 -3.09,15.96 -9.27,21.49 -6.18,5.53 -14.03,8.29 -23.56,8.29 -9.82,0 -17.74,-2.65 -23.78,-7.96 -6.03,-5.38 -9.05,-12.65 -9.05,-21.82zm18.54 0c0,3.78 1.38,6.98 4.14,9.6 2.76,2.54 6.15,3.82 10.14,3.82 4.73,0 8.29,-1.2 10.69,-3.6 2.4,-2.4 3.6,-5.67 3.6,-9.82 0,-4.07 -1.33,-7.31 -3.98,-9.71 -2.65,-2.4 -6.09,-3.6 -10.31,-3.6 -4.36,0 -7.84,1.18 -10.42,3.54 -2.58,2.36 -3.87,5.62 -3.87,9.76zm93.15 9.05l7.63 12c-4.29,5.82 -10.98,8.73 -20.07,8.73 -8.14,0 -14.69,-2.36 -19.63,-7.09 -4.87,-4.65 -7.31,-10.91 -7.31,-18.76 0,-7.34 2.4,-13.45 7.2,-18.32 4.95,-5.02 11.2,-7.53 18.76,-7.53 8.94,0 15.63,2.33 20.07,6.98l-7.53 12.87c-3.05,-3.05 -6.54,-4.58 -10.47,-4.58 -2.91,0 -5.4,0.98 -7.47,2.94 -2.07,1.96 -3.11,4.51 -3.11,7.63 0,3.13 1.09,5.67 3.27,7.63 2.33,1.96 4.83,2.94 7.53,2.94 4,0 7.71,-1.82 11.13,-5.45zm64.79 19.41l-16.36 0 0 -16.91 -15.82 0 0 16.91 -16.36 0 0 -49.08 16.36 0 0 16.91 15.82 0 0 -16.91 16.36 0 0 49.08zm16.69 -6c-4.95,-4.95 -7.42,-11.13 -7.42,-18.54 0,-7.42 2.47,-13.6 7.42,-18.54 4.95,-4.87 11.56,-7.31 19.85,-7.31 8.29,0 14.87,2.44 19.74,7.31 5.02,4.87 7.53,11.05 7.53,18.54 0,7.49 -2.51,13.67 -7.53,18.54 -4.87,4.87 -11.45,7.31 -19.74,7.31 -8.29,0 -14.91,-2.44 -19.85,-7.31zm10.04 -18.54c0,3.05 0.93,5.58 2.78,7.58 1.85,2 4.2,3 7.04,3 2.91,0 5.27,-0.96 7.09,-2.89 1.82,-1.93 2.73,-4.49 2.73,-7.69 0,-3.05 -0.93,-5.58 -2.78,-7.58 -1.85,-2 -4.2,-3 -7.04,-3 -2.84,0 -5.18,0.96 -7.04,2.89 -1.85,1.93 -2.78,4.49 -2.78,7.69zm46.36 24.54l0 -49.08c0.58,0 3.58,-0.11 9,-0.33 5.42,-0.22 9.43,-0.33 12.05,-0.33 15.49,0 23.23,4.36 23.23,13.09 0,2.76 -0.85,5.14 -2.56,7.15 -1.71,2 -3.73,3.18 -6.05,3.54l0 0.22c3.05,0.87 5.44,2.27 7.14,4.2 1.71,1.93 2.56,4.2 2.56,6.82 0,10.25 -8.07,15.38 -24.22,15.38 -2.18,0 -5.92,-0.11 -11.23,-0.33 -5.24,-0.22 -8.54,-0.33 -9.93,-0.33zm21.6 -19.63l-5.24 0 0 6.76c2.84,0.29 5.06,0.44 6.65,0.44 1.46,0 2.65,-0.35 3.6,-1.04 0.94,-0.69 1.42,-1.51 1.42,-2.46 0,-2.47 -2.14,-3.71 -6.43,-3.71zm0.98 -17.02c-2.84,0 -4.91,0.11 -6.22,0.33l0 6.87 5.46 0c3.42,0 5.12,-1.23 5.12,-3.71 0,-0.95 -0.4,-1.76 -1.2,-2.46 -0.8,-0.69 -1.85,-1.04 -3.16,-1.04zm53.44 36.65l-20.29 0 0 -49.08 16.36 0 0 11.45 5.13 0c7.85,0 13.56,1.71 17.13,5.13 3.49,3.35 5.23,7.53 5.23,12.54 0,5.46 -1.93,10.18 -5.78,14.18 -3.85,3.85 -9.78,5.78 -17.78,5.78zm44.61 0l-16.36 0 0 -49.08 16.36 0 0 49.08zm-44.83 -24.54l-3.71 0 0 10.36 3.6 0c4.29,0 6.43,-1.71 6.43,-5.12 0,-3.49 -2.11,-5.24 -6.33,-5.24zm126.64 24.54l-16.36 0 0 -33.81 -15.27 0 0 33.81 -16.36 0 0 -49.08 47.99 0 0 49.08zm28.36 21.82l-16.36 0 0 -70.9 16.36 0 0 3.71c3.35,-3.35 7.89,-5.02 13.63,-5.02 6.47,0 11.75,2.36 15.82,7.09 4.07,4.73 6.11,10.73 6.11,18 0,7.63 -2.44,14 -7.31,19.09 -4.94,5.02 -11.3,7.53 -19.09,7.53 -3.64,0 -6.69,-0.51 -9.16,-1.53l0 22.03zm8.51 -56.94c-3.05,0 -5.89,1.45 -8.51,4.36l0 14.94c2.11,1.24 4.65,1.85 7.63,1.85 3.35,0 5.93,-1 7.75,-3 1.82,-2 2.73,-4.67 2.73,-8.02 0,-3.05 -0.85,-5.51 -2.56,-7.36 -1.71,-1.85 -4.05,-2.78 -7.03,-2.78zm41.01 29.12c-4.95,-4.95 -7.42,-11.13 -7.42,-18.54 0,-7.42 2.47,-13.6 7.42,-18.54 4.95,-4.87 11.56,-7.31 19.85,-7.31 8.29,0 14.87,2.44 19.74,7.31 5.02,4.87 7.53,11.05 7.53,18.54 0,7.49 -2.51,13.67 -7.53,18.54 -4.87,4.87 -11.45,7.31 -19.74,7.31 -8.29,0 -14.91,-2.44 -19.85,-7.31zm10.04 -18.54c0,3.05 0.93,5.58 2.78,7.58 1.85,2 4.2,3 7.04,3 2.91,0 5.27,-0.96 7.09,-2.89 1.82,-1.93 2.73,-4.49 2.73,-7.69 0,-3.05 -0.93,-5.58 -2.78,-7.58 -1.85,-2 -4.2,-3 -7.04,-3 -2.84,0 -5.18,0.96 -7.04,2.89 -1.85,1.93 -2.78,4.49 -2.78,7.69zm62.72 24.54l-16.36 0 0 -49.08 34.9 0 0 15.27 -18.54 0 0 33.81zm41.99 21.82l-16.36 0 0 -70.9 16.36 0 0 3.71c3.35,-3.35 7.89,-5.02 13.63,-5.02 6.47,0 11.75,2.36 15.82,7.09 4.07,4.73 6.11,10.73 6.11,18 0,7.63 -2.44,14 -7.31,19.09 -4.94,5.02 -11.3,7.53 -19.09,7.53 -3.64,0 -6.69,-0.51 -9.16,-1.53l0 22.03zm8.51 -56.94c-3.05,0 -5.89,1.45 -8.51,4.36l0 14.94c2.11,1.24 4.65,1.85 7.63,1.85 3.35,0 5.93,-1 7.75,-3 1.82,-2 2.73,-4.67 2.73,-8.02 0,-3.05 -0.85,-5.51 -2.56,-7.36 -1.71,-1.85 -4.05,-2.78 -7.03,-2.78zm41.56 1.42l-4.04 -11.89c5.23,-3.2 11.31,-4.8 18.21,-4.8 7.13,0 12.31,1.71 15.54,5.13 3.24,3.42 4.85,8.65 4.85,15.71l0 29.56 -14.18 0 0 -4.47c-2.4,3.42 -6.69,5.12 -12.87,5.12 -4.65,0 -8.4,-1.38 -11.24,-4.14 -2.84,-2.76 -4.25,-6.55 -4.25,-11.35 0,-5.16 1.62,-9.16 4.85,-12 3.24,-2.84 7.51,-4.25 12.82,-4.25 4.14,0 7.34,0.91 9.6,2.73 0.36,-5.6 -1.89,-8.4 -6.76,-8.4 -3.35,0 -7.53,1.02 -12.54,3.05zm13.09 20.72c2.91,0 4.98,-0.83 6.22,-2.51l0 -3.05c-1.53,-1.09 -3.6,-1.64 -6.22,-1.64 -1.38,0 -2.51,0.33 -3.38,0.98 -0.87,0.65 -1.31,1.56 -1.31,2.73 0,1.09 0.44,1.94 1.31,2.56 0.87,0.62 2,0.93 3.38,0.93zm48.75 12.98l-16.36 0 0 -49.08 14.72 0 14.72 16.69 13.63 -16.69 14.29 0 0 49.08 -16.36 0 0 -24.1 -11.89 13.63 -0.33 0 -12.44 -13.63 0 24.1zm69.37 0l-16.36 0 0 -49.08 14.72 0 14.72 16.69 13.63 -16.69 14.29 0 0 49.08 -16.36 0 0 -24.1 -11.89 13.63 -0.33 0 -12.44 -13.63 0 24.1zm86.82 -25.63l-17.45 25.63 -16.36 0 0 -49.08 16.36 0 0 25.63 17.45 -25.63 16.36 0 0 49.08 -16.36 0 0 -25.63zm44.72 47.45l-16.36 0 0 -70.9 16.36 0 0 3.71c3.35,-3.35 7.89,-5.02 13.63,-5.02 6.47,0 11.75,2.36 15.82,7.09 4.07,4.73 6.11,10.73 6.11,18 0,7.63 -2.44,14 -7.31,19.09 -4.94,5.02 -11.3,7.53 -19.09,7.53 -3.64,0 -6.69,-0.51 -9.16,-1.53l0 22.03zm8.51 -56.94c-3.05,0 -5.89,1.45 -8.51,4.36l0 14.94c2.11,1.24 4.65,1.85 7.63,1.85 3.35,0 5.93,-1 7.75,-3 1.82,-2 2.73,-4.67 2.73,-8.02 0,-3.05 -0.85,-5.51 -2.56,-7.36 -1.71,-1.85 -4.05,-2.78 -7.03,-2.78zm41.01 29.12c-4.95,-4.95 -7.42,-11.13 -7.42,-18.54 0,-7.42 2.47,-13.6 7.42,-18.54 4.95,-4.87 11.56,-7.31 19.85,-7.31 8.29,0 14.87,2.44 19.74,7.31 5.02,4.87 7.53,11.05 7.53,18.54 0,7.49 -2.51,13.67 -7.53,18.54 -4.87,4.87 -11.45,7.31 -19.74,7.31 -8.29,0 -14.91,-2.44 -19.85,-7.31zm10.04 -18.54c0,3.05 0.93,5.58 2.78,7.58 1.85,2 4.2,3 7.04,3 2.91,0 5.27,-0.96 7.09,-2.89 1.82,-1.93 2.73,-4.49 2.73,-7.69 0,-3.05 -0.93,-5.58 -2.78,-7.58 -1.85,-2 -4.2,-3 -7.04,-3 -2.84,0 -5.18,0.96 -7.04,2.89 -1.85,1.93 -2.78,4.49 -2.78,7.69zm46.36 24.54l0 -49.08c0.58,0 3.58,-0.11 9,-0.33 5.42,-0.22 9.43,-0.33 12.05,-0.33 15.49,0 23.23,4.36 23.23,13.09 0,2.76 -0.85,5.14 -2.56,7.15 -1.71,2 -3.73,3.18 -6.05,3.54l0 0.22c3.05,0.87 5.44,2.27 7.14,4.2 1.71,1.93 2.56,4.2 2.56,6.82 0,10.25 -8.07,15.38 -24.22,15.38 -2.18,0 -5.92,-0.11 -11.23,-0.33 -5.24,-0.22 -8.54,-0.33 -9.93,-0.33zm21.6 -19.63l-5.24 0 0 6.76c2.84,0.29 5.06,0.44 6.65,0.44 1.46,0 2.65,-0.35 3.6,-1.04 0.94,-0.69 1.42,-1.51 1.42,-2.46 0,-2.47 -2.14,-3.71 -6.43,-3.71zm0.98 -17.02c-2.84,0 -4.91,0.11 -6.22,0.33l0 6.87 5.46 0c3.42,0 5.12,-1.23 5.12,-3.71 0,-0.95 -0.4,-1.76 -1.2,-2.46 -0.8,-0.69 -1.85,-1.04 -3.16,-1.04zm38.39 2.94l-4.04 -11.89c5.23,-3.2 11.31,-4.8 18.21,-4.8 7.13,0 12.31,1.71 15.54,5.13 3.24,3.42 4.85,8.65 4.85,15.71l0 29.56 -14.18 0 0 -4.47c-2.4,3.42 -6.69,5.12 -12.87,5.12 -4.65,0 -8.4,-1.38 -11.24,-4.14 -2.84,-2.76 -4.25,-6.55 -4.25,-11.35 0,-5.16 1.62,-9.16 4.85,-12 3.24,-2.84 7.51,-4.25 12.82,-4.25 4.14,0 7.34,0.91 9.6,2.73 0.36,-5.6 -1.89,-8.4 -6.76,-8.4 -3.35,0 -7.53,1.02 -12.54,3.05zm13.09 20.72c2.91,0 4.98,-0.83 6.22,-2.51l0 -3.05c-1.53,-1.09 -3.6,-1.64 -6.22,-1.64 -1.38,0 -2.51,0.33 -3.38,0.98 -0.87,0.65 -1.31,1.56 -1.31,2.73 0,1.09 0.44,1.94 1.31,2.56 0.87,0.62 2,0.93 3.38,0.93zm80.93 12.98l-16.36 0 0 -16.91 -15.82 0 0 16.91 -16.36 0 0 -49.08 16.36 0 0 16.91 15.82 0 0 -16.91 16.36 0 0 49.08zm45.81 -25.63l-17.45 25.63 -16.36 0 0 -49.08 16.36 0 0 25.63 17.45 -25.63 16.36 0 0 49.08 -16.36 0 0 -25.63zm54.32 -23.45l16.91 0 0 49.08 -16.36 0 0 -12.54 -3.93 0 -7.74 12.54 -18.65 0 11.67 -16.14c-5.46,-2.91 -8.18,-7.74 -8.18,-14.51 0,-5.67 2.22,-10.16 6.65,-13.47 4.44,-3.31 10.98,-4.96 19.63,-4.96zm-8.83 19.74c0,1.31 0.62,2.44 1.86,3.38 1.23,0.95 2.76,1.42 4.58,1.42l2.94 0 0 -10.36 -3.16 0c-1.74,0 -3.22,0.56 -4.42,1.69 -1.2,1.13 -1.8,2.42 -1.8,3.87zm-820.22 127.08l-16.36 0 0 -16.91 -15.82 0 0 16.91 -16.36 0 0 -49.08 16.36 0 0 16.91 15.82 0 0 -16.91 16.36 0 0 49.08zm17.24 -33.7l-4.04 -11.89c5.23,-3.2 11.31,-4.8 18.21,-4.8 7.13,0 12.31,1.71 15.54,5.13 3.24,3.42 4.85,8.65 4.85,15.71l0 29.56 -14.18 0 0 -4.47c-2.4,3.42 -6.69,5.12 -12.87,5.12 -4.65,0 -8.4,-1.38 -11.24,-4.14 -2.84,-2.76 -4.25,-6.55 -4.25,-11.35 0,-5.16 1.62,-9.16 4.85,-12 3.24,-2.84 7.51,-4.25 12.82,-4.25 4.14,0 7.34,0.91 9.6,2.73 0.36,-5.6 -1.89,-8.4 -6.76,-8.4 -3.35,0 -7.53,1.02 -12.54,3.05zm13.09 20.72c2.91,0 4.98,-0.83 6.22,-2.51l0 -3.05c-1.53,-1.09 -3.6,-1.64 -6.22,-1.64 -1.38,0 -2.51,0.33 -3.38,0.98 -0.87,0.65 -1.31,1.56 -1.31,2.73 0,1.09 0.44,1.94 1.31,2.56 0.87,0.62 2,0.93 3.38,0.93zm73.51 -1.42l0 14.4 -17.45 0 0 -57.26c2.84,0 6.11,-0.03 9.82,-0.11 3.71,-0.07 7.42,-0.11 11.13,-0.11 9.23,0 16.05,1.87 20.45,5.62 4.4,3.75 6.6,9.03 6.6,15.87 0,6.47 -2.22,11.7 -6.65,15.71 -4.51,4.07 -10.36,6.11 -17.56,6.11 -2.47,0 -4.58,-0.07 -6.33,-0.22zm5.24 -26.72c-0.29,0 -0.65,0.02 -1.09,0.05 -0.44,0.03 -1.07,0.07 -1.91,0.11 -0.84,0.03 -1.58,0.05 -2.24,0.05l0 9.93c2.04,0.29 3.96,0.43 5.78,0.43 4.15,0 6.22,-1.82 6.22,-5.45 0,-1.89 -0.53,-3.22 -1.58,-3.98 -1.06,-0.77 -2.78,-1.15 -5.18,-1.15zm66.32 -7.96l18.65 0 -19.09 49.08c-3.49,8.58 -6.62,14.36 -9.38,17.34 -2.76,2.98 -6.07,4.47 -9.93,4.47 -4.15,0 -8.03,-1.53 -11.67,-4.58l5.23 -12.32c1.67,1.16 3.24,1.74 4.69,1.74 2.04,0 3.6,-1.34 4.69,-4.04l1.09 -2.62 -21.92 -49.08 19.74 0 8.4 22.47c0.58,1.6 1.2,3.85 1.85,6.76 0.37,-3.27 0.77,-5.56 1.2,-6.87l6.44 -22.36zm23.56 30.43l0 -44.06 16.36 0 0 13.63 13.63 0 0 15.27 -13.63 0 0 14.4c0,3.64 1.06,5.45 3.16,5.45 2.33,0 4.76,-0.94 7.31,-2.84l4.91 12.54c-4.22,3.71 -9.71,5.56 -16.47,5.56 -5.31,0 -9.18,-1.66 -11.62,-4.96 -2.44,-3.31 -3.65,-8.31 -3.65,-15zm57.37 18.65l-16.36 0 0 -76.35 16.36 0 0 30.65c3.13,-2.84 7.16,-4.25 12.11,-4.25 6.32,0 11.23,1.76 14.72,5.29 3.49,3.53 5.24,8.82 5.24,15.87l0 28.8 -16.36 0 0 -26.72c0,-2.4 -0.73,-4.33 -2.18,-5.78 -1.45,-1.45 -3.34,-2.18 -5.67,-2.18 -3.13,0 -5.74,1.06 -7.85,3.16l0 31.52zm47.67 -6c-4.95,-4.95 -7.42,-11.13 -7.42,-18.54 0,-7.42 2.47,-13.6 7.42,-18.54 4.95,-4.87 11.56,-7.31 19.85,-7.31 8.29,0 14.87,2.44 19.74,7.31 5.02,4.87 7.53,11.05 7.53,18.54 0,7.49 -2.51,13.67 -7.53,18.54 -4.87,4.87 -11.45,7.31 -19.74,7.31 -8.29,0 -14.91,-2.44 -19.85,-7.31zm10.04 -18.54c0,3.05 0.93,5.58 2.78,7.58 1.85,2 4.2,3 7.04,3 2.91,0 5.27,-0.96 7.09,-2.89 1.82,-1.93 2.73,-4.49 2.73,-7.69 0,-3.05 -0.93,-5.58 -2.78,-7.58 -1.85,-2 -4.2,-3 -7.04,-3 -2.84,0 -5.18,0.96 -7.04,2.89 -1.85,1.93 -2.78,4.49 -2.78,7.69zm62.72 24.54l-16.36 0 0 -49.08 16.36 0 0 3.82c3.2,-3.13 7.24,-4.69 12.11,-4.69 13.31,0 19.96,6.91 19.96,20.72l0 29.23 -16.36 0 0 -26.4c0,-2.69 -0.71,-4.74 -2.13,-6.16 -1.42,-1.42 -3.4,-2.13 -5.94,-2.13 -2.84,0 -5.38,1.13 -7.63,3.38l0 31.3z"></path> <g id="_1643238224544"> <path class="fil0" d="M681.75 113.36l-22.2 0c-1.77,0 -3.27,-0.51 -3.19,-1.5 0.06,-0.98 2.12,-4.71 2.12,-4.71 0.42,-0.98 1.42,-1.51 3.18,-1.51l17.97 0c1.76,0 2.49,0.64 3.19,1.51 0,0 2.2,3.94 2.13,4.71 -0.07,0.78 -1.42,1.5 -3.2,1.5zm46.33 -24.15c-3.28,-4.05 -6.6,-6.96 -14.77,-6.96l-83.35 0c-8.16,0 -12.81,2.43 -14.77,6.96 0,0 -9.52,17.33 -9.85,21.89 -0.33,4.55 6.6,6.93 14.77,6.93l103.05 0c8.15,0 14.45,-3.36 14.76,-6.93 0.35,-3.58 -9.84,-21.89 -9.84,-21.89z"></path> <path class="fil0" d="M711.17 23.22l-47.09 0 0 -5.24 47.09 0 0 5.24zm0 11.2l-47.09 0 0 -5.21 47.09 0 0 5.21zm0 11.22l-47.09 0 0 -5.22 47.09 0 0 5.22zm0 11.21l-47.09 0 -31.66 0 0 -5.22 31.66 0 47.09 0 0 5.22zm-79.25 -38.86l25.16 0 0 27.43 -25.16 0 0 -27.43zm81.39 -17.98l-83.35 0c-8.18,0 -14.79,6.6 -14.79,14.76l0 46.6c0,8.15 6.6,14.77 14.79,14.77l83.35 0c8.17,0 14.77,-6.62 14.77,-14.77l0 -46.6c0,-8.16 -6.6,-14.76 -14.77,-14.76z"></path> <path class="fil0" d="M681.75 730.9l-22.2 0c-1.77,0 -3.27,-0.51 -3.19,-1.5 0.06,-0.98 2.12,-4.71 2.12,-4.71 0.42,-0.98 1.42,-1.51 3.18,-1.51l17.97 0c1.76,0 2.49,0.64 3.19,1.51 0,0 2.2,3.94 2.13,4.71 -0.07,0.78 -1.42,1.5 -3.2,1.5zm46.33 -24.15c-3.28,-4.05 -6.6,-6.96 -14.77,-6.96l-83.35 0c-8.16,0 -12.81,2.43 -14.77,6.96 0,0 -9.52,17.33 -9.85,21.89 -0.33,4.55 6.6,6.93 14.77,6.93l103.05 0c8.15,0 14.45,-3.36 14.76,-6.93 0.35,-3.58 -9.84,-21.89 -9.84,-21.89z"></path> <path class="fil0" d="M711.17 640.76l-47.09 0 0 -5.24 47.09 0 0 5.24zm0 11.2l-47.09 0 0 -5.21 47.09 0 0 5.21zm0 11.21l-47.09 0 0 -5.22 47.09 0 0 5.22zm0 11.21l-47.09 0 -31.66 0 0 -5.22 31.66 0 47.09 0 0 5.22zm-79.25 -38.86l25.16 0 0 27.43 -25.16 0 0 -27.43zm81.39 -17.99l-83.35 0c-8.18,0 -14.79,6.6 -14.79,14.76l0 46.6c0,8.16 6.6,14.78 14.79,14.78l83.35 0c8.17,0 14.77,-6.62 14.77,-14.78l0 -46.6c0,-8.16 -6.6,-14.76 -14.77,-14.76z"></path> <path class="fil0" d="M711.17 1203.55l-47.09 0 0 -5.24 47.09 0 0 5.24zm0 11.2l-47.09 0 0 -5.21 47.09 0 0 5.21zm0 11.22l-47.09 0 0 -5.22 47.09 0 0 5.22zm0 11.2l-47.09 0 -31.66 0 0 -5.22 31.66 0 47.09 0 0 5.22zm-79.25 -38.85l25.16 0 0 27.43 -25.16 0 0 -27.43zm81.39 -17.99l-83.35 0c-8.18,0 -14.79,6.6 -14.79,14.77l0 46.6c0,8.15 6.6,14.77 14.79,14.77l83.35 0c8.17,0 14.77,-6.62 14.77,-14.77l0 -46.6c0,-8.16 -6.6,-14.77 -14.77,-14.77z"></path> <path class="fil0" d="M150.74 416.78l-22.2 0c-1.77,0 -3.27,-0.52 -3.19,-1.51 0.06,-0.98 2.12,-4.71 2.12,-4.71 0.41,-0.98 1.42,-1.5 3.18,-1.5l17.97 0c1.76,0 2.5,0.63 3.18,1.5 0,0 2.2,3.94 2.13,4.71 -0.07,0.78 -1.42,1.51 -3.2,1.51zm46.33 -24.15c-3.28,-4.05 -6.6,-6.96 -14.77,-6.96l-83.35 0c-8.17,0 -12.81,2.43 -14.77,6.96 0,0 -9.52,17.33 -9.85,21.89 -0.33,4.55 6.6,6.93 14.77,6.93l103.05 0c8.15,0 14.45,-3.37 14.76,-6.93 0.35,-3.58 -9.84,-21.89 -9.84,-21.89z"></path> <path class="fil0" d="M180.16 326.64l-47.09 0 0 -5.24 47.09 0 0 5.24zm0 11.2l-47.09 0 0 -5.21 47.09 0 0 5.21zm0 11.22l-47.09 0 0 -5.22 47.09 0 0 5.22zm0 11.2l-47.09 0 -31.67 0 0 -5.22 31.67 0 47.09 0 0 5.22zm-79.25 -38.86l25.16 0 0 27.43 -25.16 0 0 -27.43zm81.39 -17.99l-83.34 0c-8.18,0 -14.79,6.6 -14.79,14.77l0 46.6c0,8.15 6.61,14.77 14.79,14.77l83.34 0c8.17,0 14.77,-6.62 14.77,-14.77l0 -46.6c0,-8.17 -6.61,-14.77 -14.77,-14.77z"></path> <path class="fil0" d="M1203.95 416.78l-22.2 0c-1.77,0 -3.27,-0.52 -3.19,-1.51 0.06,-0.98 2.12,-4.71 2.12,-4.71 0.42,-0.98 1.42,-1.5 3.18,-1.5l17.97 0c1.76,0 2.49,0.63 3.18,1.5 0,0 2.2,3.94 2.13,4.71 -0.07,0.78 -1.42,1.51 -3.2,1.51zm46.33 -24.15c-3.28,-4.05 -6.6,-6.96 -14.77,-6.96l-83.35 0c-8.17,0 -12.81,2.43 -14.77,6.96 0,0 -9.52,17.33 -9.85,21.89 -0.33,4.55 6.6,6.93 14.77,6.93l103.05 0c8.15,0 14.45,-3.37 14.75,-6.93 0.35,-3.58 -9.83,-21.89 -9.83,-21.89z"></path> <path class="fil0" d="M1233.36 326.64l-47.09 0 0 -5.24 47.09 0 0 5.24zm0 11.2l-47.09 0 0 -5.21 47.09 0 0 5.21zm0 11.22l-47.09 0 0 -5.22 47.09 0 0 5.22zm0 11.2l-47.09 0 -31.67 0 0 -5.22 31.67 0 47.09 0 0 5.22zm-79.24 -38.86l25.16 0 0 27.43 -25.16 0 0 -27.43zm81.39 -17.99l-83.35 0c-8.18,0 -14.79,6.6 -14.79,14.77l0 46.6c0,8.15 6.6,14.77 14.79,14.77l83.35 0c8.17,0 14.77,-6.62 14.77,-14.77l0 -46.6c0,-8.17 -6.61,-14.77 -14.77,-14.77z"></path> <path class="fil0" d="M150.74 973.63l-22.2 0c-1.77,0 -3.27,-0.51 -3.19,-1.5 0.06,-0.98 2.12,-4.72 2.12,-4.72 0.41,-0.98 1.42,-1.5 3.18,-1.5l17.97 0c1.76,0 2.5,0.64 3.18,1.5 0,0 2.2,3.94 2.13,4.72 -0.07,0.78 -1.42,1.5 -3.2,1.5zm46.33 -24.15c-3.28,-4.05 -6.6,-6.96 -14.77,-6.96l-83.35 0c-8.17,0 -12.81,2.43 -14.77,6.96 0,0 -9.52,17.33 -9.85,21.89 -0.33,4.55 6.6,6.93 14.77,6.93l103.05 0c8.15,0 14.45,-3.36 14.76,-6.93 0.35,-3.58 -9.84,-21.89 -9.84,-21.89z"></path> <path class="fil0" d="M180.16 883.49l-47.09 0 0 -5.24 47.09 0 0 5.24zm0 11.2l-47.09 0 0 -5.2 47.09 0 0 5.2zm0 11.22l-47.09 0 0 -5.22 47.09 0 0 5.22zm0 11.2l-47.09 0 -31.67 0 0 -5.22 31.67 0 47.09 0 0 5.22zm-79.25 -38.86l25.16 0 0 27.43 -25.16 0 0 -27.43zm81.39 -17.99l-83.34 0c-8.18,0 -14.79,6.6 -14.79,14.77l0 46.6c0,8.15 6.61,14.77 14.79,14.77l83.34 0c8.17,0 14.77,-6.62 14.77,-14.77l0 -46.6c0,-8.17 -6.61,-14.77 -14.77,-14.77z"></path> <path class="fil0" d="M1204.87 973.63l-22.2 0c-1.77,0 -3.27,-0.51 -3.19,-1.5 0.06,-0.98 2.12,-4.72 2.12,-4.72 0.41,-0.98 1.42,-1.5 3.18,-1.5l17.97 0c1.76,0 2.49,0.64 3.18,1.5 0,0 2.2,3.94 2.13,4.72 -0.07,0.78 -1.42,1.5 -3.2,1.5zm46.34 -24.15c-3.28,-4.05 -6.61,-6.96 -14.77,-6.96l-83.35 0c-8.16,0 -12.81,2.43 -14.77,6.96 0,0 -9.52,17.33 -9.85,21.89 -0.33,4.55 6.6,6.93 14.77,6.93l103.05 0c8.15,0 14.45,-3.36 14.75,-6.93 0.35,-3.58 -9.83,-21.89 -9.83,-21.89z"></path> <path class="fil0" d="M1234.29 883.49l-47.09 0 0 -5.24 47.09 0 0 5.24zm0 11.2l-47.09 0 0 -5.2 47.09 0 0 5.2zm0 11.22l-47.09 0 0 -5.22 47.09 0 0 5.22zm0 11.2l-47.09 0 -31.67 0 0 -5.22 31.67 0 47.09 0 0 5.22zm-79.25 -38.86l25.16 0 0 27.43 -25.16 0 0 -27.43zm81.39 -17.99l-83.35 0c-8.18,0 -14.78,6.6 -14.78,14.77l0 46.6c0,8.15 6.6,14.77 14.78,14.77l83.35 0c8.17,0 14.78,-6.62 14.78,-14.77l0 -46.6c0,-8.17 -6.61,-14.77 -14.78,-14.77z"></path> <polygon class="fil2" points="132.4,453.22 132.4,846.26 143.95,846.26 143.95,453.22 "></polygon> <polygon class="fil2" points="1192.3,846.26 1203.84,846.26 1203.84,434.71 1192.3,434.71 "></polygon> <polygon class="fil2" points="667.57,582.11 679.11,582.11 679.11,170.57 667.57,170.57 "></polygon> <polygon class="fil2" points="774.24,106.65 1084.07,283.84 1089.79,273.81 779.98,96.62 "></polygon> <polygon class="fil2" points="211.39,1026.67 561.39,1226.83 567.13,1216.8 217.13,1016.64 "></polygon> <polygon class="fil2" points="780.56,736.76 1088.52,912.88 1094.25,902.85 786.3,726.73 "></polygon> <polygon class="fil2" points="769.12,1220.7 774.87,1230.72 1119.29,1032.7 1113.52,1022.69 "></polygon> <polygon class="fil2" points="226.55,924.43 232.3,934.44 576.72,736.43 570.94,726.42 "></polygon> <polygon class="fil2" points="237.42,281.08 243.17,291.09 563.22,107.06 557.46,97.05 "></polygon> <path class="fil0" d="M611.29 1081.95c0.56,9.04 -9.43,21.99 -25.76,32.03 -37.28,22.93 -86.91,24.67 -123.01,3.31 -33.29,-19.69 -38.48,-48.68 2.92,-74.14 15.98,-9.83 34.85,-15.04 48.86,-15.46l7.68 19.26c-10.33,1.76 -20.35,3.92 -31.69,10.9 -18.56,11.41 -21.42,27.96 1.44,41.48 20.54,12.15 49.89,11.68 71.54,-1.63 8.59,-5.28 15.39,-12.66 17.67,-21.06l30.36 5.31z"></path> <path class="fil0" d="M693.56 987.38c35.45,20.97 26.49,43.86 0.72,59.71 -30.93,19.02 -69.46,22.14 -103.42,2.05l-66.91 -39.58 27.49 -16.91 61.29 36.25c18.06,10.68 37.48,15.33 56.72,3.49 16.67,-10.25 9.89,-20.27 -8.66,-31.24l-62.78 -37.14 27.49 -16.9 68.07 40.26z"></path> <path class="fil0" d="M751.24 953.11l21.7 12.84c2.39,-0.86 5.12,-1.95 10.27,-5.12 10.65,-6.55 11.51,-12.47 3.73,-17.07 -7.29,-4.31 -16.11,-2.69 -25.04,2.8l-10.65 6.55zm-44.23 -26.16l21.04 12.44 9.11 -5.6c7.05,-4.33 9.9,-9.48 1.45,-14.48 -6.96,-4.12 -16.96,-2.16 -23.66,1.96 -3.43,2.12 -5.17,3.58 -7.93,5.68zm-52 2.4c6.37,-4.31 22.37,-14.96 35.43,-22.99 28.69,-17.64 53.13,-17.28 69.19,-7.78 12.09,7.15 15.4,14.91 12.09,23.74l0.33 0.2c11.91,-3.53 28.78,-3.71 43.68,5.11 24.35,14.4 16.19,33.21 -9.93,49.27 -11.51,7.08 -27.82,16.71 -35.53,20.65l-115.28 -68.2z"></path> <polygon class="fil0" points="760.68,863.97 831.98,820.13 856.82,834.82 813.01,861.76 833.39,873.81 872.04,850.04 896.89,864.74 858.23,888.51 879.27,900.95 924.79,872.96 949.64,887.66 876.62,932.56 "></polygon> <polygon class="fil0" points="429.77,383.38 429.77,279.15 337.82,330.78 "></polygon> <polygon class="fil0" points="329.71,342.25 329.71,773.1 429.77,716.91 429.77,399.49 "></polygon> <polygon class="fil0" points="884.12,698.93 975.08,750.9 975.08,441.44 884.12,492.49 "></polygon> <polygon class="fil0" points="782.77,226.18 782.77,315.01 884.12,373.25 884.12,477.24 975.08,425.22 1014.95,448 1093.37,403.98 "></polygon> <polygon class="fil0" points="1028.42,455.7 1094.46,493.43 1094.46,418.63 "></polygon> <path class="fil0" d="M683.09 1295.9l-22.2 0c-1.77,0 -3.27,-0.51 -3.19,-1.5 0.06,-0.98 2.12,-4.72 2.12,-4.72 0.41,-0.98 1.42,-1.5 3.18,-1.5l17.97 0c1.76,0 2.5,0.64 3.18,1.5 0,0 2.2,3.94 2.13,4.72 -0.07,0.78 -1.42,1.5 -3.2,1.5zm46.33 -24.15c-3.28,-4.05 -6.6,-6.96 -14.77,-6.96l-83.35 0c-8.17,0 -12.81,2.43 -14.77,6.96 0,0 -9.52,17.33 -9.85,21.89 -0.33,4.55 6.6,6.93 14.77,6.93l103.05 0c8.15,0 14.45,-3.36 14.76,-6.93 0.35,-3.58 -9.84,-21.89 -9.84,-21.89z"></path> </g> </g> </svg> 