<?xml version="1.0" encoding="UTF-8"?> <!-- Creator: CorelDRAW 2018 (64-Bit) --> <svg xmlns="http://www.w3.org/2000/svg" xmlns:xlink="http://www.w3.org/1999/xlink" xml:space="preserve" width="41.2238mm" height="56.0758mm" style="shape-rendering:geometricPrecision; text-rendering:geometricPrecision; image-rendering:optimizeQuality; fill-rule:evenodd; clip-rule:evenodd" viewBox="0 0 1318.57 1793.62"> <defs> <style type="text/css"> <![CDATA[ .fil1 {fill:#00A2DF} .fil2 {fill:#3C3C3B;fill-rule:nonzero} .fil0 {fill:#00A2DF;fill-rule:nonzero} ]]> </style> </defs> <g id="Слой_x0020_1"> <metadata id="CorelCorpID_0Corel-Layer"></metadata> <g id="_1643238218048"> <path class="fil0" d="M674.91 125.96l-24.67 0c-1.97,0 -3.63,-0.57 -3.54,-1.67 0.07,-1.09 2.36,-5.24 2.36,-5.24 0.47,-1.09 1.58,-1.67 3.54,-1.67l19.97 0c1.95,0 2.77,0.71 3.54,1.67 0,0 2.44,4.38 2.36,5.24 -0.08,0.87 -1.58,1.67 -3.56,1.67zm51.48 -26.83c-3.64,-4.5 -7.34,-7.73 -16.41,-7.73l-92.6 0c-9.07,0 -14.23,2.7 -16.41,7.73 0,0 -10.58,19.25 -10.95,24.32 -0.36,5.06 7.33,7.7 16.41,7.7l114.5 0c9.05,0 16.05,-3.74 16.4,-7.7 0.38,-3.98 -10.93,-24.32 -10.93,-24.32z"></path> <path class="fil0" d="M707.6 25.8l-52.32 0 0 -5.82 52.32 0 0 5.82zm0 12.44l-52.32 0 0 -5.79 52.32 0 0 5.79zm0 12.46l-52.32 0 0 -5.8 52.32 0 0 5.8zm0 12.45l-52.33 0 -35.18 0 0 -5.81 35.18 0 52.33 0 0 5.81zm-88.05 -43.18l27.96 0 0 30.48 -27.96 0 0 -30.48zm90.43 -19.98l-92.6 0c-9.09,0 -16.43,7.33 -16.43,16.4l0 51.78c0,9.06 7.34,16.42 16.43,16.42l92.6 0c9.07,0 16.41,-7.36 16.41,-16.42l0 -51.78c0,-9.07 -7.34,-16.4 -16.41,-16.4z"></path> <path class="fil0" d="M674.91 812.1l-24.67 0c-1.97,0 -3.63,-0.57 -3.54,-1.67 0.07,-1.09 2.36,-5.24 2.36,-5.24 0.47,-1.09 1.58,-1.67 3.54,-1.67l19.97 0c1.95,0 2.77,0.71 3.54,1.67 0,0 2.44,4.38 2.36,5.24 -0.08,0.87 -1.58,1.67 -3.56,1.67zm51.48 -26.83c-3.64,-4.5 -7.34,-7.73 -16.41,-7.73l-92.6 0c-9.07,0 -14.23,2.7 -16.41,7.73 0,0 -10.58,19.25 -10.95,24.32 -0.36,5.06 7.33,7.7 16.41,7.7l114.5 0c9.05,0 16.05,-3.74 16.4,-7.7 0.38,-3.98 -10.93,-24.32 -10.93,-24.32z"></path> <path class="fil0" d="M707.6 711.95l-52.32 0 0 -5.82 52.32 0 0 5.82zm0 12.44l-52.32 0 0 -5.79 52.32 0 0 5.79zm0 12.46l-52.32 0 0 -5.8 52.32 0 0 5.8zm0 12.46l-52.33 0 -35.18 0 0 -5.8 35.18 0 52.33 0 0 5.8zm-88.05 -43.17l27.96 0 0 30.48 -27.96 0 0 -30.48zm90.43 -19.99l-92.6 0c-9.09,0 -16.43,7.33 -16.43,16.4l0 51.77c0,9.06 7.34,16.42 16.43,16.42l92.6 0c9.07,0 16.41,-7.36 16.41,-16.42l0 -51.77c0,-9.07 -7.34,-16.4 -16.41,-16.4z"></path> <path class="fil0" d="M707.6 1337.27l-52.32 0 0 -5.82 52.32 0 0 5.82zm0 12.44l-52.32 0 0 -5.79 52.32 0 0 5.79zm0 12.47l-52.32 0 0 -5.8 52.32 0 0 5.8zm0 12.44l-52.33 0 -35.18 0 0 -5.8 35.18 0 52.33 0 0 5.8zm-88.05 -43.17l27.96 0 0 30.48 -27.96 0 0 -30.48zm90.43 -19.99l-92.6 0c-9.09,0 -16.43,7.33 -16.43,16.41l0 51.78c0,9.06 7.34,16.42 16.43,16.42l92.6 0c9.07,0 16.41,-7.36 16.41,-16.42l0 -51.78c0,-9.07 -7.34,-16.41 -16.41,-16.41z"></path> <path class="fil0" d="M84.91 463.08l-24.67 0c-1.97,0 -3.63,-0.57 -3.54,-1.67 0.07,-1.08 2.36,-5.24 2.36,-5.24 0.46,-1.08 1.58,-1.67 3.53,-1.67l19.97 0c1.95,0 2.77,0.7 3.54,1.67 0,0 2.45,4.38 2.36,5.24 -0.08,0.87 -1.58,1.67 -3.55,1.67zm51.48 -26.84c-3.64,-4.5 -7.34,-7.73 -16.41,-7.73l-92.6 0c-9.07,0 -14.23,2.7 -16.41,7.73 0,0 -10.58,19.26 -10.95,24.33 -0.36,5.05 7.33,7.7 16.41,7.7l114.5 0c9.06,0 16.05,-3.74 16.4,-7.7 0.38,-3.98 -10.93,-24.33 -10.93,-24.33z"></path> <path class="fil0" d="M117.59 362.93l-52.32 0 0 -5.82 52.32 0 0 5.82zm0 12.44l-52.32 0 0 -5.79 52.32 0 0 5.79zm0 12.46l-52.32 0 0 -5.8 52.32 0 0 5.8zm0 12.45l-52.33 0 -35.18 0 0 -5.8 35.18 0 52.33 0 0 5.8zm-88.05 -43.17l27.96 0 0 30.48 -27.96 0 0 -30.48zm90.43 -19.99l-92.6 0c-9.09,0 -16.43,7.33 -16.43,16.41l0 51.77c0,9.06 7.34,16.42 16.43,16.42l92.6 0c9.07,0 16.42,-7.36 16.42,-16.42l0 -51.77c0,-9.07 -7.34,-16.41 -16.42,-16.41z"></path> <path class="fil0" d="M1255.13 463.08l-24.67 0c-1.97,0 -3.63,-0.57 -3.54,-1.67 0.07,-1.08 2.35,-5.24 2.35,-5.24 0.46,-1.08 1.58,-1.67 3.54,-1.67l19.97 0c1.95,0 2.77,0.7 3.54,1.67 0,0 2.45,4.38 2.36,5.24 -0.08,0.87 -1.58,1.67 -3.55,1.67zm51.48 -26.84c-3.64,-4.5 -7.34,-7.73 -16.41,-7.73l-92.6 0c-9.07,0 -14.24,2.7 -16.41,7.73 0,0 -10.58,19.26 -10.95,24.33 -0.36,5.05 7.33,7.7 16.41,7.7l114.5 0c9.06,0 16.05,-3.74 16.39,-7.7 0.39,-3.98 -10.93,-24.33 -10.93,-24.33z"></path> <path class="fil0" d="M1287.81 362.93l-52.32 0 0 -5.82 52.32 0 0 5.82zm0 12.44l-52.32 0 0 -5.79 52.32 0 0 5.79zm0 12.46l-52.32 0 0 -5.8 52.32 0 0 5.8zm0 12.45l-52.32 0 -35.19 0 0 -5.8 35.19 0 52.32 0 0 5.8zm-88.05 -43.17l27.96 0 0 30.48 -27.96 0 0 -30.48zm90.43 -19.99l-92.6 0c-9.09,0 -16.43,7.33 -16.43,16.41l0 51.77c0,9.06 7.34,16.42 16.43,16.42l92.6 0c9.07,0 16.42,-7.36 16.42,-16.42l0 -51.77c0,-9.07 -7.34,-16.41 -16.42,-16.41z"></path> <path class="fil0" d="M84.91 1081.8l-24.67 0c-1.97,0 -3.63,-0.57 -3.54,-1.67 0.07,-1.09 2.36,-5.24 2.36,-5.24 0.46,-1.08 1.58,-1.67 3.53,-1.67l19.97 0c1.95,0 2.77,0.71 3.54,1.67 0,0 2.45,4.38 2.36,5.24 -0.08,0.87 -1.58,1.67 -3.55,1.67zm51.48 -26.83c-3.64,-4.5 -7.34,-7.73 -16.41,-7.73l-92.6 0c-9.07,0 -14.23,2.7 -16.41,7.73 0,0 -10.58,19.25 -10.95,24.32 -0.36,5.06 7.33,7.7 16.41,7.7l114.5 0c9.06,0 16.05,-3.74 16.4,-7.7 0.38,-3.98 -10.93,-24.32 -10.93,-24.32z"></path> <path class="fil0" d="M117.59 981.64l-52.32 0 0 -5.82 52.32 0 0 5.82zm0 12.44l-52.32 0 0 -5.78 52.32 0 0 5.78zm0 12.46l-52.32 0 0 -5.8 52.32 0 0 5.8zm0 12.45l-52.33 0 -35.18 0 0 -5.8 35.18 0 52.33 0 0 5.8zm-88.05 -43.17l27.96 0 0 30.48 -27.96 0 0 -30.48zm90.43 -19.98l-92.6 0c-9.09,0 -16.43,7.33 -16.43,16.41l0 51.78c0,9.06 7.34,16.42 16.43,16.42l92.6 0c9.07,0 16.42,-7.36 16.42,-16.42l0 -51.78c0,-9.07 -7.34,-16.41 -16.42,-16.41z"></path> <path class="fil0" d="M1256.15 1081.8l-24.67 0c-1.97,0 -3.63,-0.57 -3.54,-1.67 0.07,-1.09 2.36,-5.24 2.36,-5.24 0.46,-1.08 1.58,-1.67 3.53,-1.67l19.97 0c1.95,0 2.77,0.71 3.54,1.67 0,0 2.44,4.38 2.36,5.24 -0.08,0.87 -1.58,1.67 -3.55,1.67zm51.48 -26.83c-3.65,-4.5 -7.34,-7.73 -16.42,-7.73l-92.61 0c-9.07,0 -14.23,2.7 -16.41,7.73 0,0 -10.58,19.25 -10.95,24.32 -0.36,5.06 7.34,7.7 16.41,7.7l114.5 0c9.05,0 16.05,-3.74 16.39,-7.7 0.39,-3.98 -10.92,-24.32 -10.92,-24.32z"></path> <path class="fil0" d="M1288.83 981.64l-52.32 0 0 -5.82 52.32 0 0 5.82zm0 12.44l-52.32 0 0 -5.78 52.32 0 0 5.78zm0 12.46l-52.32 0 0 -5.8 52.32 0 0 5.8zm0 12.45l-52.32 0 -35.19 0 0 -5.8 35.19 0 52.32 0 0 5.8zm-88.05 -43.17l27.96 0 0 30.48 -27.96 0 0 -30.48zm90.43 -19.98l-92.6 0c-9.09,0 -16.42,7.33 -16.42,16.41l0 51.78c0,9.06 7.33,16.42 16.42,16.42l92.6 0c9.07,0 16.42,-7.36 16.42,-16.42l0 -51.78c0,-9.07 -7.34,-16.41 -16.42,-16.41z"></path> <polygon class="fil1" points="64.53,503.57 64.53,940.28 77.37,940.28 77.37,503.57 "></polygon> <polygon class="fil1" points="1242.19,940.28 1255,940.28 1255,483.01 1242.19,483.01 "></polygon> <polygon class="fil1" points="659.16,646.78 671.97,646.78 671.97,189.52 659.16,189.52 "></polygon> <polygon class="fil1" points="777.68,118.5 1121.93,315.38 1128.29,304.24 784.06,107.35 "></polygon> <polygon class="fil1" points="152.29,1140.73 541.19,1363.13 547.55,1351.98 158.67,1129.59 "></polygon> <polygon class="fil1" points="784.7,818.62 1126.88,1014.3 1133.25,1003.15 791.08,807.47 "></polygon> <polygon class="fil1" points="771.99,1356.32 778.38,1367.46 1161.07,1147.44 1154.65,1136.32 "></polygon> <polygon class="fil1" points="169.14,1027.13 175.53,1038.26 558.21,818.25 551.79,807.13 "></polygon> <polygon class="fil1" points="181.22,312.31 187.61,323.43 543.21,118.95 536.81,107.83 "></polygon> <path class="fil0" d="M596.63 1202.15c0.63,10.05 -10.48,24.43 -28.62,35.59 -41.42,25.47 -96.56,27.41 -136.68,3.68 -36.99,-21.88 -42.76,-54.08 3.25,-82.38 17.75,-10.92 38.73,-16.71 54.29,-17.18l8.53 21.4c-11.48,1.96 -22.61,4.36 -35.21,12.11 -20.62,12.68 -23.8,31.07 1.6,46.09 22.82,13.5 55.43,12.98 79.48,-1.81 9.54,-5.87 17.1,-14.07 19.63,-23.4l33.73 5.9z"></path> <path class="fil0" d="M688.03 1097.08c39.39,23.3 29.44,48.73 0.8,66.34 -34.36,21.14 -77.18,24.6 -114.91,2.28l-74.35 -43.98 30.54 -18.79 68.09 40.28c20.06,11.86 41.64,17.03 63.02,3.87 18.52,-11.39 10.99,-22.52 -9.62,-34.71l-69.75 -41.26 30.55 -18.78 75.63 44.74z"></path> <path class="fil0" d="M752.13 1059l24.11 14.26c2.65,-0.96 5.68,-2.16 11.41,-5.69 11.84,-7.28 12.79,-13.86 4.14,-18.97 -8.11,-4.79 -17.9,-2.99 -27.82,3.12l-11.83 7.28zm-49.14 -29.07l23.38 13.83 10.12 -6.23c7.83,-4.81 11,-10.53 1.61,-16.09 -7.73,-4.57 -18.84,-2.4 -26.29,2.18 -3.82,2.35 -5.74,3.98 -8.82,6.31zm-57.78 2.67c7.08,-4.79 24.86,-16.62 39.37,-25.54 31.88,-19.6 59.03,-19.2 76.88,-8.64 13.43,7.95 17.11,16.57 13.44,26.38l0.36 0.22c13.24,-3.92 31.98,-4.12 48.54,5.68 27.05,16 17.99,36.9 -11.03,54.74 -12.79,7.87 -30.91,18.56 -39.47,22.94l-128.09 -75.77z"></path> <polygon class="fil0" points="762.61,959.96 841.84,911.24 869.44,927.57 820.76,957.51 843.4,970.89 886.35,944.48 913.95,960.81 871,987.23 894.37,1001.05 944.96,969.95 972.57,986.28 891.43,1036.17 "></polygon> <polygon class="fil0" points="394.94,425.98 394.94,310.16 292.77,367.53 "></polygon> <polygon class="fil0" points="283.76,380.28 283.76,858.99 394.94,796.56 394.94,443.88 "></polygon> <polygon class="fil0" points="899.76,776.58 1000.84,834.33 1000.84,490.48 899.76,547.21 "></polygon> <polygon class="fil0" points="787.16,251.31 787.16,350 899.76,414.72 899.76,530.26 1000.83,472.46 1045.13,497.77 1132.26,448.86 "></polygon> <polygon class="fil0" points="1060.1,506.32 1133.48,548.25 1133.48,465.14 "></polygon> <path class="fil0" d="M676.4 1439.87l-24.67 0c-1.97,0 -3.63,-0.57 -3.54,-1.67 0.07,-1.09 2.36,-5.24 2.36,-5.24 0.46,-1.08 1.58,-1.67 3.53,-1.67l19.97 0c1.95,0 2.77,0.71 3.54,1.67 0,0 2.45,4.38 2.36,5.24 -0.08,0.87 -1.58,1.67 -3.55,1.67zm51.48 -26.83c-3.64,-4.5 -7.34,-7.73 -16.41,-7.73l-92.6 0c-9.07,0 -14.23,2.7 -16.41,7.73 0,0 -10.58,19.25 -10.95,24.32 -0.36,5.06 7.33,7.7 16.41,7.7l114.5 0c9.06,0 16.05,-3.74 16.4,-7.7 0.38,-3.98 -10.93,-24.32 -10.93,-24.32z"></path> </g> <path class="fil0" d="M548.63 1763.2l8.36 16.37c-3.91,4.15 -9.52,7.53 -16.81,10.14 -7.29,2.61 -14.97,3.92 -23.04,3.92 -18.98,0 -34.45,-5.87 -46.43,-17.61 -11.86,-11.74 -17.79,-27.28 -17.79,-46.61 0,-18.5 5.63,-33.86 16.9,-46.08 11.15,-12.1 26.74,-18.15 46.79,-18.15 15.89,0 28.52,4.21 37.89,12.63l-9.78 16.19c-8.42,-5.58 -17.79,-8.36 -28.11,-8.36 -11.86,0 -21.58,3.97 -29.17,11.92 -7.59,7.95 -11.39,18.56 -11.39,31.84 0,13.04 3.97,23.6 11.92,31.67 8.06,8.06 18.44,12.1 31.13,12.1 10.91,0 20.75,-3.32 29.53,-9.96zm47.68 28.46l-20.46 0 0 -80.05 20.46 0 0 80.05zm-22.59 -108.87c0,-3.56 1.22,-6.44 3.65,-8.63 2.43,-2.19 5.49,-3.29 9.16,-3.29 3.2,0 5.96,1.13 8.27,3.38 2.31,2.25 3.47,5.1 3.47,8.54 0,3.79 -1.16,6.88 -3.47,9.25 -2.31,2.37 -5.07,3.56 -8.27,3.56 -3.68,0 -6.73,-1.19 -9.16,-3.56 -2.43,-2.37 -3.65,-5.46 -3.65,-9.25zm45.72 51.23c0,-7.47 2.73,-13.4 8.19,-17.79 5.45,-4.39 12.51,-6.58 21.17,-6.58 13.05,0 23.19,3.38 30.42,10.14l-7.65 14.59c-6.52,-5.1 -13.76,-7.65 -21.7,-7.65 -2.85,0 -5.22,0.68 -7.12,2.05 -1.9,1.36 -2.85,2.99 -2.85,4.89 0,3.91 5.04,7.17 15.12,9.78 3.68,0.83 6.94,1.75 9.78,2.76 2.85,1.01 5.78,2.43 8.81,4.27 3.02,1.84 5.37,4.24 7.03,7.21 1.66,2.97 2.49,6.4 2.49,10.32 0,7.83 -2.94,14.05 -8.81,18.68 -5.87,4.63 -13.73,6.94 -23.57,6.94 -7,0 -13.82,-1.48 -20.46,-4.45 -6.76,-3.08 -11.09,-6.17 -12.99,-9.25l9.96 -13.34c2.25,2.73 5.99,5.04 11.21,6.94 5.34,2.02 9.9,3.02 13.7,3.02 4.63,0.48 7.89,-1.04 9.78,-4.54 1.9,-3.5 0.65,-6.37 -3.74,-8.63 -1.78,-0.95 -4.54,-1.96 -8.27,-3.03 -3.74,-1.07 -7.17,-2.16 -10.32,-3.29 -3.14,-1.13 -6.35,-2.58 -9.61,-4.36 -3.26,-1.78 -5.84,-4.24 -7.74,-7.38 -1.9,-3.14 -2.85,-6.91 -2.85,-11.3zm142.32 30.78l9.61 14.94c-6.76,9.25 -17.37,13.88 -31.84,13.88 -12.93,0 -23.42,-3.85 -31.49,-11.56 -7.95,-7.59 -11.92,-17.73 -11.92,-30.42 0,-11.98 3.92,-21.94 11.74,-29.89 7.83,-8.06 17.73,-12.1 29.71,-12.1 14.23,0 24.96,3.62 32.2,10.85l-9.61 16.19c-5.46,-5.22 -12.1,-7.83 -19.92,-7.83 -5.93,0 -11.15,2.13 -15.66,6.4 -4.39,4.03 -6.58,9.49 -6.58,16.37 0,6.88 2.25,12.45 6.76,16.72 4.74,4.15 10.2,6.23 16.37,6.23 7.95,0 14.82,-3.26 20.63,-9.78zm28.64 17.08c-7.95,-7.95 -11.92,-18.03 -11.92,-30.24 0,-12.22 3.97,-22.24 11.92,-30.06 7.95,-7.95 18.5,-11.92 31.67,-11.92 13.04,0 23.54,3.97 31.49,11.92 8.06,7.83 12.1,17.85 12.1,30.06 0,12.1 -4.03,22.18 -12.1,30.24 -8.06,7.83 -18.56,11.74 -31.49,11.74 -13.17,0 -23.72,-3.92 -31.67,-11.74zm16.19 -46.61c-4.15,4.27 -6.23,9.73 -6.23,16.37 0,6.64 2.05,12.13 6.14,16.46 4.09,4.33 9.28,6.49 15.57,6.49 6.4,0 11.65,-2.14 15.74,-6.41 4.09,-4.27 6.14,-9.78 6.14,-16.54 0,-6.64 -2.08,-12.1 -6.23,-16.37 -4.15,-4.27 -9.37,-6.4 -15.65,-6.4 -6.17,0 -11.33,2.13 -15.48,6.4z"></path> <path class="fil2" d="M424.24 1513.19l7.39 14.54c-2.1,2.18 -5.37,3.98 -9.82,5.39 -4.44,1.41 -9.09,2.12 -13.94,2.12 -11.31,0 -20.32,-2.99 -27.03,-8.97 -6.7,-6.06 -10.06,-14.1 -10.06,-24.12 0,-9.29 3.11,-17.13 9.33,-23.51 6.3,-6.3 15.55,-9.45 27.75,-9.45 4.44,0 8.66,0.65 12.66,1.94 4,1.3 7.17,2.95 9.51,4.97l-8.6 14.54 -2.66 -0.97c-1.78,-0.73 -2.83,-1.13 -3.15,-1.21 -2.02,-0.73 -4.6,-1.09 -7.75,-1.09 -5.17,0 -9.21,1.23 -12.12,3.69 -2.91,2.47 -4.36,6.16 -4.36,11.09 0,4.44 1.66,8.04 4.97,10.79 3.31,2.75 7.76,4.12 13.33,4.12 5.41,0 10.26,-1.29 14.54,-3.88zm54.53 -7.88l-19.39 28.48 -18.18 0 0 -54.54 18.18 0 0 28.48 19.39 -28.48 18.18 0 0 54.54 -18.18 0 0 -28.48zm72.23 6.91l8.48 13.33c-4.77,6.46 -12.2,9.69 -22.3,9.69 -9.05,0 -16.32,-2.63 -21.81,-7.88 -5.41,-5.17 -8.12,-12.12 -8.12,-20.85 0,-8.16 2.66,-14.95 8,-20.36 5.5,-5.58 12.44,-8.36 20.85,-8.36 9.94,0 17.37,2.59 22.3,7.76l-8.36 14.3c-3.39,-3.39 -7.27,-5.09 -11.63,-5.09 -3.23,0 -6,1.09 -8.3,3.27 -2.3,2.18 -3.45,5.01 -3.45,8.48 0,3.47 1.21,6.3 3.64,8.48 2.58,2.18 5.37,3.27 8.36,3.27 4.44,0 8.56,-2.02 12.36,-6.06zm28.11 -14.79l-15.75 0 0 -18.18 49.69 0 0 18.18 -15.75 0 0 36.36 -18.18 0 0 -36.36zm84.35 18.79l4.97 12.85c-5.49,4.12 -12.56,6.18 -21.21,6.18 -8.89,0 -16.08,-2.63 -21.57,-7.88 -5.33,-5.25 -8,-12.2 -8,-20.85 0,-8.24 2.71,-15.07 8.12,-20.48 5.5,-5.5 12.64,-8.24 21.45,-8.24 7.19,0 13.41,2.42 18.66,7.27 5.17,4.69 7.76,10.82 7.76,18.42 0,3.63 -0.36,6.67 -1.09,9.09l-36.12 0c1.62,5.01 5.86,7.52 12.73,7.52 5.33,0 10.1,-1.3 14.3,-3.88zm-16.85 -23.27c-5.33,0 -8.93,2.5 -10.79,7.52l19.63 0c0,-2.1 -0.81,-3.88 -2.42,-5.34 -1.62,-1.45 -3.76,-2.18 -6.42,-2.18zm54.29 40.84l-18.18 0 0 -54.54 16.36 0 16.36 18.54 15.15 -18.54 15.88 0 0 54.54 -18.18 0 0 -26.78 -13.21 15.15 -0.36 0 -13.82 -15.15 0 26.78zm112.83 0l-18.18 0 0 -18.79 -17.57 0 0 18.79 -18.18 0 0 -54.54 18.18 0 0 18.79 17.57 0 0 -18.79 18.18 0 0 54.54zm18.54 -6.67c-5.5,-5.5 -8.24,-12.36 -8.24,-20.6 0,-8.24 2.74,-15.11 8.24,-20.6 5.5,-5.42 12.85,-8.12 22.06,-8.12 9.21,0 16.52,2.71 21.94,8.12 5.58,5.41 8.36,12.28 8.36,20.6 0,8.32 -2.79,15.19 -8.36,20.6 -5.42,5.41 -12.73,8.12 -21.94,8.12 -9.21,0 -16.56,-2.71 -22.06,-8.12zm11.15 -20.6c0,3.39 1.03,6.2 3.09,8.42 2.06,2.22 4.67,3.33 7.82,3.33 3.23,0 5.86,-1.07 7.88,-3.21 2.02,-2.14 3.03,-4.99 3.03,-8.54 0,-3.39 -1.03,-6.2 -3.09,-8.42 -2.06,-2.22 -4.67,-3.33 -7.82,-3.33 -3.15,0 -5.76,1.07 -7.82,3.21 -2.06,2.14 -3.09,4.99 -3.09,8.54zm94.29 9.69l4.97 12.85c-5.49,4.12 -12.56,6.18 -21.21,6.18 -8.89,0 -16.08,-2.63 -21.57,-7.88 -5.33,-5.25 -8,-12.2 -8,-20.85 0,-8.24 2.71,-15.07 8.12,-20.48 5.5,-5.5 12.64,-8.24 21.45,-8.24 7.19,0 13.41,2.42 18.66,7.27 5.17,4.69 7.76,10.82 7.76,18.42 0,3.63 -0.36,6.67 -1.09,9.09l-36.12 0c1.62,5.01 5.86,7.52 12.73,7.52 5.33,0 10.1,-1.3 14.3,-3.88zm-16.85 -23.27c-5.33,0 -8.93,2.5 -10.79,7.52l19.63 0c0,-2.1 -0.81,-3.88 -2.42,-5.34 -1.62,-1.45 -3.76,-2.18 -6.42,-2.18zm-804.64 86.42l-4.48 -13.21c5.81,-3.55 12.56,-5.33 20.24,-5.33 7.92,0 13.67,1.9 17.27,5.7 3.6,3.8 5.39,9.61 5.39,17.45l0 32.84 -15.75 0 0 -4.97c-2.67,3.8 -7.43,5.69 -14.3,5.69 -5.17,0 -9.33,-1.54 -12.48,-4.6 -3.15,-3.07 -4.72,-7.27 -4.72,-12.61 0,-5.74 1.8,-10.18 5.39,-13.33 3.6,-3.15 8.34,-4.72 14.24,-4.72 4.6,0 8.16,1.01 10.66,3.03 0.4,-6.22 -2.1,-9.33 -7.51,-9.33 -3.72,0 -8.36,1.13 -13.94,3.39zm14.54 23.03c3.23,0 5.54,-0.93 6.91,-2.79l0 -3.39c-1.7,-1.21 -4,-1.82 -6.91,-1.82 -1.54,0 -2.79,0.36 -3.76,1.09 -0.97,0.73 -1.46,1.74 -1.46,3.03 0,1.21 0.49,2.16 1.46,2.85 0.97,0.69 2.22,1.03 3.76,1.03zm47.51 26.54l-16.97 0 0 -29.08 7.03 0c3.96,-5.17 6.3,-13.78 7.03,-25.82l0.73 -11.75 43.27 0 0 37.57 9.09 0 0 29.08 -16.97 0 0 -12.12 -33.21 0 0 12.12zm14.79 -49.69l-0.24 2.18c-0.97,8.16 -2.79,14.3 -5.45,18.42l13.81 0 0 -20.61 -8.12 0zm61.44 37.57l-18.18 0 0 -54.54 16.36 0 16.36 18.54 15.15 -18.54 15.88 0 0 54.54 -18.18 0 0 -26.78 -13.21 15.15 -0.36 0 -13.82 -15.15 0 26.78zm96.47 -28.48l-19.39 28.48 -18.18 0 0 -54.54 18.18 0 0 28.48 19.39 -28.48 18.18 0 0 54.54 -18.18 0 0 -28.48zm85.44 28.48l-18.18 0 0 -18.79 -17.57 0 0 18.79 -18.18 0 0 -54.54 18.18 0 0 18.79 17.57 0 0 -18.79 18.18 0 0 54.54zm50.9 -28.48l-19.39 28.48 -18.18 0 0 -54.54 18.18 0 0 28.48 19.39 -28.48 18.18 0 0 54.54 -18.18 0 0 -28.48zm72.23 6.91l8.48 13.33c-4.77,6.46 -12.2,9.69 -22.3,9.69 -9.05,0 -16.32,-2.63 -21.81,-7.88 -5.41,-5.17 -8.12,-12.12 -8.12,-20.85 0,-8.16 2.66,-14.95 8,-20.36 5.5,-5.58 12.44,-8.36 20.85,-8.36 9.94,0 17.37,2.59 22.3,7.76l-8.36 14.3c-3.39,-3.39 -7.27,-5.09 -11.63,-5.09 -3.23,0 -6,1.09 -8.3,3.27 -2.3,2.18 -3.45,5.01 -3.45,8.48 0,3.47 1.21,6.3 3.64,8.48 2.58,2.18 5.37,3.27 8.36,3.27 4.44,0 8.56,-2.02 12.36,-6.06zm28.11 -14.79l-15.75 0 0 -18.18 49.69 0 0 18.18 -15.75 0 0 36.36 -18.18 0 0 -36.36zm61.2 60.6l-18.18 0 0 -78.77 18.18 0 0 4.12c3.72,-3.72 8.77,-5.58 15.15,-5.58 7.19,0 13.05,2.63 17.57,7.88 4.53,5.25 6.79,11.92 6.79,20 0,8.48 -2.71,15.55 -8.12,21.21 -5.49,5.58 -12.56,8.36 -21.21,8.36 -4.04,0 -7.43,-0.57 -10.18,-1.7l0 24.48zm9.45 -63.26c-3.39,0 -6.54,1.62 -9.45,4.85l0 16.6c2.34,1.38 5.17,2.06 8.48,2.06 3.72,0 6.59,-1.11 8.61,-3.33 2.02,-2.22 3.03,-5.19 3.03,-8.91 0,-3.39 -0.95,-6.12 -2.85,-8.18 -1.9,-2.06 -4.5,-3.09 -7.81,-3.09zm77.92 10.54l-19.39 28.48 -18.18 0 0 -54.54 18.18 0 0 28.48 19.39 -28.48 18.18 0 0 54.54 -18.18 0 0 -28.48zm49.69 52.72l-18.18 0 0 -78.77 18.18 0 0 4.12c3.72,-3.72 8.77,-5.58 15.15,-5.58 7.19,0 13.05,2.63 17.57,7.88 4.53,5.25 6.79,11.92 6.79,20 0,8.48 -2.71,15.55 -8.12,21.21 -5.49,5.58 -12.56,8.36 -21.21,8.36 -4.04,0 -7.43,-0.57 -10.18,-1.7l0 24.48zm9.45 -63.26c-3.39,0 -6.54,1.62 -9.45,4.85l0 16.6c2.34,1.38 5.17,2.06 8.48,2.06 3.72,0 6.59,-1.11 8.61,-3.33 2.02,-2.22 3.03,-5.19 3.03,-8.91 0,-3.39 -0.95,-6.12 -2.85,-8.18 -1.9,-2.06 -4.5,-3.09 -7.81,-3.09zm45.57 32.36c-5.5,-5.5 -8.24,-12.36 -8.24,-20.6 0,-8.24 2.74,-15.11 8.24,-20.6 5.5,-5.42 12.85,-8.12 22.06,-8.12 9.21,0 16.52,2.71 21.94,8.12 5.58,5.41 8.36,12.28 8.36,20.6 0,8.32 -2.79,15.19 -8.36,20.6 -5.42,5.41 -12.73,8.12 -21.94,8.12 -9.21,0 -16.56,-2.71 -22.06,-8.12zm11.15 -20.6c0,3.39 1.03,6.2 3.09,8.42 2.06,2.22 4.67,3.33 7.82,3.33 3.23,0 5.86,-1.07 7.88,-3.21 2.02,-2.14 3.03,-4.99 3.03,-8.54 0,-3.39 -1.03,-6.2 -3.09,-8.42 -2.06,-2.22 -4.67,-3.33 -7.82,-3.33 -3.15,0 -5.76,1.07 -7.82,3.21 -2.06,2.14 -3.09,4.99 -3.09,8.54zm51.51 27.27l0 -54.54c0.65,0 3.98,-0.12 10,-0.36 6.02,-0.24 10.48,-0.36 13.39,-0.36 17.21,0 25.82,4.85 25.82,14.54 0,3.07 -0.95,5.72 -2.85,7.94 -1.9,2.22 -4.14,3.53 -6.72,3.94l0 0.24c3.39,0.97 6.04,2.53 7.94,4.67 1.9,2.14 2.85,4.67 2.85,7.57 0,11.39 -8.97,17.09 -26.91,17.09 -2.42,0 -6.58,-0.12 -12.48,-0.36 -5.82,-0.24 -9.49,-0.36 -11.03,-0.36zm24 -21.81l-5.82 0 0 7.51c3.15,0.32 5.62,0.49 7.39,0.49 1.62,0 2.95,-0.38 4,-1.15 1.05,-0.77 1.57,-1.68 1.57,-2.73 0,-2.75 -2.38,-4.12 -7.15,-4.12zm1.09 -18.91c-3.15,0 -5.45,0.12 -6.91,0.36l0 7.63 6.06 0c3.8,0 5.69,-1.37 5.69,-4.12 0,-1.05 -0.44,-1.96 -1.33,-2.73 -0.89,-0.77 -2.06,-1.15 -3.52,-1.15zm42.66 3.27l-4.48 -13.21c5.81,-3.55 12.56,-5.33 20.24,-5.33 7.92,0 13.67,1.9 17.27,5.7 3.6,3.8 5.39,9.61 5.39,17.45l0 32.84 -15.75 0 0 -4.97c-2.67,3.8 -7.43,5.69 -14.3,5.69 -5.17,0 -9.33,-1.54 -12.48,-4.6 -3.15,-3.07 -4.72,-7.27 -4.72,-12.61 0,-5.74 1.8,-10.18 5.39,-13.33 3.6,-3.15 8.34,-4.72 14.24,-4.72 4.6,0 8.16,1.01 10.66,3.03 0.4,-6.22 -2.1,-9.33 -7.51,-9.33 -3.72,0 -8.36,1.13 -13.94,3.39zm14.54 23.03c3.23,0 5.54,-0.93 6.91,-2.79l0 -3.39c-1.7,-1.21 -4,-1.82 -6.91,-1.82 -1.54,0 -2.79,0.36 -3.76,1.09 -0.97,0.73 -1.46,1.74 -1.46,3.03 0,1.21 0.49,2.16 1.46,2.85 0.97,0.69 2.22,1.03 3.76,1.03zm89.92 14.42l-18.18 0 0 -18.79 -17.57 0 0 18.79 -18.18 0 0 -54.54 18.18 0 0 18.79 17.57 0 0 -18.79 18.18 0 0 54.54zm50.9 -28.48l-19.39 28.48 -18.18 0 0 -54.54 18.18 0 0 28.48 19.39 -28.48 18.18 0 0 54.54 -18.18 0 0 -28.48zm74.29 10.91l4.97 12.85c-5.49,4.12 -12.56,6.18 -21.21,6.18 -8.89,0 -16.08,-2.63 -21.57,-7.88 -5.33,-5.25 -8,-12.2 -8,-20.85 0,-8.24 2.71,-15.07 8.12,-20.48 5.5,-5.5 12.64,-8.24 21.45,-8.24 7.19,0 13.41,2.42 18.66,7.27 5.17,4.69 7.76,10.82 7.76,18.42 0,3.63 -0.36,6.67 -1.09,9.09l-36.12 0c1.62,5.01 5.86,7.52 12.73,7.52 5.33,0 10.1,-1.3 14.3,-3.88zm-16.85 -23.27c-5.33,0 -8.93,2.5 -10.79,7.52l19.63 0c0,-2.1 -0.81,-3.88 -2.42,-5.34 -1.62,-1.45 -3.76,-2.18 -6.42,-2.18z"></path> </g> </svg> 